<svg width="144" height="28" viewBox="0 0 144 28" fill="none" xmlns="http://www.w3.org/2000/svg">
<g opacity="0.6">
<path d="M21.5712 13.5388C21.844 13.26 22.0339 12.9109 22.1198 12.5304C22.2057 12.15 22.1842 11.7531 22.0578 11.3841C21.9391 11.0141 21.7188 10.6848 21.4222 10.4337C21.1255 10.1827 20.7643 10.02 20.3797 9.96421L16.1199 9.30886C16.1 9.3031 16.0817 9.29298 16.0662 9.27924C16.0508 9.2655 16.0386 9.24848 16.0305 9.22942L14.1638 5.25762C14.0001 4.8857 13.7318 4.56941 13.3915 4.34727C13.0513 4.12513 12.6538 4.00674 12.2474 4.0065C11.8458 4.00484 11.4522 4.11922 11.114 4.33588C10.7758 4.55254 10.5073 4.86227 10.3409 5.22783L8.47419 9.19964C8.464 9.219 8.44992 9.23605 8.43283 9.24972C8.41575 9.26339 8.39602 9.27338 8.37489 9.27907L4.12506 9.96421C3.73989 10.0216 3.37819 10.1847 3.08018 10.4354C2.78217 10.686 2.55954 11.0145 2.43705 11.3841C2.31521 11.7544 2.29707 12.1509 2.38459 12.5308C2.47211 12.9106 2.66195 13.2592 2.93352 13.5388L6.07125 16.7659C6.08028 16.7862 6.08495 16.8082 6.08495 16.8305C6.08495 16.8527 6.08028 16.8747 6.07125 16.895L5.33646 21.403C5.26816 21.7956 5.31269 22.1995 5.46488 22.5678C5.61707 22.9361 5.87067 23.2536 6.1962 23.4834C6.52172 23.7133 6.9058 23.846 7.30378 23.8662C7.70177 23.8864 8.0973 23.7932 8.4444 23.5974L12.1481 21.542C12.1665 21.5324 12.1869 21.5274 12.2077 21.5274C12.2284 21.5274 12.2489 21.5324 12.2673 21.542L15.971 23.5974C16.3185 23.789 16.713 23.8788 17.1092 23.8568C17.5054 23.8348 17.8875 23.7017 18.2117 23.4728C18.5358 23.2439 18.7891 22.9284 18.9424 22.5624C19.0958 22.1964 19.1431 21.7946 19.0789 21.403L18.3938 16.9149C18.3833 16.8967 18.3778 16.8762 18.3778 16.8553C18.3778 16.8344 18.3833 16.8138 18.3938 16.7957L21.5712 13.5388Z" fill="#90A3BF"/>
</g>
<g opacity="0.6">
<path d="M51.3583 13.5387C51.6311 13.2599 51.821 12.9108 51.9069 12.5303C51.9928 12.1499 51.9713 11.753 51.8449 11.384C51.7262 11.014 51.5059 10.6847 51.2093 10.4336C50.9126 10.1826 50.5514 10.0199 50.1668 9.96412L45.907 9.30877C45.8871 9.30301 45.8688 9.29289 45.8534 9.27915C45.8379 9.26541 45.8257 9.24839 45.8177 9.22933L43.9509 5.25753C43.7872 4.88561 43.5189 4.56932 43.1786 4.34718C42.8384 4.12504 42.4409 4.00665 42.0345 4.00641C41.6329 4.00475 41.2393 4.11913 40.9011 4.33579C40.5629 4.55245 40.2944 4.86218 40.128 5.22774L38.2613 9.19954C38.2511 9.21891 38.237 9.23596 38.2199 9.24963C38.2029 9.2633 38.1831 9.27329 38.162 9.27898L33.9122 9.96412C33.527 10.0215 33.1653 10.1846 32.8673 10.4353C32.5693 10.686 32.3467 11.0144 32.2242 11.384C32.1023 11.7543 32.0842 12.1508 32.1717 12.5307C32.2592 12.9105 32.4491 13.2591 32.7206 13.5387L35.8584 16.7658C35.8674 16.7861 35.8721 16.8081 35.8721 16.8304C35.8721 16.8526 35.8674 16.8746 35.8584 16.8949L35.1236 21.4029C35.0553 21.7955 35.0998 22.1994 35.252 22.5677C35.4042 22.936 35.6578 23.2535 35.9833 23.4834C36.3088 23.7132 36.6929 23.8459 37.0909 23.8661C37.4889 23.8863 37.8844 23.7931 38.2315 23.5973L41.9352 21.5419C41.9536 21.5323 41.9741 21.5273 41.9948 21.5273C42.0155 21.5273 42.036 21.5323 42.0544 21.5419L45.7581 23.5973C46.1056 23.7889 46.5001 23.8788 46.8963 23.8567C47.2925 23.8347 47.6746 23.7016 47.9988 23.4727C48.323 23.2438 48.5762 22.9283 48.7296 22.5623C48.8829 22.1963 48.9302 21.7945 48.866 21.4029L48.1809 16.9148C48.1704 16.8967 48.1649 16.8761 48.1649 16.8552C48.1649 16.8343 48.1704 16.8137 48.1809 16.7956L51.3583 13.5387Z" fill="#90A3BF"/>
</g>
<g opacity="0.6">
<path d="M81.1493 13.5387C81.4221 13.2599 81.612 12.9108 81.6979 12.5303C81.7839 12.1499 81.7624 11.753 81.6359 11.384C81.5172 11.014 81.297 10.6847 81.0003 10.4336C80.7036 10.1826 80.3424 10.0199 79.9578 9.96412L75.698 9.30877C75.6782 9.30301 75.6598 9.29289 75.6444 9.27915C75.6289 9.26541 75.6167 9.24839 75.6087 9.22933L73.7419 5.25753C73.5782 4.88561 73.3099 4.56932 72.9696 4.34718C72.6294 4.12504 72.2319 4.00665 71.8255 4.00641C71.4239 4.00475 71.0303 4.11913 70.6921 4.33579C70.3539 4.55245 70.0855 4.86218 69.9191 5.22774L68.0523 9.19954C68.0421 9.21891 68.028 9.23596 68.011 9.24963C67.9939 9.2633 67.9741 9.27329 67.953 9.27898L63.7032 9.96412C63.318 10.0215 62.9563 10.1846 62.6583 10.4353C62.3603 10.686 62.1377 11.0144 62.0152 11.384C61.8933 11.7543 61.8752 12.1508 61.9627 12.5307C62.0502 12.9105 62.2401 13.2591 62.5116 13.5387L65.6494 16.7658C65.6584 16.7861 65.6631 16.8081 65.6631 16.8304C65.6631 16.8526 65.6584 16.8746 65.6494 16.8949L64.9146 21.4029C64.8463 21.7955 64.8908 22.1994 65.043 22.5677C65.1952 22.936 65.4488 23.2535 65.7743 23.4834C66.0998 23.7132 66.4839 23.8459 66.8819 23.8661C67.2799 23.8863 67.6754 23.7931 68.0225 23.5973L71.7262 21.5419C71.7446 21.5323 71.7651 21.5273 71.7858 21.5273C71.8065 21.5273 71.827 21.5323 71.8454 21.5419L75.5491 23.5973C75.8967 23.7889 76.2911 23.8788 76.6873 23.8567C77.0836 23.8347 77.4656 23.7016 77.7898 23.4727C78.114 23.2438 78.3672 22.9283 78.5206 22.5623C78.6739 22.1963 78.7212 21.7945 78.657 21.4029L77.9719 16.9148C77.9614 16.8967 77.9559 16.8761 77.9559 16.8552C77.9559 16.8343 77.9614 16.8137 77.9719 16.7956L81.1493 13.5387Z" fill="#90A3BF"/>
</g>
<g opacity="0.6">
<path d="M110.936 13.5388C111.209 13.26 111.399 12.9109 111.485 12.5304C111.571 12.15 111.549 11.7531 111.423 11.3841C111.304 11.0141 111.084 10.6848 110.787 10.4337C110.491 10.1827 110.13 10.02 109.745 9.96421L105.485 9.30886C105.465 9.3031 105.447 9.29298 105.431 9.27924C105.416 9.2655 105.404 9.24848 105.396 9.22942L103.529 5.25762C103.365 4.8857 103.097 4.56941 102.757 4.34727C102.416 4.12513 102.019 4.00674 101.613 4.0065C101.211 4.00484 100.817 4.11922 100.479 4.33588C100.141 4.55254 99.8726 4.86227 99.7062 5.22783L97.8394 9.19964C97.8292 9.219 97.8152 9.23605 97.7981 9.24972C97.781 9.26339 97.7613 9.27338 97.7401 9.27907L93.4903 9.96421C93.1051 10.0216 92.7434 10.1847 92.4454 10.4354C92.1474 10.686 91.9248 11.0145 91.8023 11.3841C91.6804 11.7544 91.6623 12.1509 91.7498 12.5308C91.8373 12.9106 92.0272 13.2592 92.2988 13.5388L95.4365 16.7659C95.4455 16.7862 95.4502 16.8082 95.4502 16.8305C95.4502 16.8527 95.4455 16.8747 95.4365 16.895L94.7017 21.403C94.6334 21.7956 94.6779 22.1995 94.8301 22.5678C94.9823 22.9361 95.2359 23.2536 95.5614 23.4834C95.887 23.7133 96.271 23.846 96.669 23.8662C97.067 23.8864 97.4625 23.7932 97.8096 23.5974L101.513 21.542C101.532 21.5324 101.552 21.5274 101.573 21.5274C101.594 21.5274 101.614 21.5324 101.632 21.542L105.336 23.5974C105.684 23.789 106.078 23.8788 106.474 23.8568C106.871 23.8348 107.253 23.7017 107.577 23.4728C107.901 23.2439 108.154 22.9284 108.308 22.5624C108.461 22.1964 108.508 21.7946 108.444 21.403L107.759 16.9149C107.749 16.8967 107.743 16.8762 107.743 16.8553C107.743 16.8344 107.749 16.8138 107.759 16.7957L110.936 13.5388Z" fill="#90A3BF"/>
</g>
<g opacity="0.8">
<path d="M140.726 15.028C140.998 14.7492 141.188 14.4001 141.274 14.0196C141.36 13.6391 141.339 13.2423 141.212 12.8733C141.093 12.5032 140.873 12.1739 140.576 11.9229C140.28 11.6719 139.919 11.5092 139.534 11.4534L135.274 10.798C135.254 10.7923 135.236 10.7821 135.221 10.7684C135.205 10.7547 135.193 10.7376 135.185 10.7186L133.318 6.74679C133.154 6.37487 132.886 6.05858 132.546 5.83644C132.206 5.6143 131.808 5.4959 131.402 5.49567C131 5.49401 130.606 5.60838 130.268 5.82504C129.93 6.04171 129.662 6.35143 129.495 6.717L127.628 10.6888C127.618 10.7082 127.604 10.7252 127.587 10.7389C127.57 10.7526 127.55 10.7625 127.529 10.7682L123.279 11.4534C122.894 11.5108 122.532 11.6739 122.234 11.9245C121.936 12.1752 121.714 12.5036 121.591 12.8733C121.47 13.2435 121.451 13.6401 121.539 14.0199C121.626 14.3998 121.816 14.7484 122.088 15.028L125.226 18.2551C125.235 18.2754 125.239 18.2974 125.239 18.3196C125.239 18.3419 125.235 18.3639 125.226 18.3842L124.491 22.8922C124.422 23.2848 124.467 23.6887 124.619 24.057C124.771 24.4252 125.025 24.7428 125.35 24.9726C125.676 25.2025 126.06 25.3352 126.458 25.3554C126.856 25.3755 127.252 25.2823 127.599 25.0866L131.302 23.0312C131.321 23.0216 131.341 23.0166 131.362 23.0166C131.383 23.0166 131.403 23.0216 131.422 23.0312L135.125 25.0866C135.473 25.2781 135.867 25.368 136.263 25.346C136.66 25.3239 137.042 25.1909 137.366 24.962C137.69 24.7331 137.943 24.4176 138.097 24.0516C138.25 23.6856 138.297 23.2838 138.233 22.8922L137.548 18.404C137.538 18.3859 137.532 18.3654 137.532 18.3445C137.532 18.3235 137.538 18.303 137.548 18.2849L140.726 15.028Z" fill="#7B60A1"/>
</g>
<path d="M140.726 12.049C140.998 11.7702 141.188 11.4211 141.274 11.0406C141.36 10.6601 141.339 10.2633 141.212 9.89429C141.093 9.52423 140.873 9.19493 140.576 8.9439C140.28 8.69286 139.919 8.53018 139.534 8.47437L135.274 7.81902C135.254 7.81326 135.236 7.80315 135.221 7.7894C135.205 7.77566 135.193 7.75864 135.185 7.73959L133.318 3.76778C133.154 3.39586 132.886 3.07957 132.546 2.85743C132.206 2.6353 131.808 2.5169 131.402 2.51667C131 2.515 130.606 2.62938 130.268 2.84604C129.93 3.0627 129.662 3.37243 129.495 3.73799L127.628 7.7098C127.618 7.72916 127.604 7.74621 127.587 7.75988C127.57 7.77355 127.55 7.78354 127.529 7.78923L123.279 8.47437C122.894 8.53175 122.532 8.69485 122.234 8.94553C121.936 9.19621 121.714 9.52464 121.591 9.89429C121.47 10.2645 121.451 10.6611 121.539 11.0409C121.626 11.4208 121.816 11.7694 122.088 12.049L125.226 15.2761C125.235 15.2964 125.239 15.3184 125.239 15.3406C125.239 15.3629 125.235 15.3848 125.226 15.4052L124.491 19.9132C124.422 20.3058 124.467 20.7097 124.619 21.078C124.771 21.4462 125.025 21.7638 125.35 21.9936C125.676 22.2235 126.06 22.3562 126.458 22.3764C126.856 22.3965 127.252 22.3033 127.599 22.1076L131.302 20.0522C131.321 20.0426 131.341 20.0376 131.362 20.0376C131.383 20.0376 131.403 20.0426 131.422 20.0522L135.125 22.1076C135.473 22.2991 135.867 22.389 136.263 22.367C136.66 22.3449 137.042 22.2119 137.366 21.983C137.69 21.7541 137.943 21.4386 138.097 21.0726C138.25 20.7066 138.297 20.3048 138.233 19.9132L137.548 15.425C137.538 15.4069 137.532 15.3864 137.532 15.3654C137.532 15.3445 137.538 15.324 137.548 15.3059L140.726 12.049Z" fill="url(#paint0_linear_1092_17343)"/>
<defs>
<linearGradient id="paint0_linear_1092_17343" x1="141.326" y1="12.4482" x2="121.484" y2="12.4482" gradientUnits="userSpaceOnUse">
<stop stop-color="#FEBF10"/>
<stop offset="1" stop-color="#FEDB7C"/>
</linearGradient>
</defs>
</svg>
