<svg width="70" height="77" viewBox="0 0 70 77" fill="none" xmlns="http://www.w3.org/2000/svg">
<path d="M61.0752 31.6048C53.3686 3.79139 40.9621 0.404134 36.5904 0.111089C35.0439 -0.138861 33.4197 0.111089 33.4197 0.111089C29.048 0.404134 16.6415 3.79139 8.93494 31.6134C8.93494 31.6134 -0.629143 65.8394 19.0174 72.2864C19.0174 72.2864 24.7109 73.8378 35.0094 73.8378C45.3078 73.8378 51.0013 72.2864 51.0013 72.2864C70.6479 65.8308 61.0752 31.6048 61.0752 31.6048Z" fill="#99D3D9"/>
<path d="M58.577 52.7127C58.577 52.7127 58.4906 24.8562 34.9995 24.8562C11.5083 24.8562 11.4219 52.7127 11.4219 52.7127C11.4219 72.3295 29.0381 73.7775 33.8158 73.8034L34.9995 73.8292L36.1744 73.8034C40.9522 73.7775 58.577 72.3381 58.577 52.7127Z" fill="#DAEEF1"/>
<path d="M58.577 52.7127C58.577 52.7127 58.4906 24.8562 34.9995 24.8562C11.5083 24.8562 11.4219 52.7127 11.4219 52.7127C11.4219 72.3295 29.0381 73.7775 33.8158 73.8034L34.9995 73.8292L36.1744 73.8034C40.9522 73.7775 58.577 72.3381 58.577 52.7127Z" fill="#DAEEF1"/>
<path d="M56.8303 62.116C56.4761 61.5386 55.949 61.0473 55.2406 60.7025C53.9878 60.0906 52.45 60.2371 51.2664 60.9352C48.398 62.6332 49.4348 66.0377 50.6961 68.4596C50.8517 68.7526 51.0245 69.0285 51.2145 69.2612C53.4781 67.5719 55.4911 65.2706 56.8303 62.116Z" fill="#C2E5E8"/>
<path d="M17.4266 36.3195C17.5475 37.0779 17.9709 37.8881 18.3337 38.4225C18.8262 39.1379 19.3878 39.836 20.1308 40.2928C21.8155 41.3185 24.3728 40.4135 23.9409 38.1639C23.6903 36.8625 22.835 35.6989 21.6945 35.0094C20.7787 34.4578 19.3618 34.0699 18.3251 34.5095C17.4957 34.8628 17.3143 35.5696 17.4266 36.3195Z" fill="#C2E5E8"/>
<path d="M29.6242 33.4665C30.8251 33.2769 32.1383 33.7682 32.579 34.9748C32.8554 35.7419 32.7431 36.6124 32.3803 37.3451C31.9742 38.1725 31.2744 38.8792 30.5055 39.3705C28.9676 40.3531 26.8768 40.2238 26.4103 38.1725C25.9264 36.035 27.4989 33.8027 29.6242 33.4665Z" fill="#C2E5E8"/>
<path d="M37.9449 30.2345C36.2774 30.6396 35.5603 33.1218 35.8281 34.5957C36.2515 36.8711 39.189 38.5604 41.0983 36.7504C42.2992 35.6213 41.7636 33.8458 41.0983 32.5788C40.5368 31.5101 39.379 29.8897 37.9449 30.2345Z" fill="#C2E5E8"/>
<path d="M45.6862 36.466C45.5307 36.7763 45.4616 37.1297 45.5307 37.5175C45.738 38.6811 47.1031 39.9739 48.0016 40.6807C49.0989 41.5512 50.4812 42.0166 51.7599 41.2151C52.4856 40.7583 52.9781 39.905 52.9003 39.0517C52.7966 37.8709 51.708 36.5091 50.8786 35.7162C50.4121 35.2766 49.8332 34.9232 49.2025 34.837C48.0621 34.6819 46.2564 35.3283 45.6862 36.466Z" fill="#C2E5E8"/>
<path d="M43.5342 41.8269C42.1173 41.2322 40.4239 41.5166 39.2749 42.594C38.1604 43.6282 37.7197 45.6106 38.7565 46.8517C39.1971 47.3775 39.8451 47.6964 40.5017 47.8946C41.8236 48.3083 43.5774 48.498 44.8474 47.8515C45.2276 47.6619 45.5732 47.3861 45.7978 47.0327C46.1693 46.4466 46.1952 45.6882 46.0224 45.0159C45.72 43.8696 45.1671 42.8094 44.1476 42.1458C43.9576 42.0251 43.7502 41.9217 43.5342 41.8269Z" fill="#C2E5E8"/>
<path d="M30.3935 43.611C31.3957 43.3438 32.4065 43.5335 33.21 44.4471C33.7111 45.0245 33.9012 45.8175 33.8753 46.5759C33.7802 49.3168 30.9896 51.3853 28.32 50.7562C27.5683 50.5752 26.8167 50.1528 26.5056 49.4461C26.2551 48.8858 26.3156 48.2308 26.4711 47.6447C26.9635 45.8261 28.536 44.1023 30.3935 43.611Z" fill="#C2E5E8"/>
<path d="M16.8648 44.9902C16.9858 44.835 17.1326 44.7058 17.2968 44.5937C18.8174 43.5681 21.081 44.3782 22.3424 45.4556C24.5195 47.3173 24.3986 51.0407 21.1674 51.6527C20.744 51.7302 20.2948 51.7302 19.8973 51.5665C19.2753 51.3079 18.8779 50.7132 18.6014 50.1012C18.3336 49.4893 18.1521 48.8343 17.7979 48.274C17.3227 47.5156 16.502 46.8691 16.502 45.9728C16.502 45.6108 16.6488 45.2746 16.8648 44.9902Z" fill="#C2E5E8"/>
<path d="M26.2895 54.6519C26.4709 54.6605 26.6523 54.6778 26.8424 54.7209C28.89 55.1432 30.5056 57.7461 29.1405 59.6251C28.6394 60.3146 27.7928 60.711 26.9374 60.8231C25.5897 61.0041 23.6457 60.7886 23.015 59.3751C22.4448 58.0995 23.2915 56.3843 24.2159 55.4707C24.7862 54.9019 25.5205 54.6347 26.2895 54.6519Z" fill="#C2E5E8"/>
<path d="M39.283 61.9781C39.3175 61.9608 39.3521 61.9522 39.3867 61.935C40.242 61.5299 40.864 60.7197 41.201 59.8319C42.3328 56.8843 40.9763 53.2729 38.013 51.9801C37.0885 51.575 35.8358 51.6439 35.231 52.5489C34.9286 53.0057 34.8076 53.5573 34.7299 54.1003C34.4448 56.2292 34.8336 58.4443 35.8185 60.3491C36.5269 61.685 37.7538 62.6417 39.283 61.9781Z" fill="#C2E5E8"/>
<path d="M51.569 49.3254C50.6791 49.3771 49.7633 49.6615 48.9512 49.9804C47.9144 50.3855 46.9468 51.0578 46.4025 52.0231C45.8496 52.9884 45.7977 54.2727 46.4371 55.1777C47.2405 56.3067 48.813 56.5567 50.1953 56.4791C51.6986 56.4016 53.2797 56.0137 54.3423 54.9449C55.7679 53.5056 55.5605 51.2474 53.9967 50.0149C53.271 49.446 52.433 49.2823 51.569 49.3254Z" fill="#C2E5E8"/>
<path d="M33.3567 68.9164C33.4172 69.1405 33.4344 69.3732 33.3653 69.5973C33.2098 70.1403 32.6396 70.442 32.0953 70.5971C30.4883 71.0453 27.8273 70.7695 27.0411 69.0457C26.756 68.4252 26.7905 67.6753 27.1361 67.0892C27.7409 66.0377 29.0801 65.805 30.1859 66.0205C31.6028 66.2963 32.7346 67.2616 33.253 68.6061C33.2962 68.701 33.3308 68.813 33.3567 68.9164Z" fill="#C2E5E8"/>
<path d="M43.0336 30.2602C43.9494 30.8032 45.6169 30.8376 46.4549 30.1223C46.956 29.6999 47.2411 28.9415 47.267 28.2261C45.9365 27.3469 44.4505 26.6057 42.7917 26.0369C42.1869 26.5109 41.8068 27.2521 41.7895 28.0192C41.7722 28.9156 42.2647 29.8034 43.0336 30.2602Z" fill="#C2E5E8"/>
<path d="M25.5389 30.8636C27.0682 31.8979 29.9452 30.8808 30.2389 28.9847C30.3944 27.9504 29.7724 27.1661 29.038 26.5282C28.9862 26.4765 28.9257 26.4334 28.8738 26.3817C28.6233 26.1663 28.3468 25.9594 28.0617 25.7698C26.4979 26.2266 25.0897 26.8385 23.8024 27.5711C23.4913 28.8812 24.4331 30.1224 25.5389 30.8636Z" fill="#C2E5E8"/>
<path d="M21.8846 64.3223C21.6599 64.1155 21.4008 63.9517 21.1329 63.8138C19.1804 62.7968 16.6749 62.9692 14.8433 64.1758C14.6878 64.2792 14.5495 64.3913 14.4199 64.5292C15.4826 66.2358 16.7613 67.632 18.1609 68.7697C18.8607 68.6318 19.5605 68.4422 20.2344 68.1923C20.8133 67.9768 21.4008 67.7096 21.8241 67.2528C22.4548 66.5805 22.7399 65.3997 22.1524 64.6154C22.066 64.512 21.9796 64.4171 21.8846 64.3223Z" fill="#C2E5E8"/>
<path d="M44.0524 72.6742C44.5708 71.1142 44.6485 69.4248 44.398 67.7786C44.2252 66.6754 43.4822 65.9083 42.2986 66.1583C41.7283 66.2789 41.2272 66.5978 40.7607 66.9426C39.4129 67.951 38.2984 69.2525 37.4949 70.7263C37.2876 71.1142 37.0975 71.502 36.9333 71.9071C36.7001 72.4846 36.5186 73.131 36.4668 73.7688C38.0997 73.7516 40.9421 73.5533 44.0524 72.6742Z" fill="#C2E5E8"/>
<path d="M15.7063 52.3507C15.162 51.6871 14.0561 50.4632 12.9848 50.2908C12.3368 50.1874 11.8617 50.5321 11.5074 51.0579C11.4297 52.0835 11.4297 52.6869 11.4297 52.6869C11.4297 54.833 11.637 56.7637 12.0258 58.4961C12.9675 59.651 14.3585 60.306 16.0951 59.8061C20.052 58.6771 17.2614 54.2814 15.7063 52.3507Z" fill="#C2E5E8"/>
<path d="M35.5434 20.9001H34.9991H34.4548C33.1848 20.9001 30.3164 21.2277 30.3164 23.7099C30.3164 24.3219 30.541 24.9166 30.878 25.4251C31.5778 26.4939 33.228 28.6745 34.9905 28.6745C36.7529 28.6745 38.4031 26.4939 39.1029 25.4251C39.4399 24.9166 39.6645 24.3219 39.6645 23.7099C39.6818 21.2277 36.8134 20.9001 35.5434 20.9001Z" fill="#ECB353"/>
<path d="M31.4844 15.7977C31.4412 15.7977 31.398 15.7632 31.398 15.7115C31.277 13.0482 29.0739 10.928 26.3783 10.928C23.6828 10.928 21.4797 13.0482 21.3587 15.7115C21.3587 15.7546 21.3155 15.7977 21.2723 15.7977H20.3824C20.2788 15.7977 20.201 15.8925 20.2096 15.9959L20.3392 16.9354C20.3479 17.0216 20.4256 17.0819 20.512 17.0819H21.4883H31.2857H32.2619C32.3483 17.0819 32.4175 17.0216 32.4347 16.9354L32.5643 15.9959C32.5816 15.8925 32.4952 15.7977 32.3915 15.7977H31.4844Z" fill="#34ADB4"/>
<path d="M29.9282 17.0732H22.835H21.5391C21.5391 19.7365 23.7163 21.9085 26.3859 21.9085C29.0556 21.9085 31.2327 19.7365 31.2327 17.0732H29.9282Z" fill="#FFFCFD"/>
<path d="M26.3782 20.6156C28.3394 20.6156 29.9291 19.0297 29.9291 17.0732H22.8359C22.8359 19.0297 24.417 20.6156 26.3782 20.6156Z" fill="#5D5A3C"/>
<path d="M38.5169 15.7977C38.5601 15.7977 38.6033 15.7632 38.6033 15.7115C38.7242 13.0482 40.9273 10.928 43.6229 10.928C46.3185 10.928 48.5216 13.0482 48.6426 15.7115C48.6426 15.7546 48.6857 15.7977 48.7289 15.7977H49.6188C49.7225 15.7977 49.8003 15.8925 49.7916 15.9959L49.662 16.9354C49.6534 17.0216 49.5756 17.0819 49.4892 17.0819H48.513H38.7242H37.748C37.6616 17.0819 37.5924 17.0216 37.5752 16.9354L37.4456 15.9959C37.4283 15.8925 37.5147 15.7977 37.6184 15.7977H38.5169Z" fill="#34ADB4"/>
<path d="M40.0722 17.0732H47.1653H48.4613C48.4613 19.7365 46.2841 21.9085 43.6144 21.9085C40.9448 21.9085 38.7676 19.7365 38.7676 17.0732H40.0722Z" fill="#FFFCFD"/>
<path d="M43.6232 20.6156C41.662 20.6156 40.0723 19.0297 40.0723 17.0732H47.1654C47.174 19.0297 45.5844 20.6156 43.6232 20.6156Z" fill="#5D5A3C"/>
<path d="M19.3101 22.1326C19.3101 25.0631 16.9255 27.1316 13.988 27.1316C11.0506 27.1316 8.66602 25.0631 8.66602 22.1326C8.66602 19.2022 11.0506 17.6938 13.988 17.6938C16.9255 17.6938 19.3101 19.409 19.3101 22.1326Z" fill="#E1F0EC"/>
<path d="M50.6895 22.1326C50.6895 25.0631 53.074 27.1316 56.0115 27.1316C58.949 27.1316 61.3335 25.0631 61.3335 22.1326C61.3335 19.2022 58.949 17.6938 56.0115 17.6938C53.074 17.6938 50.6895 19.409 50.6895 22.1326Z" fill="#E1F0EC"/>
<path d="M11.9667 28.9587C12.7961 28.3985 13.7119 28.0624 14.7228 28.1227C17.7467 28.2951 18.8266 31.6737 19.4055 34.1301C21.1248 41.4476 21.6086 49.2047 17.7726 55.9706C16.5803 58.065 14.8783 59.7888 12.3469 58.5908C12.2518 58.5477 12.1395 58.5994 12.105 58.6942C11.7507 59.8922 9.74635 66.1065 6.54968 63.8656C6.46329 63.8052 6.33369 63.8311 6.2905 63.9345C5.72892 65.2015 2.53225 72.0191 0.856162 66.8736C-0.0423609 64.1155 -0.042361 60.8145 0.0267562 57.9616C0.216828 49.4374 2.99015 41.146 7.67284 34.0439C8.73551 32.458 10.1524 30.174 11.9667 28.9587Z" fill="#5ABEBE"/>
<path d="M13.5571 55.1518C13.3584 55.1001 13.1597 55.0312 12.9524 54.9277C12.84 54.876 12.7105 54.8416 12.5895 54.8416C12.218 54.8416 11.881 55.0915 11.7774 55.4535C11.6391 55.9275 11.2504 57.1601 10.6283 58.2719C10.2395 58.9787 9.44467 60.1681 8.57206 60.1681C8.30423 60.1681 8.01049 60.056 7.7081 59.8492C7.56122 59.7458 7.39707 59.694 7.21564 59.694C6.87869 59.694 6.57631 59.8923 6.43807 60.2026C6.25664 60.6163 5.75554 61.6936 5.13349 62.659C4.13129 64.2104 3.56971 64.0725 3.50923 64.0725C3.31052 64.0725 3.00813 63.8656 2.72303 62.9779C1.93682 60.5559 1.92818 57.5824 1.98866 54.9795C2.15281 47.412 4.55463 39.9049 8.93493 33.2769C9.00404 33.1735 9.0818 33.0614 9.15092 32.9494C10.0408 31.5962 11.259 29.7431 12.6932 28.7778C13.3325 28.3468 13.9546 28.1314 14.5853 28.1227C13.6349 28.0969 12.7623 28.433 11.9674 28.9588C10.1445 30.174 8.72758 32.4581 7.68218 34.0526C2.99085 41.1546 0.21753 49.4461 0.0360976 57.9703C-0.0243799 60.8231 -0.0243799 64.1242 0.865503 66.8823C2.54159 72.0278 5.72962 65.2188 6.29984 63.9432C6.34304 63.8398 6.47263 63.8139 6.55903 63.8742C9.75569 66.1238 11.7601 59.9095 12.1143 58.7029C12.1402 58.5994 12.2612 58.5477 12.3562 58.5994C14.8876 59.7975 16.5896 58.0737 17.7819 55.9793C18.715 54.333 19.3889 52.6265 19.8554 50.8854C17.9202 56.574 13.5571 55.1518 13.5571 55.1518Z" fill="#34ADB4"/>
<path d="M58.0329 28.9587C57.2035 28.3985 56.2877 28.0624 55.2769 28.1227C52.253 28.2951 51.1731 31.6737 50.5942 34.1301C48.8749 41.4476 48.3911 49.2047 52.2271 55.9706C53.4194 58.065 55.1214 59.7888 57.6528 58.5908C57.7478 58.5477 57.8601 58.5994 57.8947 58.6942C58.2489 59.8922 60.2533 66.1065 63.45 63.8656C63.5364 63.8052 63.666 63.8311 63.7092 63.9345C64.2708 65.2015 67.4674 72.0191 69.1435 66.8736C70.042 64.1155 70.042 60.8145 69.9729 57.9616C69.7828 49.4374 67.0095 41.146 62.3268 34.0439C61.2728 32.458 59.8559 30.174 58.0329 28.9587Z" fill="#5ABEBE"/>
<path d="M56.4428 55.1518C56.6415 55.1001 56.8403 55.0312 57.0476 54.9277C57.1599 54.876 57.2895 54.8416 57.4105 54.8416C57.782 54.8416 58.1189 55.0915 58.2226 55.4535C58.3608 55.9275 58.7496 57.1601 59.3717 58.2719C59.7604 58.9787 60.5553 60.1681 61.4279 60.1681C61.6957 60.1681 61.9895 60.056 62.2919 59.8492C62.4387 59.7458 62.6029 59.694 62.7843 59.694C63.1213 59.694 63.4237 59.8923 63.5619 60.2026C63.7433 60.6163 64.2444 61.6936 64.8665 62.659C65.8687 64.2104 66.4303 64.0725 66.4907 64.0725C66.6894 64.0725 66.9918 63.8656 67.2769 62.9779C68.0631 60.5559 68.0718 57.5824 68.0113 54.9795C67.8472 47.412 65.4453 39.9049 61.065 33.2769C60.9959 33.1735 60.9182 33.0614 60.849 32.9494C59.9592 31.5962 58.741 29.7431 57.3068 28.7778C56.6675 28.3468 56.0454 28.1314 55.4147 28.1227C56.3651 28.0969 57.2377 28.433 58.0325 28.9588C59.8555 30.174 61.2724 32.4581 62.3178 34.0526C67.0091 41.1546 69.7824 49.4461 69.9639 57.9703C70.0243 60.8231 70.0243 64.1242 69.1345 66.8823C67.4584 72.0278 64.2703 65.2188 63.7001 63.9432C63.6569 63.8398 63.5273 63.8139 63.4409 63.8742C60.2443 66.1238 58.2399 59.9095 57.8857 58.7029C57.8597 58.5994 57.7388 58.5477 57.6437 58.5994C55.1123 59.7975 53.4103 58.0737 52.218 55.9793C51.285 54.333 50.6111 52.6265 50.1445 50.8854C52.0798 56.574 56.4428 55.1518 56.4428 55.1518Z" fill="#34ADB4"/>
<path d="M26.3521 75.3978C26.9655 76.6562 28.9613 77.3543 30.2227 76.7855C30.6719 76.5786 31.0521 76.208 31.2422 75.7598C31.4754 75.2082 31.4322 74.579 31.2335 74.0188C30.7843 72.7604 29.7561 71.7261 28.5725 71.1486C27.0347 70.3988 25.4104 70.0799 23.6825 70.4419C22.9049 70.6057 22.1705 70.7522 21.4794 71.1486C20.529 71.7003 19.5614 72.3898 19.3108 73.5275C19.1207 74.398 19.3713 75.3289 19.9415 76.0098C20.7104 76.9234 21.9286 77.0957 23.0518 76.9578C24.0108 76.8458 25.0389 76.5528 25.7473 75.8632C25.8942 75.7167 26.0238 75.5616 26.1275 75.3892C26.1793 75.303 26.3089 75.303 26.3521 75.3978Z" fill="#5B5665"/>
<path d="M43.6479 75.3978C43.0345 76.6562 41.0387 77.3543 39.7773 76.7855C39.3281 76.5786 38.9479 76.208 38.7579 75.7598C38.5246 75.2082 38.5678 74.579 38.7665 74.0188C39.2158 72.7604 40.2439 71.7261 41.4275 71.1486C42.9654 70.3988 44.5896 70.0799 46.3175 70.4419C47.0951 70.6057 47.8295 70.7522 48.5207 71.1486C49.471 71.7003 50.4387 72.3898 50.6892 73.5275C50.8793 74.398 50.6287 75.3289 50.0585 76.0098C49.2896 76.9234 48.0714 77.0957 46.9482 76.9578C45.9892 76.8458 44.9611 76.5528 44.2527 75.8632C44.1058 75.7167 43.9762 75.5616 43.8725 75.3892C43.8207 75.303 43.6911 75.303 43.6479 75.3978Z" fill="#5B5665"/>
</svg>
