<svg width="48" height="48" viewBox="0 0 48 48" fill="none" xmlns="http://www.w3.org/2000/svg">
<g clip-path="url(#clip0_247_6401)">
<path d="M48 24C48 37.2553 37.2553 48 24 48C10.7447 48 0 37.2553 0 24C0 10.7447 10.7447 0 24 0C37.2553 0 48 10.7447 48 24Z" fill="#00429C"/>
<path d="M42.0544 24.8213C42.0544 34.7925 33.9712 42.8756 24 42.8756C14.0287 42.8756 5.94562 34.7925 5.94562 24.8213C5.94562 14.85 14.0287 6.76688 24 6.76688C33.9712 6.76688 42.0544 14.85 42.0544 24.8213Z" fill="#0055CA"/>
<path d="M36.7594 7.91624V4.20374C36.7594 3.81561 37.0744 3.50061 37.4625 3.50061C37.8506 3.50061 38.1656 3.81561 38.1656 4.20374V7.91624C38.1656 8.30436 37.8506 8.61936 37.4625 8.61936C37.0744 8.61936 36.7594 8.30436 36.7594 7.91624ZM34.6556 11.3044C35.0437 11.3044 35.3587 10.9894 35.3587 10.6012V1.51874C35.3587 1.13061 35.0437 0.815613 34.6556 0.815613C34.2675 0.815613 33.9525 1.13061 33.9525 1.51874V10.6012C33.9525 10.9894 34.2675 11.3044 34.6556 11.3044ZM31.8487 10.0472C32.2369 10.0472 32.5519 9.73218 32.5519 9.34405V2.77593C32.5519 2.3878 32.2369 2.0728 31.8487 2.0728C31.4606 2.0728 31.1456 2.3878 31.1456 2.77593V9.34405C31.1456 9.73218 31.4606 10.0472 31.8487 10.0472ZM29.0419 7.2478C29.43 7.2478 29.745 6.9328 29.745 6.54467V5.5753C29.745 5.18718 29.43 4.87218 29.0419 4.87218C28.6537 4.87218 28.3387 5.18718 28.3387 5.5753V6.54467C28.3387 6.9328 28.6537 7.2478 29.0419 7.2478Z" fill="#0396FD"/>
<path d="M19.1091 26.0934L14.3447 26.9634V39.4087C14.3447 41.4244 12.1659 43.0584 9.47906 43.0584C6.79218 43.0584 4.61343 41.4244 4.61343 39.4087C4.61343 37.3931 6.79218 35.7591 9.47906 35.7591C10.2956 35.7591 11.0653 35.91 11.7412 36.1762V18.195C11.7412 17.6447 12.1341 17.1731 12.6759 17.0747L21.1172 15.5334C21.9037 15.39 22.6284 15.9937 22.6284 16.7934V19.0716C22.6284 19.6903 22.1859 20.22 21.5775 20.3316L14.3456 21.6525V24.3609L18.6056 23.5828C19.1409 23.4853 19.6341 23.8959 19.6341 24.4406V25.4653C19.6341 25.7747 19.4137 26.0391 19.1091 26.0944V26.0934Z" fill="#FFB509"/>
<path d="M31.9528 14.9194V36.6094C31.9528 38.7328 29.6578 40.4541 26.8266 40.4541C23.9953 40.4541 21.7003 38.7328 21.7003 36.6094C21.7003 34.4859 23.9953 32.7647 26.8266 32.7647C27.7434 32.7647 28.6041 32.9456 29.3484 33.2616V24.2231L19.0397 26.1056C18.2531 26.2491 17.5284 25.6453 17.5284 24.8456C17.5284 24.2269 17.9709 23.6972 18.5794 23.5856L29.3484 21.6188V18.9103L20.3616 20.5519C18.8869 20.8209 17.5294 19.6884 17.5294 18.1894C17.5294 17.0297 18.3581 16.0359 19.4991 15.8269L30.6094 13.7981C31.3088 13.6706 31.9528 14.2078 31.9528 14.9184V14.9194Z" fill="#FFC143"/>
<path d="M47.8406 13.0762C47.8406 13.5937 47.4206 14.0137 46.9031 14.0137C46.0087 14.0137 45.1772 13.7381 44.49 13.2684V20.9194C44.49 22.4728 42.8109 23.7319 40.74 23.7319C38.6691 23.7319 36.99 22.4728 36.99 20.9194C36.99 19.3659 38.6691 18.1069 40.74 18.1069C41.4234 18.1069 42.0637 18.2437 42.615 18.4828V9.66937C42.615 9.15187 43.035 8.73187 43.5525 8.73187C44.07 8.73187 44.49 9.15187 44.49 9.66937V9.72562C44.49 11.0569 45.5728 12.1387 46.9031 12.1387C47.4206 12.1387 47.8406 12.5587 47.8406 13.0762Z" fill="#00C1FB"/>
<path d="M41.9044 23.5931C41.5378 23.6831 41.1459 23.7525 40.7391 23.7525C38.6681 23.7525 36.8953 22.4728 36.8953 20.9194C36.8953 19.3659 38.6681 18.0956 40.7391 18.0956C41.1459 18.0956 41.5369 18.1547 41.9034 18.2447C40.4025 18.6122 39.3187 19.6706 39.3187 20.9184C39.3187 22.1672 40.4034 23.2247 41.9044 23.5922V23.5931Z" fill="#00AAF2"/>
<path d="M12.7256 9.32625C12.7256 9.84375 12.3056 10.2637 11.7881 10.2637C10.8938 10.2637 10.0622 9.98812 9.375 9.51844V17.1694C9.375 18.7228 7.69594 19.9819 5.625 19.9819C3.55406 19.9819 1.875 18.7228 1.875 17.1694C1.875 15.6159 3.55406 14.3569 5.625 14.3569C6.30844 14.3569 6.94875 14.4937 7.5 14.7328V5.91937C7.5 5.40187 7.92 4.98187 8.4375 4.98187C8.955 4.98187 9.375 5.40187 9.375 5.91937V5.97562C9.375 7.30687 10.4578 8.38968 11.7881 8.38968C12.3056 8.38968 12.7256 8.80968 12.7256 9.32718V9.32625Z" fill="#FF5757"/>
<path d="M6.79031 19.8431C6.42375 19.9331 6.03188 20.0081 5.625 20.0081C3.55406 20.0081 1.78125 18.7219 1.78125 17.1684C1.78125 15.615 3.56531 14.3447 5.63625 14.3447C6.04313 14.3447 6.42375 14.4038 6.79031 14.4938C5.28938 14.8613 4.20563 15.9197 4.20563 17.1675C4.20563 18.4153 5.29031 19.4738 6.79031 19.8413V19.8431Z" fill="#FF4343"/>
<path d="M41.1628 26.9625C41.6803 26.9625 42.1003 27.3825 42.1003 27.9V34.7053C42.1003 35.9869 40.7156 37.0256 39.0066 37.0256C37.2975 37.0256 35.9128 35.9869 35.9128 34.7053C35.9128 33.4237 37.2975 32.385 39.0066 32.385C39.4397 32.385 39.8512 32.4515 40.2253 32.5715V27.9C40.2253 27.3825 40.6453 26.9625 41.1628 26.9625ZM21.5137 2.15155C22.0312 2.15155 22.4512 2.57155 22.4512 3.08905V9.89436C22.4512 11.1759 21.0666 12.2147 19.3575 12.2147C17.6484 12.2147 16.2637 11.1759 16.2637 9.89436C16.2637 8.6128 17.6484 7.57405 19.3575 7.57405C19.7906 7.57405 20.2022 7.64061 20.5762 7.76155V3.08905C20.5762 2.57155 20.9962 2.15155 21.5137 2.15155Z" fill="#FFF5F5"/>
<path d="M39.9525 36.915C39.6544 36.9863 39.3366 37.0341 39.0075 37.0341C37.2984 37.0341 35.82 35.9869 35.82 34.7053C35.82 33.4238 37.2984 32.3569 39.0075 32.3569C39.3375 32.3569 39.6544 32.4244 39.9525 32.4956C38.7066 32.7956 37.8047 33.6713 37.8047 34.7053C37.8047 35.7394 38.7066 36.6159 39.9534 36.915H39.9525ZM20.3025 12.1041C20.0044 12.1753 19.6866 12.2334 19.3566 12.2334C17.6475 12.2334 16.1691 11.1759 16.1691 9.89438C16.1691 8.61282 17.6475 7.55063 19.3566 7.55063C19.6866 7.55063 20.0034 7.61344 20.3016 7.68469C19.0556 7.98469 18.1538 8.86032 18.1538 9.89438C18.1538 10.9284 19.0556 11.805 20.3025 12.1041Z" fill="#FFE7BF"/>
</g>
<defs>
<clipPath id="clip0_247_6401">
<rect width="48" height="48" fill="white"/>
</clipPath>
</defs>
</svg>
