<svg width="7" height="10" viewBox="0 0 7 10" fill="none" xmlns="http://www.w3.org/2000/svg">
<path d="M3.248 10V8.488H1.596V7.83H3.248V6.598C2.772 6.53267 2.34267 6.36467 1.96 6.094C1.57733 5.82333 1.274 5.478 1.05 5.058C0.826 4.638 0.714 4.18533 0.714 3.7C0.714 3.17733 0.844667 2.70133 1.106 2.272C1.37667 1.83333 1.73133 1.48333 2.17 1.222C2.618 0.960666 3.10333 0.83 3.626 0.83C4.158 0.83 4.64333 0.960666 5.082 1.222C5.53 1.48333 5.88467 1.83333 6.146 2.272C6.40733 2.70133 6.538 3.17733 6.538 3.7C6.538 4.176 6.426 4.624 6.202 5.044C5.978 5.464 5.67467 5.814 5.292 6.094C4.91867 6.36467 4.48933 6.53267 4.004 6.598V7.83H5.558V8.488H4.004V10H3.248ZM3.626 5.912C4.02733 5.912 4.396 5.814 4.732 5.618C5.068 5.41267 5.334 5.142 5.53 4.806C5.73533 4.47 5.838 4.10133 5.838 3.7C5.838 3.308 5.73533 2.94867 5.53 2.622C5.334 2.29533 5.068 2.034 4.732 1.838C4.396 1.63267 4.02733 1.53 3.626 1.53C3.22467 1.53 2.856 1.63267 2.52 1.838C2.184 2.034 1.91333 2.29533 1.708 2.622C1.512 2.94867 1.414 3.308 1.414 3.7C1.414 4.10133 1.512 4.47 1.708 4.806C1.91333 5.142 2.184 5.41267 2.52 5.618C2.856 5.814 3.22467 5.912 3.626 5.912Z" fill="#D85988"/>
</svg>
