<svg width="8" height="8" viewBox="0 0 8 8" fill="none" xmlns="http://www.w3.org/2000/svg">
<path d="M3.626 8C3.10333 8 2.618 7.86933 2.17 7.608C1.73133 7.34667 1.37667 6.99667 1.106 6.558C0.844667 6.11 0.714 5.62 0.714 5.088C0.714 4.56533 0.844667 4.08933 1.106 3.66C1.37667 3.22133 1.73133 2.87133 2.17 2.61C2.618 2.34867 3.10333 2.218 3.626 2.218C3.94333 2.218 4.24667 2.26933 4.536 2.372C4.82533 2.46533 5.10067 2.60533 5.362 2.792L6.664 1.336L5.558 0.789999L7.91 0.523999L7.924 2.89L7.238 1.84L5.908 3.324C6.12267 3.58533 6.28133 3.86533 6.384 4.164C6.48667 4.45333 6.538 4.76133 6.538 5.088C6.538 5.62 6.40733 6.11 6.146 6.558C5.88467 6.99667 5.53 7.34667 5.082 7.608C4.64333 7.86933 4.158 8 3.626 8ZM3.626 7.3C4.02733 7.3 4.396 7.202 4.732 7.006C5.068 6.80067 5.334 6.53 5.53 6.194C5.73533 5.858 5.838 5.48933 5.838 5.088C5.838 4.696 5.73533 4.33667 5.53 4.01C5.334 3.674 5.068 3.408 4.732 3.212C4.396 3.016 4.02733 2.918 3.626 2.918C3.22467 2.918 2.856 3.016 2.52 3.212C2.184 3.408 1.91333 3.674 1.708 4.01C1.512 4.33667 1.414 4.696 1.414 5.088C1.414 5.48933 1.512 5.858 1.708 6.194C1.91333 6.53 2.184 6.80067 2.52 7.006C2.856 7.202 3.22467 7.3 3.626 7.3Z" fill="#3563E9"/>
</svg>
