<svg width="48" height="48" viewBox="0 0 48 48" fill="none" xmlns="http://www.w3.org/2000/svg">
<path d="M42.7156 38.3489C45.3934 34.5925 46.9688 29.9959 46.9688 25.0313C46.9688 12.3459 36.6853 2.0625 24 2.0625C11.3147 2.0625 1.03125 12.3459 1.03125 25.0313C1.03125 29.9959 2.60663 34.5925 5.28441 38.3489H42.7156Z" fill="#BBEA49"/>
<path d="M24 42.375C34.3553 42.375 42.75 33.9803 42.75 23.625C42.75 13.2697 34.3553 4.875 24 4.875C13.6447 4.875 5.25 13.2697 5.25 23.625C5.25 33.9803 13.6447 42.375 24 42.375Z" fill="#9FD332"/>
<path d="M13.2123 8.067L16.1177 15.0812L19.5822 13.6462L16.6769 6.63188C16.2934 5.706 16.9739 4.6875 17.9761 4.6875H30.0239C31.0261 4.6875 31.7066 5.706 31.3231 6.63188L28.4177 13.6461L31.8822 15.0811L34.7876 8.06691C36.194 4.67194 33.6987 0.9375 30.0239 0.9375H17.9761C14.3013 0.9375 11.806 4.67194 13.2123 8.067Z" fill="#BEC8F7"/>
<path d="M17.6549 17.5712C19.726 17.5712 21.4049 15.8922 21.4049 13.8212C21.4049 11.7501 19.726 10.0712 17.6549 10.0712C15.5838 10.0712 13.9049 11.7501 13.9049 13.8212C13.9049 15.8922 15.5838 17.5712 17.6549 17.5712Z" fill="#D3DCFB"/>
<path d="M30.3451 17.5712C32.4162 17.5712 34.0951 15.8922 34.0951 13.8212C34.0951 11.7501 32.4162 10.0712 30.3451 10.0712C28.274 10.0712 26.5951 11.7501 26.5951 13.8212C26.5951 15.8922 28.274 17.5712 30.3451 17.5712Z" fill="#E9EFFF"/>
<path d="M20.25 5.625H27.75C29.3033 5.625 30.5625 4.36584 30.5625 2.8125C30.5625 1.25916 29.3033 0 27.75 0H20.25C18.6967 0 17.4375 1.25916 17.4375 2.8125C17.4375 4.36584 18.6967 5.625 20.25 5.625Z" fill="#E9EFFF"/>
<path d="M24 2.8125C24 1.25916 25.2592 0 26.8125 0H20.25C18.6967 0 17.4375 1.25916 17.4375 2.8125C17.4375 4.36584 18.6967 5.625 20.25 5.625H26.8125C25.2592 5.625 24 4.36584 24 2.8125Z" fill="#D3DCFB"/>
<path d="M24 12.5395C13.1269 12.5395 4.3125 21.3539 4.3125 32.227C4.3125 34.3645 4.6545 36.4219 5.28441 38.3489C9.44869 44.1906 16.2794 48 24 48C31.7206 48 38.5513 44.1906 42.7156 38.3489C43.3455 36.4219 43.6875 34.3645 43.6875 32.227C43.6875 21.354 34.8731 12.5395 24 12.5395Z" fill="#3C58A0"/>
<path d="M24 20.977C21.67 20.977 19.7812 19.0883 19.7812 16.7583C19.7812 14.4283 21.67 12.5395 24 12.5395C13.1269 12.5395 4.3125 21.3539 4.3125 32.227C4.3125 34.3645 4.6545 36.4219 5.28441 38.3489C8.67169 43.1006 13.8236 46.5065 19.7833 47.6123C19.8279 45.3211 21.698 43.477 23.9999 43.477V20.977H24Z" fill="#2A428C"/>
<path d="M24 43.477C30.2132 43.477 35.25 38.4402 35.25 32.227C35.25 26.0138 30.2132 20.977 24 20.977C17.7868 20.977 12.75 26.0138 12.75 32.227C12.75 38.4402 17.7868 43.477 24 43.477Z" fill="#4F71B6"/>
<path d="M22.5938 42.0708C22.5938 41.2954 23.2246 40.6645 24 40.6645V23.7895C23.2246 23.7895 22.5938 23.1587 22.5938 22.3833C22.5938 21.6079 23.2246 20.977 24 20.977C17.7968 20.977 12.75 26.0238 12.75 32.227C12.75 38.4303 17.7968 43.477 24 43.477C23.2246 43.477 22.5938 42.8462 22.5938 42.0708Z" fill="#3C58A0"/>
<path d="M24 40.6645C28.6599 40.6645 32.4375 36.8869 32.4375 32.227C32.4375 27.5671 28.6599 23.7895 24 23.7895C19.3401 23.7895 15.5625 27.5671 15.5625 32.227C15.5625 36.8869 19.3401 40.6645 24 40.6645Z" fill="#4FABF7"/>
<path d="M19.3125 32.227C19.3125 25.7813 24 23.7895 24 23.7895C19.3476 23.7895 15.5625 27.5746 15.5625 32.227C15.5625 36.8795 19.3476 40.6645 24 40.6645C24 40.6645 19.3125 38.6729 19.3125 32.227Z" fill="#1E9EF4"/>
<path d="M19.064 35.7427C18.6757 35.7427 18.3608 35.4278 18.3608 35.0395V29.4145C18.3608 29.0262 18.6757 28.7114 19.064 28.7114C19.4523 28.7114 19.7671 29.0262 19.7671 29.4145V35.0395C19.7671 35.4278 19.4523 35.7427 19.064 35.7427Z" fill="#73C3F9"/>
<path d="M22.2893 35.7427C22.1136 35.7427 21.9377 35.6772 21.8012 35.5455L18.7557 32.6073C18.6162 32.4728 18.5385 32.2866 18.5408 32.0928C18.5432 31.899 18.6254 31.7148 18.7681 31.5836L21.6139 28.9678C21.8998 28.705 22.3447 28.7238 22.6073 29.0096C22.8701 29.2956 22.8515 29.7403 22.5655 30.0031L20.2694 32.1137L22.7776 34.5335C23.0571 34.8031 23.065 35.2482 22.7954 35.5277C22.6575 35.6708 22.4736 35.7427 22.2893 35.7427Z" fill="#73C3F9"/>
<path d="M26.5667 35.7427C24.6484 35.7427 23.0456 34.2097 22.994 32.3254C22.9677 31.3672 23.3208 30.4616 23.9883 29.7756C24.656 29.0893 25.5509 28.7114 26.5082 28.7114C27.2126 28.7114 27.8926 28.9192 28.4743 29.3123C28.7962 29.5297 28.8807 29.9667 28.6634 30.2886C28.4461 30.6103 28.009 30.695 27.6872 30.4776C27.3387 30.2422 26.9311 30.1178 26.5083 30.1178C25.9339 30.1178 25.397 30.3445 24.9963 30.7564C24.5959 31.1679 24.384 31.7115 24.3997 32.2869C24.4308 33.4171 25.4029 34.3365 26.5668 34.3365C27.3971 34.3365 28.0876 33.726 28.2128 32.9303H27.2536C26.8652 32.9303 26.5505 32.6154 26.5505 32.2271C26.5505 31.8388 26.8652 31.524 27.2536 31.524H28.9362C29.3246 31.524 29.6393 31.8388 29.6393 32.2271V32.6703C29.6392 34.3643 28.2608 35.7427 26.5667 35.7427Z" fill="#73C3F9"/>
</svg>
