<svg width="90" height="90" viewBox="0 0 90 90" fill="none" xmlns="http://www.w3.org/2000/svg">
<path fill-rule="evenodd" clip-rule="evenodd" d="M74.593 27.3C74.993 32.5 73.193 37.2 69.293 41.3C69.1563 41.505 68.9729 41.6633 68.8067 41.8068C68.7296 41.8733 68.6563 41.9367 68.593 42C72.093 46.8 72.293 52.2 69.193 58.1C66.193 63.9 61.593 66.9 55.793 66.9H55.693V67C55.593 67.6 55.493 68.2 55.293 68.8C53.893 74.6 50.493 78.7 45.493 80.9C43.993 81.6 42.493 81.9 41.093 81.9C37.693 81.9 34.793 80.2 32.693 77C32.543 77.1 32.418 77.2 32.293 77.3C32.168 77.4 32.043 77.5 31.893 77.6C31.5579 77.8437 31.2228 78.106 30.882 78.3727C30.1042 78.9814 29.2969 79.6132 28.393 80.1C26.493 81.2 24.593 81.8 22.693 81.8C20.993 81.8 19.293 81.4 17.693 80.4C14.893 78.8 13.293 76.1 12.793 72.4C12.693 71.5 12.593 70.6 12.593 69.9C12.593 69.8387 12.5906 69.7541 12.5877 69.6495C12.5717 69.0713 12.5389 67.8856 12.793 66.7H12.093C11.293 66.7 10.493 66.5 9.69304 66.3L9.69296 66.3C5.99296 65.5 3.39296 62.7 2.49296 59C1.29296 54 2.29296 49.3 5.39296 45.1C5.59296 44.7 6.69296 43 8.19296 41.8L7.89296 41.5L7.59296 41.2C6.79296 40.4 6.19296 39.3 5.89296 37.9C5.39296 36.4 5.19296 34.7 5.39296 33C5.99296 26.2 9.19296 21.4 14.793 18.5C15.093 18.3 17.293 17 19.493 17H19.793C20.293 17 20.693 16.6 20.793 16.1C20.993 14.7 21.493 13 22.693 11C24.493 7.2 27.493 4.4 31.593 2.8C32.793 2.3 34.093 2 35.393 2C37.793 2 39.993 2.9 41.793 4.5L42.093 4.8C42.493 5.2 42.893 5.6 43.193 6C43.3305 6.18345 43.4681 6.34586 43.5961 6.49689C43.7471 6.67517 43.8847 6.83759 43.993 7H44.193C44.243 6.9 44.318 6.825 44.393 6.75C44.468 6.675 44.543 6.6 44.593 6.5C45.393 5.7 46.293 5 47.193 4.4L48.193 3.7V3.8C48.993 3.3 49.893 3 50.793 2.7C51.893 2.4 52.993 2.2 53.993 2.2C58.593 2.2 62.193 5.1 63.493 9.8C63.993 12 64.093 14.3 63.593 17.2V17.4H63.893H64.493C67.493 17.4 69.993 18.4 71.793 20.4C73.393 22.2 74.393 24.6 74.593 27.3ZM65.893 56.4C67.493 53.2 67.693 50.2 65.693 47.1C64.293 45 64.193 42.4 65.393 40.3C65.8239 39.5613 66.4063 38.9742 67.0004 38.3754C67.3714 38.0014 67.747 37.6229 68.093 37.2C69.893 35 70.893 32.3 70.593 29.4C70.493 27.8 69.893 26.1 68.293 25.6C67.6049 25.3354 66.8608 25.3228 66.1199 25.3104C65.4611 25.2993 64.8049 25.2883 64.193 25.1C62.993 24.8 61.993 24.1 61.193 23.2C59.593 21.3 59.493 19.1 59.793 16.8C59.993 14.9 60.093 12 58.093 10.9C56.493 10 54.393 10.8 53.093 11.8C52.669 12.118 52.2539 12.463 51.8374 12.8092C50.2893 14.096 48.7206 15.4 46.593 15.4H46.493C43.793 15.3 42.193 13.7 40.593 11.7C40.093 11.1 39.493 10.5 38.693 10.3C36.593 9.8 34.093 11.7 32.793 13.1C31.293 14.7 30.093 16.6 29.893 18.8C29.593 20.8 29.093 22.6 27.393 23.9C26.0163 25.0337 24.7052 25.1182 23.1941 25.2155C22.8392 25.2384 22.4733 25.262 22.093 25.3C20.593 25.5 19.293 26.2 18.193 27.2C15.993 29.2 14.693 32.3 14.393 35.2C14.193 36.9 14.693 38 15.793 39.3C16.693 40.4 17.193 41.8 17.193 43.2C17.2622 45.6247 15.9877 47.0416 14.6328 48.5477C14.0319 49.2157 13.4152 49.9012 12.893 50.7C11.293 53.1 10.593 56.1 11.293 59C11.793 61 13.393 61.6 15.293 61.6C17.193 61.6 18.993 62.4 20.193 63.8C21.8441 65.6493 21.794 67.7603 21.7426 69.9314C21.7161 71.0475 21.6892 72.1795 21.893 73.3C21.993 73.9 22.193 74.5 22.493 75.1C23.393 76.6 25.193 76.8 26.693 76.3C27.928 75.8589 28.9296 75.0287 29.9036 74.2213C30.0337 74.1135 30.1633 74.006 30.293 73.9C32.093 72.4 34.593 71.5 36.993 72.1C38.093 72.4 39.193 73.1 39.993 74C40.2047 74.2382 40.3954 74.4904 40.5855 74.7418C41.1137 75.4402 41.637 76.1323 42.593 76.5C42.893 76.6 43.193 76.7 43.493 76.7C47.193 77.1 50.293 72.3 51.193 69.4C51.4062 68.8028 51.5467 68.1875 51.6843 67.585C51.8692 66.775 52.0489 65.9882 52.393 65.3C53.593 63 55.993 61.9 58.493 61.8C61.793 61.6 64.393 59.2 65.893 56.4ZM76.493 25.3C80.793 32.2 83.793 39.8 85.593 47.8C87.993 58.2 88.293 69.1 86.893 79.6V79.6001C86.893 79.9001 86.893 80.3 86.793 80.6C86.393 82.9 85.793 85.5 83.793 86.9C82.793 87.6 81.893 88.2 80.693 88.4C79.493 88.5 78.293 88.4 77.193 87.9C75.193 87.1 73.593 85.5 71.993 83.9C71.8763 83.7906 71.7596 83.6807 71.6427 83.5705C70.1569 82.1709 68.6398 80.7417 66.693 80C67.893 81.7 67.493 84.2 65.893 85.4C64.293 86.6 61.693 86.3 60.493 84.7C58.593 82.3 60.293 79 63.093 78.4C64.4011 78.1384 65.7853 78.3331 67.1129 78.5198C67.3076 78.5472 67.5011 78.5744 67.693 78.6C69.093 78.8 70.493 79.2 71.893 79.6C74.693 80.5 77.293 81.6 79.793 83.1C80.193 83.3 80.693 83.5 80.893 83.1V82.8C80.693 77.9 76.593 73.9 72.093 72C68.7529 70.5898 65.1373 70.1161 61.4917 69.6384C60.2257 69.4726 58.956 69.3062 57.693 69.1C63.393 68.2 68.593 64.4 71.293 59.2C73.993 54 74.093 47.5 71.493 42.3C75.693 37.8 77.593 31.3 76.493 25.3ZM61.693 81.8C61.693 83 62.393 83.7 63.593 83.7C64.793 83.7 65.793 82.8 65.793 81.5C65.793 80.3 65.093 79.9 63.893 79.9C62.693 79.9 61.693 80.6 61.693 81.8ZM74.393 42.6C85.693 47.8 85.493 79.7 85.493 79.4C86.793 68.8 85.893 58 83.593 48.2C82.493 43.1 80.793 38.2 78.693 33.6C77.993 36.9 76.493 40 74.393 42.6Z" fill="#07BAFE"/>
</svg>
