<svg width="330" height="359" viewBox="0 0 330 359" fill="none" xmlns="http://www.w3.org/2000/svg">
<mask id="mask0_1092_17416" style="mask-type:alpha" maskUnits="userSpaceOnUse" x="0" y="0" width="330" height="359">
<path d="M330 0H0V358.059H197.331L330 146.993V0Z" fill="#D9D9D9"/>
</mask>
<g mask="url(#mask0_1092_17416)">
<path d="M297.824 139.929C269.71 38.2465 224.451 25.8985 208.503 24.796C202.862 23.8825 196.936 24.796 196.936 24.796C180.989 25.867 135.729 38.2465 107.616 139.929C107.616 139.929 72.7259 265.015 144.397 288.577C144.397 288.577 165.167 294.247 202.736 294.247C240.305 294.247 261.075 288.577 261.075 288.577C332.745 265.015 297.824 139.929 297.824 139.929Z" fill="#577EBF"/>
<path d="M288.716 217.041C288.716 217.041 288.401 115.233 202.705 115.233C117.009 115.233 116.693 217.041 116.693 217.041C116.693 288.735 180.958 294.027 198.387 294.121L202.705 294.216L206.991 294.121C224.42 294.027 288.716 288.798 288.716 217.041Z" fill="#F3F5FB"/>
<path d="M282.348 251.438C281.056 249.328 279.134 247.532 276.549 246.272C271.979 244.036 266.369 244.571 262.051 247.123C251.587 253.328 255.369 265.771 259.971 274.622C260.538 275.693 261.169 276.701 261.862 277.552C270.12 271.378 277.463 262.936 282.348 251.438Z" fill="#C0C9E6"/>
<path d="M138.598 157.128C139.039 159.9 140.584 162.861 141.907 164.814C143.704 167.428 145.752 169.98 148.463 171.649C154.609 175.398 163.938 172.09 162.362 163.869C161.448 159.112 158.328 154.86 154.168 152.34C150.827 150.324 145.658 148.906 141.876 150.513C138.85 151.804 138.188 154.387 138.598 157.128Z" fill="#C0C9E6"/>
<path d="M183.1 146.701C187.481 146.008 192.272 147.804 193.879 152.214C194.888 155.017 194.478 158.199 193.154 160.876C191.673 163.9 189.12 166.483 186.315 168.279C180.705 171.87 173.078 171.397 171.376 163.9C169.611 156.088 175.347 147.961 183.1 146.701Z" fill="#C0C9E6"/>
<path d="M213.453 134.92C207.37 136.401 204.754 145.473 205.731 150.859C207.275 159.175 217.991 165.349 224.957 158.734C229.337 154.608 227.383 148.119 224.957 143.488C222.908 139.582 218.685 133.66 213.453 134.92Z" fill="#C0C9E6"/>
<path d="M241.692 157.694C241.125 158.828 240.873 160.12 241.125 161.537C241.882 165.79 246.861 170.515 250.139 173.098C254.142 176.279 259.185 177.98 263.849 175.051C266.497 173.381 268.293 170.263 268.01 167.144C267.631 162.829 263.66 157.852 260.634 154.954C258.932 153.347 256.821 152.056 254.52 151.741C250.36 151.174 243.773 153.505 241.692 157.694Z" fill="#C0C9E6"/>
<path d="M233.844 177.287C228.676 175.114 222.498 176.153 218.306 180.091C214.24 183.871 212.633 191.116 216.415 195.652C218.023 197.573 220.386 198.739 222.782 199.463C227.604 200.975 234.002 201.668 238.635 199.306C240.022 198.613 241.283 197.605 242.102 196.313C243.457 194.171 243.552 191.399 242.921 188.942C241.818 184.753 239.801 180.878 236.082 178.453C235.389 178.012 234.632 177.602 233.844 177.287Z" fill="#C0C9E6"/>
<path d="M185.905 183.808C189.562 182.832 193.249 183.524 196.18 186.863C198.008 188.974 198.702 191.872 198.607 194.644C198.26 204.661 188.08 212.221 178.341 209.921C175.599 209.26 172.857 207.716 171.723 205.133C170.809 203.086 171.029 200.692 171.597 198.55C173.393 191.903 179.129 185.604 185.905 183.808Z" fill="#C0C9E6"/>
<path d="M136.548 188.848C136.99 188.281 137.525 187.808 138.124 187.399C143.671 183.65 151.929 186.611 156.53 190.549C164.473 197.353 164.032 210.961 152.244 213.197C150.7 213.481 149.061 213.481 147.611 212.882C145.342 211.937 143.892 209.764 142.883 207.527C141.906 205.291 141.244 202.897 139.952 200.85C138.219 198.078 135.225 195.715 135.225 192.439C135.225 191.116 135.76 189.888 136.548 188.848Z" fill="#C0C9E6"/>
<path d="M170.934 224.16C171.596 224.191 172.258 224.254 172.951 224.411C180.421 225.955 186.315 235.468 181.335 242.335C179.507 244.855 176.418 246.304 173.298 246.714C168.381 247.375 161.29 246.588 158.989 241.422C156.909 236.759 159.998 230.491 163.37 227.152C165.45 225.073 168.129 224.065 170.934 224.16Z" fill="#C0C9E6"/>
<path d="M218.337 250.935C218.463 250.872 218.589 250.84 218.715 250.777C221.835 249.297 224.105 246.336 225.334 243.091C229.463 232.318 224.514 219.12 213.704 214.395C210.332 212.914 205.762 213.166 203.555 216.474C202.452 218.143 202.011 220.159 201.727 222.144C200.687 229.924 202.106 238.02 205.698 244.981C208.283 249.864 212.758 253.329 218.337 250.935Z" fill="#C0C9E6"/>
<path d="M263.156 204.692C259.909 204.881 256.569 205.921 253.606 207.086C249.824 208.567 246.294 211.024 244.308 214.552C242.291 218.08 242.102 222.773 244.434 226.081C247.366 230.207 253.102 231.121 258.145 230.837C263.629 230.554 269.396 229.136 273.273 225.23C278.473 219.97 277.717 211.717 272.012 207.212C269.365 205.133 266.308 204.503 263.156 204.692Z" fill="#C0C9E6"/>
<path d="M196.716 276.292C196.937 277.111 197 277.962 196.748 278.781C196.181 280.765 194.1 281.868 192.115 282.435C186.253 284.073 176.545 283.065 173.677 276.765C172.637 274.497 172.763 271.756 174.024 269.614C176.23 265.771 181.115 264.921 185.149 265.708C190.318 266.716 194.447 270.244 196.338 275.158C196.496 275.505 196.622 275.883 196.716 276.292Z" fill="#C0C9E6"/>
<path d="M232.015 135.014C235.356 136.999 241.438 137.125 244.496 134.51C246.324 132.967 247.364 130.195 247.458 127.58C242.605 124.367 237.184 121.658 231.132 119.579C228.926 121.312 227.539 124.021 227.476 126.824C227.413 130.1 229.21 133.345 232.015 135.014Z" fill="#C0C9E6"/>
<path d="M168.193 137.22C173.772 141 184.267 137.282 185.339 130.352C185.906 126.573 183.637 123.706 180.958 121.375C180.769 121.186 180.548 121.029 180.359 120.84C179.445 120.052 178.436 119.296 177.396 118.603C171.692 120.273 166.554 122.509 161.858 125.186C160.724 129.974 164.159 134.479 168.193 137.22Z" fill="#C0C9E6"/>
<path d="M154.86 259.502C154.041 258.746 153.095 258.148 152.118 257.644C144.995 253.927 135.855 254.557 129.173 258.967C128.606 259.345 128.102 259.754 127.629 260.258C131.506 266.495 136.17 271.598 141.276 275.756C143.829 275.252 146.382 274.559 148.84 273.646C150.952 272.858 153.095 271.882 154.639 270.212C156.94 267.755 157.98 263.44 155.837 260.573C155.522 260.164 155.207 259.817 154.86 259.502Z" fill="#C0C9E6"/>
<path d="M235.735 290.026C237.626 284.325 237.91 278.15 236.996 272.134C236.365 268.102 233.655 265.299 229.337 266.212C227.257 266.653 225.429 267.818 223.727 269.078C218.81 272.764 214.744 277.521 211.813 282.907C211.057 284.325 210.363 285.742 209.764 287.222C208.913 289.333 208.252 291.695 208.062 294.026C214.019 293.963 224.389 293.239 235.735 290.026Z" fill="#C0C9E6"/>
<path d="M132.326 215.749C130.34 213.323 126.306 208.85 122.398 208.22C120.034 207.842 118.3 209.102 117.008 211.024C116.725 214.772 116.725 216.977 116.725 216.977C116.725 224.821 117.481 231.877 118.899 238.208C122.335 242.429 127.409 244.823 133.744 242.996C148.179 238.838 137.999 222.773 132.326 215.749Z" fill="#C0C9E6"/>
<path d="M189.877 82.1575C189.719 82.1575 189.562 82.0315 189.562 81.8425C189.12 72.109 181.084 64.36 171.25 64.36C161.417 64.36 153.38 72.109 152.938 81.8425C152.938 82 152.781 82.1575 152.623 82.1575H149.377C148.999 82.1575 148.715 82.504 148.747 82.882L149.219 86.3155C149.251 86.6305 149.534 86.851 149.85 86.851H153.411H189.152H192.713C193.029 86.851 193.281 86.6305 193.344 86.3155L193.817 82.882C193.88 82.504 193.564 82.1575 193.186 82.1575H189.877Z" fill="#4F5FAA"/>
<path d="M184.203 86.8196H158.327H153.6C153.6 96.5531 161.542 104.491 171.281 104.491C181.02 104.491 188.962 96.5531 188.962 86.8196H184.203Z" fill="#FFFDFE"/>
<path d="M171.248 99.7661C178.403 99.7661 184.202 93.9701 184.202 86.8196H158.326C158.326 93.9701 164.094 99.7661 171.248 99.7661Z" fill="#5D593C"/>
<path d="M215.531 82.1575C215.689 82.1575 215.847 82.0315 215.847 81.8425C216.288 72.109 224.325 64.36 234.158 64.36C243.992 64.36 252.029 72.109 252.47 81.8425C252.47 82 252.628 82.1575 252.785 82.1575H256.031C256.41 82.1575 256.693 82.504 256.662 82.882L256.189 86.3155C256.158 86.6305 255.874 86.851 255.559 86.851H251.997H216.288H212.726C212.411 86.851 212.159 86.6305 212.096 86.3155L211.623 82.882C211.56 82.504 211.875 82.1575 212.254 82.1575H215.531Z" fill="#4F5FAA"/>
<path d="M221.204 86.8196H247.08H251.808C251.808 96.5531 243.866 104.491 234.127 104.491C224.388 104.491 216.445 96.5531 216.445 86.8196H221.204Z" fill="#FFFDFE"/>
<path d="M234.159 99.7661C227.004 99.7661 221.205 93.9701 221.205 86.8196H247.081C247.112 93.9701 241.313 99.7661 234.159 99.7661Z" fill="#5D593C"/>
<path d="M145.468 105.279C145.468 95.3875 136.801 89.0875 126.116 89.056C121.861 97.9705 117.701 108.114 113.793 119.643C117.134 122.131 121.389 123.549 126.053 123.549C136.769 123.549 145.468 115.989 145.468 105.279Z" fill="white"/>
<path d="M259.939 105.279C259.939 115.989 268.638 123.549 279.354 123.549C283.987 123.549 288.274 122.131 291.615 119.643C287.706 108.114 283.578 97.9705 279.291 89.056C268.607 89.0875 259.939 95.3875 259.939 105.279Z" fill="white"/>
<path d="M286.194 130.226C283.169 128.179 279.828 126.95 276.14 127.171C265.109 127.801 261.169 140.149 259.058 149.126C252.786 175.87 251.021 204.22 265.014 228.947C269.364 236.602 275.573 242.902 284.807 238.523C285.154 238.366 285.564 238.555 285.69 238.901C286.982 243.28 294.294 265.991 305.956 257.801C306.271 257.581 306.744 257.675 306.901 258.053C308.95 262.684 320.611 287.6 326.726 268.795C330.004 258.715 330.004 246.65 329.751 236.224C329.058 205.07 318.941 174.767 301.858 148.811C298.013 143.047 292.844 134.699 286.194 130.226Z" fill="#546AB2"/>
<path d="M280.394 225.955C281.119 225.766 281.844 225.514 282.6 225.136C283.01 224.947 283.483 224.821 283.924 224.821C285.279 224.821 286.509 225.734 286.887 227.057C287.391 228.79 288.809 233.295 291.079 237.358C292.497 239.941 295.397 244.288 298.58 244.288C299.557 244.288 300.628 243.878 301.732 243.122C302.267 242.744 302.866 242.556 303.528 242.556C304.757 242.556 305.86 243.28 306.365 244.414C307.027 245.926 308.855 249.863 311.124 253.391C314.78 259.061 316.828 258.557 317.049 258.557C317.774 258.557 318.877 257.801 319.917 254.557C322.785 245.705 322.817 234.838 322.596 225.325C321.997 197.668 313.235 170.231 297.256 146.008C297.004 145.63 296.72 145.22 296.468 144.811C293.222 139.865 288.778 133.093 283.546 129.565C281.214 127.99 278.944 127.202 276.644 127.171C280.111 127.076 283.294 128.305 286.193 130.226C292.844 134.668 298.013 143.016 301.826 148.843C318.94 174.799 329.057 205.102 329.719 236.256C329.94 246.682 329.94 258.746 326.693 268.826C320.579 287.632 308.949 262.747 306.869 258.085C306.711 257.707 306.239 257.613 305.923 257.833C294.262 266.055 286.95 243.343 285.658 238.933C285.563 238.555 285.122 238.366 284.775 238.555C275.541 242.933 269.332 236.633 264.982 228.979C261.578 222.962 259.12 216.725 257.418 210.362C264.509 231.184 280.394 225.955 280.394 225.955Z" fill="#4F5FAA"/>
<path d="M171.154 299.949C173.392 304.548 180.672 307.099 185.274 305.02C186.913 304.264 188.3 302.909 188.993 301.271C189.844 299.255 189.686 296.956 188.961 294.909C187.322 290.31 183.572 286.529 179.254 284.419C173.644 281.678 167.719 280.513 161.415 281.836C158.579 282.434 155.9 282.97 153.378 284.419C149.911 286.435 146.381 288.955 145.467 293.113C144.774 296.295 145.688 299.696 147.768 302.185C150.573 305.524 155.017 306.154 159.114 305.65C162.613 305.24 166.363 304.17 168.948 301.65C169.484 301.114 169.956 300.547 170.335 299.917C170.524 299.602 170.996 299.634 171.154 299.949Z" fill="#666664"/>
<path d="M234.252 299.949C232.014 304.548 224.734 307.099 220.132 305.02C218.493 304.264 217.107 302.909 216.413 301.271C215.562 299.255 215.72 296.956 216.445 294.909C218.084 290.31 221.834 286.529 226.152 284.419C231.762 281.678 237.688 280.513 243.991 281.836C246.828 282.434 249.507 282.97 252.028 284.419C255.495 286.435 259.025 288.955 259.939 293.113C260.632 296.295 259.718 299.696 257.638 302.185C254.833 305.524 250.389 306.154 246.292 305.65C242.793 305.24 239.043 304.17 236.458 301.65C235.923 301.114 235.45 300.547 235.072 299.917C234.883 299.602 234.41 299.634 234.252 299.949Z" fill="#666664"/>
<path d="M118.678 130.226C121.704 128.179 125.045 126.95 128.732 127.171C139.763 127.801 143.703 140.149 145.815 149.126C152.087 175.87 153.852 204.22 139.858 228.947C135.509 236.602 129.3 242.902 120.065 238.523C119.718 238.366 119.309 238.555 119.183 238.901C117.89 243.28 110.578 265.991 98.9168 257.801C98.6016 257.581 98.1288 257.675 97.9712 258.053C95.9226 262.684 84.2611 287.6 78.1467 268.795C74.8689 258.715 74.8689 246.65 75.121 236.224C75.8144 205.07 85.9315 174.767 103.014 148.811C106.891 143.047 112.06 134.699 118.678 130.226Z" fill="#546AB2"/>
<path d="M124.477 225.955C123.752 225.766 123.027 225.514 122.271 225.136C121.861 224.947 121.388 224.821 120.947 224.821C119.592 224.821 118.363 225.734 117.984 227.057C117.48 228.79 116.062 233.294 113.793 237.358C112.374 239.941 109.475 244.288 106.291 244.288C105.314 244.288 104.243 243.878 103.14 243.122C102.604 242.744 102.005 242.555 101.343 242.555C100.114 242.555 99.0109 243.28 98.5066 244.414C97.8447 245.926 96.0167 249.863 93.7474 253.391C90.0914 259.061 88.0428 258.557 87.8222 258.557C87.0973 258.557 85.9941 257.801 84.9541 254.557C82.086 245.705 82.0545 234.838 82.2751 225.325C82.8739 197.668 91.6358 170.231 107.615 146.008C107.867 145.63 108.151 145.22 108.403 144.811C111.649 139.865 116.093 133.093 121.325 129.565C123.658 127.99 125.927 127.202 128.228 127.171C124.761 127.076 121.577 128.305 118.678 130.226C112.028 134.668 106.859 143.015 103.045 148.843C85.9311 174.799 75.814 205.102 75.1521 236.255C74.9315 246.682 74.9315 258.746 78.1778 268.826C84.2922 287.632 95.9222 262.747 98.0023 258.085C98.1599 257.707 98.6327 257.612 98.9478 257.833C110.609 266.054 117.921 243.343 119.214 238.933C119.308 238.555 119.749 238.366 120.096 238.555C129.331 242.933 135.54 236.633 139.889 228.979C143.293 222.962 145.751 216.725 147.453 210.362C140.393 231.184 124.477 225.955 124.477 225.955Z" fill="#4F5FAA"/>
<path d="M125.59 127.336C129.244 127.405 132.682 128.325 135.569 130.63C144.221 137.498 140.321 149.858 136.87 158.412C126.576 183.88 111.672 208.066 85.9779 220.215C78.0098 223.966 69.303 225.538 64.2805 216.641C64.088 216.313 63.6442 216.231 63.3413 216.442C59.7607 219.276 40.6896 233.626 35.8814 220.216C35.751 219.854 35.3101 219.659 34.9633 219.877C30.6192 222.482 6.7221 236.129 12.5681 217.238C15.7014 207.112 22.6576 197.252 28.8755 188.877C47.4051 163.815 73.1458 144.877 102.073 133.503C108.565 131.025 117.602 127.18 125.59 127.336Z" fill="#546AB2"/>
<path d="M75.1329 208.911C74.6495 208.339 74.2025 207.716 73.8023 206.971C73.5765 206.581 73.2628 206.205 72.9023 205.951C71.7948 205.171 70.2636 205.21 69.1916 206.073C67.7805 207.199 64.0241 210.063 59.8266 212.078C57.1781 213.372 52.302 215.255 49.7008 213.422C48.9024 212.859 48.2628 211.907 47.7973 210.654C47.5775 210.037 47.1971 209.538 46.6562 209.156C45.6518 208.449 44.3326 208.405 43.2666 209.042C41.8539 209.896 38.0896 212.062 34.2008 213.638C27.9437 216.167 26.5603 214.575 26.38 214.448C25.7876 214.031 25.3221 212.778 26.3431 209.527C29.1035 200.641 35.3443 191.741 41.0101 184.093C57.4475 161.834 80.4282 144.456 107.454 133.86C107.878 133.696 108.346 133.525 108.788 133.336C114.293 131.163 121.83 128.187 128.139 128.317C130.953 128.373 133.262 129.036 135.16 130.335C132.382 128.261 129.072 127.432 125.594 127.333C117.599 127.133 108.562 130.979 102.085 133.546C73.1328 144.904 47.3916 163.844 28.8865 188.925C22.694 197.319 15.7372 207.18 12.5775 217.287C6.73003 236.178 30.5832 222.537 34.9713 219.925C35.3181 219.707 35.7589 219.902 35.8893 220.263C40.6779 233.698 59.7493 219.347 63.3482 216.487C63.6435 216.232 64.113 216.332 64.2874 216.686C69.3088 225.583 78.0154 224.009 85.9834 220.258C92.2343 217.301 97.8397 213.619 102.9 209.399C85.124 222.35 75.1329 208.911 75.1329 208.911Z" fill="#4F5FAA"/>
<path d="M220.945 18.8681C218.824 18.8629 216.739 19.4159 214.9 20.4714C213.956 17.7088 212.172 15.3103 209.797 13.6119C207.421 11.9135 204.574 11.0004 201.653 11.0004C198.732 11.0004 195.885 11.9135 193.509 13.6119C191.134 15.3103 189.349 17.7088 188.406 20.4714C186.283 19.2596 183.844 18.7153 181.407 18.9093C178.97 19.1033 176.648 20.0266 174.743 21.559C172.839 23.0913 171.441 25.1616 170.731 27.4998C170.021 29.838 170.033 32.3357 170.764 34.6673C171.496 36.9989 172.913 39.0561 174.831 40.5708C176.75 42.0855 179.08 42.9874 181.519 43.1589C183.958 43.3304 186.392 42.7635 188.503 41.5322C190.615 40.3009 192.307 38.4623 193.357 36.2561C195.761 38.0259 198.668 38.9806 201.653 38.9806C204.638 38.9806 207.545 38.0259 209.948 36.2561C210.884 38.2209 212.33 39.8989 214.135 41.1151C215.94 42.3314 218.039 43.0412 220.212 43.1708C222.385 43.3003 224.554 42.8448 226.491 41.8516C228.428 40.8584 230.063 39.3641 231.225 37.5243C232.388 35.6845 233.035 33.5667 233.1 31.3918C233.165 29.2168 232.645 27.0643 231.593 25.1587C230.542 23.2531 228.999 21.6643 227.124 20.5578C225.25 19.4514 223.112 18.8678 220.935 18.8681H220.945Z" fill="#577EBF"/>
<path d="M193.581 108.932C191.5 108.334 189.42 108.176 187.466 109.594C184.85 111.452 184.472 115.012 185.67 117.784C186.237 119.075 187.088 120.209 188.033 121.249C192.32 125.911 199.191 129.407 205.652 127.99C206.282 127.864 206.912 127.675 207.511 127.454C209.907 126.604 212.113 125.249 214.225 123.8C215.737 122.729 217.282 121.595 218.196 119.957C219.047 118.445 219.33 116.587 218.858 114.917C218.416 113.248 217.25 111.736 215.706 110.917C212.901 109.405 210.253 110.287 207.417 111.011C204.423 111.767 201.239 111.641 198.308 110.665C196.795 110.129 195.188 109.373 193.581 108.932Z" fill="#CC4B28"/>
<path d="M207.795 116.618C208.898 116.209 209.875 115.327 210.38 114.256C210.947 113.09 210.821 111.988 210.726 110.728C210.726 110.696 210.695 110.507 210.695 110.224C209.623 110.413 208.552 110.696 207.417 110.98C205.873 111.358 204.265 111.515 202.689 111.452C202.752 112.24 203.225 113.72 203.288 113.972C203.635 115.138 204.391 116.303 205.589 116.713C206.314 116.933 207.102 116.87 207.795 116.618Z" fill="#FFFCFD"/>
<path d="M198.308 110.633C196.764 110.129 195.156 109.373 193.549 108.901C193.265 108.806 192.981 108.743 192.698 108.68C192.603 109.436 192.54 110.318 192.54 110.413C192.414 111.83 192.257 113.09 192.918 114.413C193.517 115.61 194.589 116.618 195.85 117.091C196.638 117.374 197.52 117.469 198.339 117.185C199.726 116.713 200.546 115.39 200.955 114.067C201.05 113.783 201.523 112.208 201.617 111.295C200.514 111.232 199.38 110.98 198.308 110.633Z" fill="#FFFCFD"/>
</g>
</svg>
