<svg width="162" height="24" viewBox="0 0 162 24" fill="none" xmlns="http://www.w3.org/2000/svg">
<g clip-path="url(#clip0_1092_17444)">
<path d="M27.1322 18.9225L22.7022 23.6725C22.6064 23.7757 22.4904 23.858 22.3613 23.9143C22.2323 23.9707 22.093 23.9998 21.9522 24H0.952209C0.852052 23.9999 0.754082 23.9707 0.670297 23.9158C0.586515 23.8609 0.520555 23.7828 0.480492 23.691C0.44043 23.5992 0.428005 23.4977 0.44474 23.399C0.461475 23.3002 0.50664 23.2085 0.57471 23.135L4.99971 18.385C5.09553 18.2818 5.21156 18.1995 5.34061 18.1431C5.46963 18.0868 5.60891 18.0576 5.74971 18.0575H26.7497C26.8507 18.0554 26.9502 18.0833 27.0355 18.1376C27.1207 18.1919 27.1882 18.2702 27.229 18.3626C27.27 18.4551 27.2825 18.5576 27.2652 18.6572C27.248 18.7568 27.2017 18.8491 27.1322 18.9225ZM22.7022 9.35497C22.606 9.25227 22.4899 9.17027 22.361 9.11395C22.232 9.05765 22.0929 9.02822 21.9522 9.0275H0.952209C0.852052 9.02755 0.754082 9.0568 0.670297 9.1117C0.586515 9.16658 0.520555 9.2447 0.480492 9.3365C0.44043 9.4283 0.428005 9.52977 0.44474 9.62852C0.461475 9.72727 0.50664 9.81903 0.57471 9.8925L4.99971 14.645C5.09588 14.7477 5.21201 14.8297 5.34096 14.886C5.46991 14.9423 5.60901 14.9718 5.74971 14.9725H26.7497C26.8497 14.9719 26.9472 14.9423 27.0307 14.8873C27.1142 14.8322 27.1797 14.754 27.2195 14.6623C27.2592 14.5707 27.2715 14.4693 27.2545 14.3708C27.2377 14.2723 27.1927 14.1808 27.1247 14.1075L22.7022 9.35497ZM0.952209 5.94247H21.9522C22.093 5.94235 22.2323 5.91318 22.3613 5.85682C22.4904 5.8005 22.6064 5.71815 22.7022 5.61497L27.1322 0.864987C27.2017 0.791618 27.248 0.699315 27.2652 0.599693C27.2825 0.50007 27.27 0.397578 27.229 0.305113C27.1882 0.212648 27.1207 0.134342 27.0355 0.0800487C26.9502 0.0257552 26.8507 -0.0021003 26.7497 -1.27697e-05H5.74971C5.60891 0.00013544 5.46963 0.0292917 5.34061 0.0856382C5.21156 0.141984 5.09553 0.224312 4.99971 0.327487L0.57471 5.07748C0.50664 5.15095 0.461475 5.2427 0.44474 5.34145C0.428005 5.4402 0.44043 5.54167 0.480492 5.63347C0.520555 5.72528 0.586515 5.8034 0.670297 5.85827C0.754082 5.91318 0.852052 5.94242 0.952209 5.94247Z" fill="url(#paint0_linear_1092_17444)"/>
<path d="M52.735 10.1501H41.5V6.45005H55.655V2.75005H41.4625C40.9775 2.74743 40.497 2.84033 40.048 3.02345C39.599 3.2066 39.1902 3.47638 38.8457 3.8174C38.501 4.15843 38.2267 4.56403 38.0387 5.011C37.8507 5.458 37.7525 5.93765 37.75 6.42255V10.1726C37.752 10.6579 37.8495 11.1381 38.0373 11.5856C38.225 12.0332 38.499 12.4394 38.8438 12.7809C39.1888 13.1225 39.5975 13.3927 40.0467 13.5762C40.496 13.7596 40.9773 13.8527 41.4625 13.8501H52.7125V17.5501H38.0175V21.2501H52.735C53.22 21.2527 53.7005 21.1598 54.1495 20.9767C54.5985 20.7935 55.007 20.5237 55.3517 20.1827C55.6965 19.8417 55.9707 19.4361 56.1587 18.9891C56.3467 18.5421 56.445 18.0625 56.4475 17.5776V13.8276C56.4455 13.3422 56.348 12.8621 56.1603 12.4145C55.9725 11.9669 55.6985 11.5607 55.3537 11.2192C55.0087 10.8776 54.6 10.6074 54.1507 10.424C53.7015 10.2405 53.2203 10.1474 52.735 10.1501Z" fill="black"/>
<path d="M74.5 2.75H63.2225C62.7367 2.74605 62.255 2.83798 61.8047 3.02053C61.3547 3.20307 60.945 3.47263 60.5993 3.8138C60.2533 4.15495 59.9782 4.56098 59.7897 5.00863C59.601 5.45627 59.5025 5.93675 59.5 6.4225V17.5775C59.5025 18.0632 59.601 18.5437 59.7897 18.9914C59.9782 19.439 60.2533 19.845 60.5993 20.1862C60.945 20.5274 61.3547 20.7969 61.8047 20.9795C62.255 21.162 62.7367 21.254 63.2225 21.25H74.5C74.985 21.2526 75.4655 21.1597 75.9145 20.9766C76.3635 20.7935 76.7723 20.5237 77.1168 20.1826C77.4615 19.8416 77.7358 19.436 77.9238 18.989C78.1118 18.5421 78.21 18.0624 78.2125 17.5775V6.4225C78.21 5.9376 78.1118 5.45795 77.9238 5.01095C77.7358 4.56398 77.4615 4.15837 77.1168 3.81735C76.7723 3.47632 76.3635 3.20655 75.9145 3.0234C75.4655 2.84028 74.985 2.74738 74.5 2.75ZM74.4725 17.55H63.25V6.45H74.4675L74.4725 17.55Z" fill="black"/>
<path d="M114 2.75003H103C102.515 2.7474 102.034 2.8403 101.585 3.02343C101.136 3.20658 100.727 3.47635 100.383 3.81738C100.038 4.1584 99.7639 4.564 99.5759 5.01098C99.3879 5.45798 99.2896 5.93763 99.2871 6.42253V21.25H103.037V15.1725H113.987V21.25H117.737V6.42253C117.735 5.9355 117.636 5.4538 117.446 5.00515C117.256 4.55653 116.98 4.14983 116.633 3.80845C116.285 3.4671 115.874 3.19785 115.422 3.0162C114.97 2.83455 114.487 2.7441 114 2.75003ZM113.972 11.4725H103.022V6.45003H113.972V11.4725Z" fill="black"/>
<path d="M157.787 2.75005H146.787C146.302 2.74743 145.821 2.84033 145.372 3.02345C144.923 3.2066 144.515 3.47638 144.17 3.8174C143.825 4.15843 143.551 4.56403 143.363 5.011C143.175 5.458 143.077 5.93765 143.074 6.42255V21.2501H146.824V15.1726H157.749V21.2501H161.499V6.42255C161.497 5.93765 161.398 5.458 161.21 5.011C161.022 4.56403 160.748 4.15843 160.403 3.8174C160.059 3.47638 159.65 3.2066 159.201 3.02345C158.752 2.84033 158.272 2.74743 157.787 2.75005ZM157.749 11.4726H146.799V6.45005H157.749V11.4726Z" fill="black"/>
<path d="M136 17.55H134.5L129.137 4.30003C128.954 3.84291 128.637 3.45113 128.229 3.17498C127.821 2.89881 127.34 2.75083 126.847 2.75003H123.52C123.196 2.74838 122.876 2.81046 122.577 2.93268C122.277 3.05493 122.005 3.23493 121.775 3.46243C121.545 3.68996 121.362 3.96048 121.237 4.25863C121.112 4.55676 121.047 4.87666 121.045 5.20003V21.25H124.795V6.45003H126.295L131.655 19.7C131.842 20.1563 132.16 20.5465 132.57 20.8208C132.98 21.0951 133.462 21.241 133.955 21.24H137.282C137.606 21.2417 137.926 21.1796 138.226 21.0574C138.525 20.9352 138.797 20.7551 139.027 20.5276C139.257 20.3001 139.44 20.0296 139.565 19.7315C139.69 19.4333 139.756 19.1134 139.757 18.79V2.75003H136V17.55Z" fill="black"/>
<path d="M85.2754 2.75H81.5254V17.5775C81.5279 18.0635 81.6266 18.5441 81.8154 18.9919C82.0041 19.4398 82.2794 19.8459 82.6254 20.1871C82.9714 20.5283 83.3816 20.7978 83.8319 20.9802C84.2824 21.1626 84.7644 21.2543 85.2504 21.25H96.5004V17.55H85.2754V2.75Z" fill="black"/>
</g>
<defs>
<linearGradient id="paint0_linear_1092_17444" x1="2.70221" y1="24.5725" x2="24.7222" y2="-0.25251" gradientUnits="userSpaceOnUse">
<stop offset="0.08" stop-color="#9945FF"/>
<stop offset="0.3" stop-color="#8752F3"/>
<stop offset="0.5" stop-color="#5497D5"/>
<stop offset="0.6" stop-color="#43B4CA"/>
<stop offset="0.72" stop-color="#28E0B9"/>
<stop offset="0.97" stop-color="#19FB9B"/>
</linearGradient>
<clipPath id="clip0_1092_17444">
<rect width="161.5" height="24" fill="white"/>
</clipPath>
</defs>
</svg>
