<svg width="88" height="88" viewBox="0 0 88 88" fill="none" xmlns="http://www.w3.org/2000/svg">
<path fill-rule="evenodd" clip-rule="evenodd" d="M48.9735 16.699L75.0495 29.7369C76.2544 30.3394 76.2733 32.0524 75.0818 32.6811L41.2152 50.5552C39.3269 51.5518 37.0739 51.5765 35.1641 50.6217L13.9007 39.9899C11.3102 38.9492 8.41378 40.8499 8.41378 43.7128C8.41378 46.0146 9.71426 48.1189 11.773 49.1483L33.0913 59.8073C34.3927 58.4823 36.2046 57.6604 38.2087 57.6604C40.1554 57.6604 41.9209 58.436 43.2131 59.6949L69.7659 45.681C69.6932 45.2712 69.6552 44.8494 69.6552 44.4188C69.6552 40.4576 72.8665 37.2465 76.8276 37.2465C80.7888 37.2465 84 40.4576 84 44.4188C84 48.3801 80.7888 51.5912 76.8276 51.5912C74.8907 51.5912 73.1331 50.8235 71.8426 49.5758L45.275 63.5975C45.3447 63.9988 45.381 64.4115 45.381 64.8328C45.381 68.794 42.1698 72.0052 38.2087 72.0052C34.2475 72.0052 31.0363 68.794 31.0363 64.8328C31.0363 64.4665 31.0637 64.1065 31.1168 63.7548L9.48971 52.9414C6.12525 51.2592 4 47.8205 4 44.0588V41.9636C4 39.0989 5.58555 36.4693 8.11918 35.1323L42.9224 16.7654C44.8107 15.7688 47.0637 15.7441 48.9735 16.699ZM38.2087 67.5914C39.7322 67.5914 40.9672 66.3563 40.9672 64.8328C40.9672 63.3093 39.7322 62.0742 38.2087 62.0742C36.6851 62.0742 35.4501 63.3093 35.4501 64.8328C35.4501 66.3563 36.6851 67.5914 38.2087 67.5914ZM79.5862 44.4188C79.5862 45.9424 78.3511 47.1775 76.8276 47.1775C75.3041 47.1775 74.069 45.9424 74.069 44.4188C74.069 42.8953 75.3041 41.6602 76.8276 41.6602C78.3511 41.6602 79.5862 42.8953 79.5862 44.4188Z" fill="#90B0FF"/>
</svg>
