<svg width="88" height="88" viewBox="0 0 88 88" fill="none" xmlns="http://www.w3.org/2000/svg">
<g clip-path="url(#clip0_1092_17475)">
<path d="M44 88C68.3005 88 88 68.3005 88 44C88 19.6995 68.3005 0 44 0C19.6995 0 0 19.6995 0 44C0 68.3005 19.6995 88 44 88Z" fill="#32A9E1"/>
<path d="M29.791 47.1938L35.0058 61.6649C35.0058 61.6649 35.6577 63.0338 36.3747 63.0338C37.0918 63.0338 47.4562 52.213 47.4562 52.213L58.994 29.8545L29.9866 43.4782L29.791 47.1938Z" fill="#C8DAEA"/>
<path d="M36.6995 50.9094L35.7217 61.5346C35.7217 61.5346 35.3306 64.7939 38.5898 61.5346C41.8491 58.2754 44.978 55.7331 44.978 55.7331L36.6995 50.9094Z" fill="#A9C6D8"/>
<path d="M29.8561 47.7157L19.1005 44.1957C19.1005 44.1957 17.7968 43.6742 18.2531 42.5009C18.3183 42.2402 18.5139 42.0446 19.0354 41.7187C21.4472 40.0891 63.1005 25.0965 63.1005 25.0965C63.1005 25.0965 64.2739 24.7054 64.9909 24.9661C65.3168 25.0965 65.5124 25.2268 65.7079 25.7483C65.7731 25.9439 65.8383 26.335 65.7731 26.7261C65.7731 26.9868 65.7079 27.2476 65.7079 27.6387C65.4472 31.7454 57.8857 62.3172 57.8857 62.3172C57.8857 62.3172 57.4294 64.0772 55.7998 64.1424C55.2131 64.1424 54.4961 64.012 53.6487 63.295C50.4546 60.5572 39.4383 53.1261 36.9613 51.4965C36.8309 51.4313 36.7657 51.3009 36.7657 51.1705C36.7005 50.975 36.8961 50.7794 36.8961 50.7794C36.8961 50.7794 56.1257 33.7009 56.6472 31.8757C56.7124 31.7454 56.5168 31.6802 56.3213 31.7454C55.0176 32.2017 32.9198 46.2165 30.4428 47.7157C30.3124 47.7809 29.8561 47.7157 29.8561 47.7157Z" fill="white"/>
</g>
<defs>
<clipPath id="clip0_1092_17475">
<rect width="88" height="88" fill="white"/>
</clipPath>
</defs>
</svg>
