<svg width="48" height="48" viewBox="0 0 48 48" fill="none" xmlns="http://www.w3.org/2000/svg">
<g clip-path="url(#clip0_247_6423)">
<path d="M48 24C48 37.2553 37.2553 48 24 48C10.7447 48 0 37.2553 0 24C0 10.7447 10.7456 0 24 0C37.2544 0 48 10.7447 48 24Z" fill="#6354B2"/>
<path d="M44.25 24C44.25 35.1834 35.1834 44.25 24 44.25C12.8166 44.25 3.75 35.1834 3.75 24C3.75 12.8166 12.8166 3.75 24 3.75C35.1834 3.75 44.25 12.8166 44.25 24Z" fill="#6E61B7"/>
<path d="M39.375 43.0856C39.375 43.6237 39.2259 44.1272 38.9672 44.5566C38.9391 44.6034 38.9006 44.6419 38.8537 44.67C38.4244 44.9288 37.9209 45.0778 37.3828 45.0778C35.8087 45.0778 34.5309 43.8 34.5309 42.2259C34.5309 41.6888 34.6791 41.1862 34.9378 40.7578C34.9669 40.71 35.0072 40.6697 35.055 40.6406C35.4844 40.3828 35.9859 40.2337 36.5231 40.2337C38.0972 40.2337 39.375 41.5116 39.375 43.0856ZM13.125 4.6875C12.7716 4.6875 12.4416 4.785 12.1594 4.95469C12.1275 4.97344 12.1012 5.00062 12.0825 5.03156C11.9128 5.31375 11.8153 5.64375 11.8153 5.99719C11.8153 7.03219 12.6553 7.87219 13.6903 7.87219C14.0437 7.87219 14.3747 7.77469 14.6578 7.60406C14.6887 7.58531 14.7141 7.56 14.7328 7.52906C14.9034 7.24687 15.0009 6.91594 15.0009 6.5625C15.0009 5.5275 14.1609 4.6875 13.1259 4.6875H13.125Z" fill="#FF4FB8"/>
<path d="M38.9756 44.5425C38.4787 45.3778 37.5666 45.9375 36.5231 45.9375C34.9481 45.9375 33.6712 44.6606 33.6712 43.0856C33.6712 42.0431 34.2309 41.1309 35.0662 40.6331C34.8131 41.0597 34.6669 41.5575 34.6669 42.0891C34.6669 43.6641 35.9438 44.9409 37.5188 44.9409C38.0503 44.9409 38.5491 44.7956 38.9747 44.5416L38.9756 44.5425ZM11.9053 5.90718C11.9053 5.5575 12.0009 5.23031 12.1678 4.95C11.6184 5.27718 11.25 5.87625 11.25 6.5625C11.25 7.5975 12.0891 8.4375 13.125 8.4375C13.8112 8.4375 14.4103 8.06906 14.7375 7.51968C14.4572 7.68656 14.13 7.78218 13.7803 7.78218C12.7453 7.78218 11.9053 6.94218 11.9053 5.90718Z" fill="#FF2AAA"/>
<path d="M24 2.76094C18.7763 2.76094 14.6841 12.09 14.6841 24C14.6841 35.91 18.7763 45.2391 24 45.2391C29.2238 45.2391 33.3159 35.91 33.3159 24C33.3159 12.09 29.2238 2.76094 24 2.76094ZM24 43.8328C22.0303 43.8328 20.0466 41.7975 18.5578 38.2491C16.9659 34.4541 16.0903 29.3944 16.0903 24C16.0903 18.6056 16.9669 13.5459 18.5578 9.75094C20.0466 6.2025 22.0294 4.16719 24 4.16719C25.9706 4.16719 27.9534 6.2025 29.4422 9.75094C31.0341 13.5459 31.9106 18.6056 31.9106 24C31.9106 29.3944 31.0341 34.4541 29.4422 38.2491C27.9534 41.7975 25.9706 43.8328 24 43.8328Z" fill="#C9F0FF"/>
<path d="M38.4375 22.7269C38.4375 25.5141 37.6659 28.1213 36.3234 30.3459C36.1781 30.5869 35.9766 30.7884 35.7356 30.9338C33.5109 32.2753 30.9037 33.0478 28.1166 33.0478C19.9641 33.0478 13.3425 26.4263 13.3425 18.2738C13.3425 15.4913 14.1112 12.8897 15.4491 10.6678C15.5991 10.4184 15.8081 10.2094 16.0575 10.0594C18.2794 8.72251 20.8819 7.95282 23.6634 7.95282C31.8159 7.95282 38.4375 14.5734 38.4375 22.7269Z" fill="#FF73C6"/>
<path d="M36.3684 30.2709C33.7922 34.6003 29.0672 37.5 23.6634 37.5C15.5044 37.5 8.88937 30.8859 8.88937 22.7259C8.88937 17.3231 11.79 12.5972 16.1184 10.0209C14.8041 12.2287 14.0494 14.8087 14.0494 17.565C14.0494 25.7241 20.6634 32.3391 28.8225 32.3391C31.5787 32.3391 34.1587 31.5844 36.3666 30.27L36.3684 30.2709Z" fill="#FF4FB8"/>
<path d="M25.7794 17.3494C25.8506 17.5566 25.8197 17.7741 25.7138 17.9475C25.6313 18.0816 25.5038 18.1884 25.3444 18.2438C23.8988 18.7425 22.4344 19.3903 20.9934 20.1703C18.3469 21.6028 15.9872 23.3813 14.3484 25.1784C14.0869 25.4653 13.6425 25.4859 13.3547 25.2244C13.0678 24.9628 13.0472 24.5184 13.3088 24.2306C15.0506 22.32 17.5416 20.4384 20.3231 18.9338C21.8325 18.1172 23.3672 17.4375 24.885 16.9144C25.2525 16.7878 25.6528 16.9828 25.7794 17.3503V17.3494ZM21.5775 11.9447C20.0513 12.4444 18.5063 13.1006 16.9847 13.8938C15.7922 14.5153 14.6522 15.2063 13.5984 15.9394C13.4934 16.5619 13.4325 17.1881 13.4156 17.8125C14.6756 16.8469 16.1091 15.9366 17.6353 15.1406C19.0884 14.3831 20.5622 13.7569 22.0153 13.2806C22.1766 13.2281 22.305 13.1231 22.3894 12.99C22.4981 12.8184 22.5328 12.6019 22.4644 12.3938C22.3434 12.0244 21.9469 11.8238 21.5775 11.9447ZM26.2678 19.5094C24.75 20.0325 23.2144 20.7122 21.7059 21.5288C18.9244 23.0344 16.4334 24.915 14.6916 26.8256C14.43 27.1125 14.4506 27.5569 14.7375 27.8194C15.0244 28.0809 15.4688 28.0603 15.7313 27.7734C17.3691 25.9762 19.7288 24.1978 22.3763 22.7653C23.8181 21.9853 25.2816 21.3375 26.7272 20.8388C26.8875 20.7834 27.015 20.6766 27.0966 20.5425C27.2034 20.3691 27.2334 20.1516 27.1622 19.9444C27.0356 19.5769 26.6353 19.3819 26.2678 19.5084V19.5094ZM26.6372 22.3275C25.0781 22.9369 23.6494 23.6522 22.4428 24.4341C22.11 24.6497 22.02 25.0987 22.2488 25.4259C22.4672 25.74 22.9069 25.8075 23.2284 25.6003C24.3525 24.8737 25.6856 24.2081 27.1444 23.6381C27.4059 23.5359 27.5813 23.2847 27.5859 23.0034V22.9884C27.5934 22.4934 27.0975 22.1466 26.6372 22.3266V22.3275ZM25.6538 25.7934C24.1434 26.5162 22.7719 27.3356 21.6263 28.2047C21.3103 28.4447 21.2541 28.8984 21.5063 29.2087C21.7472 29.5059 22.1916 29.5406 22.4963 29.31C23.5631 28.5019 24.8438 27.7397 26.2566 27.0637C26.5097 26.9419 26.6663 26.6794 26.6503 26.3981V26.3831C26.6203 25.8891 26.1 25.5797 25.6538 25.7934Z" fill="#FF4FB8"/>
<path d="M28.6584 15.9319C18.3441 9.97687 8.21907 8.85656 5.60719 13.3809C2.99532 17.9053 9.02813 26.1141 19.3425 32.0681C25.3969 35.5641 31.3866 37.3931 35.8294 37.3931C38.955 37.3931 41.3156 36.4875 42.3938 34.6191C45.0056 30.0947 38.9728 21.8859 28.6584 15.9319ZM41.1759 33.9159C40.1906 35.6222 37.4362 36.3225 33.6197 35.8369C29.5378 35.3175 24.7172 33.5466 20.0456 30.8494C15.3741 28.1522 11.43 24.8634 8.94 21.5878C6.61125 18.525 5.84063 15.7894 6.825 14.0831C7.605 12.7322 9.495 12.0112 12.1444 12.0112C12.84 12.0112 13.5881 12.0609 14.3822 12.1622C18.4641 12.6816 23.2847 14.4525 27.9563 17.1497C32.6278 19.8469 36.5719 23.1356 39.0619 26.4112C41.3906 29.4741 42.1613 32.2097 41.1769 33.9159H41.1759Z" fill="#C9F0FF"/>
<path d="M42.3938 34.6191C42.2634 34.845 42.0272 34.9706 41.7844 34.9706C41.6653 34.9706 41.5444 34.9406 41.4338 34.8759C41.0972 34.6819 40.9819 34.2516 41.1769 33.9159C42.1622 32.2097 41.3916 29.4741 39.0619 26.4113C36.5719 23.1356 32.6269 19.8469 27.9563 17.1497C23.2856 14.4525 18.4641 12.6816 14.3822 12.1622C10.5647 11.6766 7.81031 12.3769 6.82594 14.0831C6.63187 14.4197 6.20156 14.5341 5.86594 14.34C5.52937 14.1459 5.41406 13.7156 5.60906 13.38C8.22094 8.85563 18.3469 9.97688 28.6603 15.9319C38.9747 21.8869 45.0075 30.0956 42.3956 34.6191H42.3938Z" fill="white"/>
<path d="M42.3937 13.3809C39.7819 8.85656 29.6559 9.97781 19.3425 15.9328C9.02812 21.8869 2.99437 30.0956 5.60624 34.6191C6.68531 36.4875 9.04499 37.3931 12.1706 37.3931C16.6134 37.3931 22.6041 35.5631 28.6575 32.0681C38.9719 26.1131 45.0047 17.9053 42.3928 13.3809H42.3937ZM39.0609 21.5887C36.5709 24.8644 32.6259 28.1531 27.9553 30.8503C23.2847 33.5475 18.4631 35.3184 14.3812 35.8378C10.5637 36.3234 7.80937 35.6231 6.82499 33.9169C5.83968 32.2106 6.61031 29.475 8.93999 26.4122C11.43 23.1366 15.375 19.8478 20.0456 17.1506C24.7162 14.4534 29.5378 12.6825 33.6197 12.1631C34.4137 12.0619 35.1609 12.0122 35.8566 12.0122C38.505 12.0122 40.3959 12.7322 41.1759 14.0841C42.1612 15.7903 41.3906 18.5259 39.0609 21.5887Z" fill="#C9F0FF"/>
<path d="M28.6584 32.0681C22.6041 35.5631 16.6144 37.3931 12.1716 37.3931C9.045 37.3931 6.68625 36.4875 5.60719 34.6191C5.41313 34.2825 5.52844 33.8531 5.86406 33.6591C6.20063 33.465 6.63 33.5803 6.82406 33.9159C7.80938 35.6222 10.5638 36.3225 14.3803 35.8369C18.4622 35.3175 23.2828 33.5466 27.9544 30.8494C32.6259 28.1522 36.57 24.8634 39.06 21.5878C41.3888 18.525 42.1594 15.7894 41.175 14.0831C40.9809 13.7466 41.0963 13.3172 41.4319 13.1231C41.7684 12.9291 42.1978 13.0444 42.3919 13.38C45.0038 17.9044 38.9709 26.1122 28.6566 32.0672L28.6584 32.0681Z" fill="white"/>
<path d="M13.125 24.375C13.125 25.0828 12.9291 25.7447 12.5887 26.3091C12.5522 26.37 12.5006 26.4216 12.4397 26.4581C11.8753 26.7984 11.2134 26.9944 10.5056 26.9944C8.43656 26.9944 6.75562 25.3134 6.75562 23.2444C6.75562 22.5384 6.95062 21.8775 7.29 21.3141C7.32843 21.2503 7.38093 21.1978 7.44468 21.1594C8.00812 20.82 8.66906 20.625 9.375 20.625C11.4441 20.625 13.125 22.3059 13.125 24.375ZM1.87499 19.6875C1.52156 19.6875 1.19156 19.785 0.90937 19.9547C0.877495 19.9734 0.851245 20.0006 0.832495 20.0316C0.662808 20.3137 0.565308 20.6438 0.565308 20.9972C0.565308 22.0322 1.40531 22.8722 2.44031 22.8722C2.79375 22.8722 3.12468 22.7747 3.40687 22.6041C3.43781 22.5853 3.46312 22.56 3.48187 22.5291C3.65249 22.2469 3.75 21.9159 3.75 21.5625C3.75 20.5275 2.91 19.6875 1.87499 19.6875ZM16.875 33.75C16.3453 33.75 15.8503 33.8963 15.4266 34.1513C15.3787 34.1794 15.3394 34.2197 15.3103 34.2675C15.0562 34.6903 14.9091 35.1863 14.9091 35.7159C14.9091 37.2675 16.17 38.5284 17.7216 38.5284C18.2522 38.5284 18.7481 38.3813 19.1719 38.1263C19.2178 38.0981 19.2562 38.0606 19.2834 38.0147C19.5394 37.5909 19.6856 37.095 19.6856 36.5644C19.6856 35.0128 18.4256 33.7519 16.8731 33.7519L16.875 33.75Z" fill="#00D1FC"/>
<path d="M19.2938 37.9987C18.8034 38.8228 17.9034 39.375 16.875 39.375C15.3216 39.375 14.0625 38.1159 14.0625 36.5625C14.0625 35.5341 14.6147 34.6341 15.4387 34.1437C15.1884 34.5637 15.045 35.055 15.045 35.58C15.045 37.1334 16.3041 38.3925 17.8575 38.3925C18.3825 38.3925 18.8738 38.2491 19.2938 37.9987ZM0.655312 20.9072C0.655312 20.5575 0.750938 20.2303 0.917812 19.95C0.368437 20.2772 0 20.8762 0 21.5625C0 22.5984 0.839062 23.4375 1.875 23.4375C2.56125 23.4375 3.16031 23.0691 3.4875 22.5197C3.20719 22.6866 2.88 22.7822 2.53031 22.7822C1.49437 22.7822 0.655312 21.9422 0.655312 20.9072ZM6.93563 23.0644C6.93563 22.365 7.12688 21.7097 7.46063 21.1491C6.36188 21.8034 5.62594 23.0025 5.62594 24.3741C5.62594 26.445 7.305 28.1241 9.37594 28.1241C10.7475 28.1241 11.9466 27.3881 12.6009 26.2894C12.0403 26.6231 11.3859 26.8144 10.6856 26.8144C8.61469 26.8144 6.93563 25.1353 6.93563 23.0644Z" fill="#00C1FB"/>
<path d="M33.3159 24C33.3159 35.91 29.2238 45.2391 24 45.2391C23.6119 45.2391 23.2969 44.9241 23.2969 44.5359C23.2969 44.1478 23.6119 43.8328 24 43.8328C25.9706 43.8328 27.9534 41.7975 29.4422 38.2491C31.0341 34.4541 31.9106 29.3944 31.9106 24C31.9106 18.6056 31.0341 13.5459 29.4422 9.75094C27.9534 6.2025 25.9706 4.16719 24 4.16719C23.6119 4.16719 23.2969 3.85219 23.2969 3.46407C23.2969 3.07594 23.6119 2.76094 24 2.76094C29.2238 2.76094 33.3159 12.09 33.3159 24Z" fill="white"/>
<path d="M48 23.8031C47.3353 25.2469 45.8756 26.25 44.1816 26.25C42.4875 26.25 41.0278 25.2478 40.3631 23.8031C41.0278 22.3594 47.3344 22.3594 47.9991 23.8031H48ZM40.8469 2.14312C38.9241 1.4325 36.6788 1.84875 35.1347 3.39375C33.5897 4.93875 33.1734 7.18312 33.8841 9.10593C35.8069 9.81656 41.5584 4.06594 40.8469 2.14312ZM29.0278 33.7144C28.4766 35.205 28.8 36.9459 29.9981 38.1441C31.1953 39.3412 32.9372 39.6647 34.4278 39.1144C34.9791 37.6237 30.5194 33.1641 29.0288 33.7153L29.0278 33.7144Z" fill="#00C53B"/>
<path d="M44.1825 21.3572C45.8766 21.3572 47.3363 22.3594 48.0009 23.8041C47.3363 25.2478 41.0297 25.2478 40.365 23.8041C41.0297 22.3603 42.4894 21.3572 44.1834 21.3572H44.1825ZM40.8469 2.14312C38.9241 1.4325 33.1725 7.18312 33.8841 9.10687C35.8069 9.8175 38.0522 9.40125 39.5963 7.85625C41.1413 6.31125 41.5575 4.06687 40.8469 2.14406V2.14312ZM29.0278 33.7144C28.4766 35.205 32.9363 39.6647 34.4269 39.1134C34.9781 37.6228 34.6547 35.8819 33.4566 34.6837C32.2594 33.4856 30.5175 33.1631 29.0269 33.7134L29.0278 33.7144Z" fill="#4BCD5C"/>
</g>
<defs>
<clipPath id="clip0_247_6423">
<rect width="48" height="48" fill="white"/>
</clipPath>
</defs>
</svg>
