<svg width="48" height="48" viewBox="0 0 48 48" fill="none" xmlns="http://www.w3.org/2000/svg">
<g clip-path="url(#clip0_1092_17432)">
<path d="M32.828 21.1953L17.5694 12.4357C17.0711 12.1459 16.5063 11.9956 15.9324 12.0001C15.3585 12.0046 14.7959 12.1636 14.302 12.4611C13.8209 12.7411 13.4211 13.1458 13.1434 13.6339C12.8656 14.122 12.7198 14.6763 12.7207 15.2403V32.7595C12.7198 33.3235 12.8656 33.8778 13.1434 34.3659C13.4211 34.854 13.8209 35.2587 14.302 35.5387C14.796 35.836 15.3585 35.995 15.9324 35.9995C16.5063 36.0039 17.0711 35.8537 17.5694 35.5641L32.828 26.8045C33.3201 26.5271 33.7302 26.1207 34.0158 25.6275C34.3014 25.1343 34.452 24.5723 34.452 23.9999C34.452 23.4275 34.3014 22.8655 34.0158 22.3723C33.7302 21.8791 33.3201 21.4727 32.828 21.1953V21.1953Z" fill="#3563E9"/>
</g>
<defs>
<clipPath id="clip0_1092_17432">
<rect width="47.1724" height="48" fill="white"/>
</clipPath>
</defs>
</svg>
