<svg width="24" height="24" viewBox="0 0 24 24" fill="none" xmlns="http://www.w3.org/2000/svg">
<path d="M4.81066 18.5C4.81066 18.6989 4.88968 18.8897 5.03033 19.0303C5.17098 19.171 5.36175 19.25 5.56066 19.25C5.75957 19.25 5.95034 19.171 6.09099 19.0303L18.8189 6.30241C18.9596 6.16176 19.0386 5.97099 19.0386 5.77208C19.0386 5.57317 18.9596 5.3824 18.8189 5.24175C18.6783 5.1011 18.4875 5.02208 18.2886 5.02208C18.0897 5.02208 17.8989 5.1011 17.7583 5.24175L5.03033 17.9697C4.88968 18.1103 4.81066 18.3011 4.81066 18.5Z" fill="#3563E9"/>
<path d="M5.5 4.81066C5.30109 4.81066 5.11032 4.88968 4.96967 5.03033C4.82902 5.17098 4.75 5.36175 4.75 5.56066C4.75 5.75957 4.82902 5.95034 4.96967 6.09099L17.6976 18.8189C17.8382 18.9596 18.029 19.0386 18.2279 19.0386C18.4268 19.0386 18.6176 18.9596 18.7583 18.8189C18.8989 18.6783 18.9779 18.4875 18.9779 18.2886C18.9779 18.0897 18.8989 17.8989 18.7583 17.7583L6.03033 5.03033C5.88968 4.88968 5.69891 4.81066 5.5 4.81066Z" fill="#3563E9"/>
</svg>
