<svg width="88" height="88" viewBox="0 0 88 88" fill="none" xmlns="http://www.w3.org/2000/svg">
<path d="M74.5444 15.502C68.848 12.8368 62.7571 10.8998 56.3893 9.79688C55.6072 11.2108 54.6936 13.1125 54.0637 14.6253C47.2945 13.6073 40.5876 13.6073 33.9429 14.6253C33.3131 13.1125 32.3787 11.2108 31.5897 9.79688C25.215 10.8998 19.1171 12.8439 13.4207 15.5161C1.93102 32.8785 -1.18364 49.8097 0.373694 66.5004C7.99426 72.1912 15.3795 75.6483 22.6401 77.9104C24.4328 75.4432 26.0316 72.8205 27.409 70.0563C24.7858 69.0596 22.2733 67.8295 19.8993 66.4015C20.5291 65.9349 21.1451 65.4471 21.7403 64.9451C36.22 71.7177 51.9526 71.7177 66.2594 64.9451C66.8615 65.4471 67.4775 65.9349 68.1004 66.4015C65.7194 67.8365 63.2001 69.0666 60.5768 70.0635C61.9542 72.8205 63.5462 75.4503 65.3457 77.9174C72.6133 75.6553 80.0054 72.1984 87.626 66.5004C89.4533 47.1516 84.5044 30.3759 74.5444 15.502ZM29.3816 56.2357C25.035 56.2357 21.4704 52.1779 21.4704 47.2364C21.4704 42.2949 24.9589 38.23 29.3816 38.23C33.8046 38.23 37.369 42.2878 37.2929 47.2364C37.2998 52.1779 33.8046 56.2357 29.3816 56.2357ZM58.618 56.2357C54.2714 56.2357 50.7068 52.1779 50.7068 47.2364C50.7068 42.2949 54.1951 38.23 58.618 38.23C63.0408 38.23 66.6055 42.2878 66.5293 47.2364C66.5293 52.1779 63.0408 56.2357 58.618 56.2357Z" fill="#5865F2"/>
</svg>
