<svg width="112" height="124" viewBox="0 0 112 124" fill="none" xmlns="http://www.w3.org/2000/svg">
<g clip-path="url(#clip0_1092_17384)">
<path fill-rule="evenodd" clip-rule="evenodd" d="M89.5994 28.4949C77.9756 4.12635 64.1425 0.558029 58.5437 0.180403C56.0687 -0.222105 53.4692 0.180403 53.4692 0.180403C47.8594 0.558029 34.024 4.12635 22.3997 28.4949L22.3719 28.4949C17.6707 28.4949 13.8544 30.9238 13.8544 35.6428C13.8544 38.3159 15.0788 40.5436 16.995 41.9728C16.0535 44.7628 15.1425 47.7379 14.2692 50.9102C14.2692 50.9102 14.1243 51.4319 13.8917 52.3833C13.62 52.7825 13.3593 53.1766 13.1095 53.5588C12.9702 53.77 12.8342 53.9775 12.7014 54.18L12.7009 54.1807C12.5561 54.4016 12.4152 54.6166 12.2781 54.8242C4.78374 66.2609 0.345221 79.6131 0.0271964 93.34C-0.0834209 97.9341 -0.0834208 103.25 1.3546 107.691C2.01229 109.723 2.81626 110.597 3.6685 110.728C6.29161 111.157 9.37582 104.511 10.0657 102.958C10.1093 102.854 10.2077 102.798 10.3091 102.796C10.3642 102.797 10.4195 102.814 10.4667 102.847C10.9535 103.191 11.4231 103.411 11.8747 103.526C13.0483 103.835 14.1013 103.436 15.0224 102.656C18.0435 108.887 22.8886 113.926 30.4055 116.408C30.4055 116.408 30.8403 116.527 31.6919 116.713C31.3158 117.202 31.0311 117.759 30.8895 118.406C30.5853 119.808 30.9863 121.307 31.8989 122.404C33.1295 123.875 35.0791 124.153 36.8766 123.93C38.4114 123.75 40.0569 123.278 41.1907 122.168C41.4258 121.932 41.6332 121.682 41.7991 121.404C41.8821 121.266 42.0895 121.266 42.1586 121.418C43.1403 123.445 46.3344 124.569 48.3532 123.653C49.0722 123.32 49.6806 122.723 49.9848 122.001C50.3581 121.113 50.289 120.1 49.971 119.198C49.9215 119.058 49.8677 118.921 49.8098 118.785C51.7395 118.862 53.8042 118.906 55.9995 118.906C58.195 118.906 60.2596 118.862 62.1894 118.785C62.1315 118.921 62.0777 119.058 62.0282 119.198C61.7102 120.1 61.6411 121.113 62.0144 122.001C62.3186 122.723 62.927 123.32 63.646 123.653C65.6648 124.569 68.8589 123.445 69.8406 121.418C69.9097 121.266 70.1171 121.266 70.2001 121.404C70.366 121.682 70.5734 121.932 70.8085 122.168C71.9423 123.278 73.5877 123.75 75.1226 123.93C76.9201 124.153 78.8697 123.875 80.1003 122.404C81.0129 121.307 81.4139 119.808 81.1097 118.406C80.9681 117.759 80.6834 117.202 80.3073 116.713C81.1588 116.527 81.5936 116.408 81.5936 116.408C89.1068 113.925 93.9516 108.892 96.974 102.668C98.2468 103.746 99.7714 104.098 101.519 102.861C101.657 102.764 101.864 102.806 101.933 102.972C102.722 104.748 106.641 113.181 109.422 110.085C109.864 109.6 110.277 108.827 110.644 107.691C112.083 103.25 112.083 97.9341 111.972 93.34C111.668 79.6131 107.229 66.2609 99.7348 54.8242C99.6001 54.6202 99.4617 54.4091 99.3196 54.1923L99.315 54.1853L99.3145 54.1846C98.9373 53.6093 98.5339 52.9938 98.1034 52.3653C97.8731 51.4253 97.7299 50.9102 97.7299 50.9102C96.8566 47.7379 95.9456 44.7628 95.0041 41.9729C96.9203 40.5436 98.1447 38.3159 98.1447 35.6428C98.1447 30.9238 94.3285 28.4949 89.6272 28.4949L89.5994 28.4949Z" fill="#FFA17D"/>
</g>
<defs>
<clipPath id="clip0_1092_17384">
<rect width="112" height="124" fill="white"/>
</clipPath>
</defs>
</svg>
