<svg width="48" height="46" viewBox="0 0 48 46" fill="none" xmlns="http://www.w3.org/2000/svg">
<g clip-path="url(#clip0_247_6445)">
<path d="M24 0C12.8231 0 3.51189 7.98469 1.45595 18.5606C2.52282 17.2903 4.1222 16.4813 5.90626 16.4813H20.4591C19.2075 15.4547 18.4069 13.8966 18.4069 12.1556C18.4069 9.07125 20.9156 6.5625 24 6.5625C27.0844 6.5625 29.5931 9.07125 29.5931 12.1556C29.5931 13.8966 28.7925 15.4547 27.5409 16.4813H42.0938C43.8788 16.4813 45.4772 17.2903 46.5441 18.5606C44.4881 7.98469 35.1769 0 24 0Z" fill="#FFF3DE"/>
<path d="M19.2019 9.28125L19.2291 9.23625C20.2556 7.56187 22.0397 6.5625 24 6.5625C25.9603 6.5625 27.7444 7.56187 28.771 9.23625L28.7981 9.28125H31.9003C30.7266 6.05438 27.6319 3.75 23.9991 3.75C20.3663 3.75 17.2725 6.05438 16.0978 9.28125H19.2H19.2019Z" fill="white"/>
<path d="M42.0938 28.1063H5.90625C3.9675 28.1063 2.24907 27.1509 1.1925 25.6884C2.53782 37.0922 12.2353 45.9384 24 45.9384C35.7647 45.9384 45.4622 37.0922 46.8075 25.6884C45.7509 27.1519 44.0325 28.1072 42.0938 28.1072V28.1063Z" fill="#FEDF30"/>
<path d="M9.77813 37.02V30.5897C9.77813 30.3309 9.98813 30.1209 10.2469 30.1209H9.46875C9.21 30.1209 9 30.3309 9 30.5897V37.02C9 37.5375 9.42 37.9575 9.9375 37.9575H10.7156C10.1981 37.9575 9.77813 37.5375 9.77813 37.02Z" fill="#FAC600"/>
<path d="M36.3469 34.7691V30.5897C36.3469 30.3309 36.5569 30.1209 36.8156 30.1209H36.0375C35.7788 30.1209 35.5688 30.3309 35.5688 30.5897V34.7691C35.5688 35.0278 35.7788 35.2378 36.0375 35.2378H36.8156C36.5569 35.2378 36.3469 35.0278 36.3469 34.7691Z" fill="#FAC600"/>
<path d="M36.3469 37.4888V36.1753C36.3469 35.9166 36.5569 35.7066 36.8156 35.7066H36.0375C35.7788 35.7066 35.5688 35.9166 35.5688 36.1753V37.4888C35.5688 37.7475 35.7788 37.9575 36.0375 37.9575H36.8156C36.5569 37.9575 36.3469 37.7475 36.3469 37.4888Z" fill="#FAC600"/>
<path d="M18.9769 36.0778C19.6012 36.1369 20.1281 35.6447 20.1281 35.0325V30.5897C20.1281 30.3309 20.3381 30.1209 20.5969 30.1209H19.8187C19.56 30.1209 19.35 30.3309 19.35 30.5897V35.0325C19.35 35.4741 19.0753 35.8509 18.6891 36.0066C18.7791 36.0441 18.8756 36.0684 18.9778 36.0778H18.9769Z" fill="#FAC600"/>
<path d="M16.1531 34.9706V30.5897C16.1531 30.3309 16.3631 30.1209 16.6219 30.1209H15.8438C15.585 30.1209 15.375 30.3309 15.375 30.5897V34.9706C15.375 36.5625 16.6209 37.9088 18.2109 37.9566C18.3731 37.9613 18.5325 37.9528 18.6881 37.9313C17.2444 37.7353 16.1531 36.4603 16.1531 34.9706Z" fill="#FAC600"/>
<path d="M31.1906 32.8397L33.2756 30.2925C33.3647 30.1838 33.4978 30.1209 33.6384 30.1209H32.8603C32.7197 30.1209 32.5866 30.1838 32.4975 30.2925L31.1916 31.8881V32.8388L31.1906 32.8397Z" fill="#FAC600"/>
<path d="M33.6122 37.7175L31.9913 34.8206L31.5291 35.385L32.8341 37.7166C32.9166 37.8647 33.0731 37.9566 33.2428 37.9566H34.0209C33.8513 37.9566 33.6947 37.8647 33.6122 37.7166V37.7175Z" fill="#FAC600"/>
<path d="M29.3156 37.4888V30.5897C29.3156 30.3309 29.5256 30.1209 29.7844 30.1209H29.0063C28.7475 30.1209 28.5375 30.3309 28.5375 30.5897V37.4888C28.5375 37.7475 28.7475 37.9575 29.0063 37.9575H29.7844C29.5256 37.9575 29.3156 37.7475 29.3156 37.4888Z" fill="#FAC600"/>
<path d="M22.6219 34.5506V33.5288C22.6219 31.6472 24.1472 30.1209 26.0288 30.1209H25.2506C23.3691 30.1209 21.8428 31.6463 21.8428 33.5288V34.5506C21.8428 36.4322 23.3681 37.9584 25.2506 37.9584H26.0288C24.1472 37.9584 22.6209 36.4331 22.6209 34.5506H22.6219Z" fill="#FAC600"/>
<path d="M18.4069 12.1556C18.4069 11.0663 18.7209 10.0491 19.2628 9.1875H11.9062C8.11594 9.1875 5.01562 12.2878 5.01562 16.0781C5.01562 16.2356 5.02312 16.3913 5.03344 16.5469C5.31844 16.5037 5.61 16.4813 5.90625 16.4813H20.4591C19.2075 15.4547 18.4069 13.8966 18.4069 12.1556Z" fill="#FED402"/>
<path d="M36.0938 9.1875H28.7372C29.2781 10.0481 29.5931 11.0653 29.5931 12.1556C29.5931 13.8966 28.7925 15.4547 27.5409 16.4813H42.0938C42.39 16.4813 42.6816 16.5037 42.9666 16.5469C42.9769 16.3922 42.9844 16.2356 42.9844 16.0781C42.9844 12.2878 39.8831 9.1875 36.0938 9.1875Z" fill="#FED402"/>
<path d="M5.90625 16.4813H11.5444C11.5369 16.3481 11.5312 16.2141 11.5312 16.0781C11.5312 12.2878 14.6316 9.1875 18.4219 9.1875H11.9062C8.11594 9.1875 5.01562 12.2878 5.01562 16.0781C5.01562 16.2356 5.02312 16.3913 5.03344 16.5469C5.31844 16.5037 5.61 16.4813 5.90625 16.4813Z" fill="#FAC600"/>
<path d="M15.1594 36.0825H11.6541V30.5897C11.6541 30.3309 11.4441 30.1209 11.1853 30.1209H10.2478C9.98907 30.1209 9.77907 30.3309 9.77907 30.5897V37.02C9.77907 37.5375 10.1991 37.9575 10.7166 37.9575H15.1594C15.4181 37.9575 15.6281 37.7475 15.6281 37.4888V36.5513C15.6281 36.2925 15.4181 36.0825 15.1594 36.0825Z" fill="#0ED290"/>
<path d="M37.7531 30.1209H36.8156C36.5569 30.1209 36.3469 30.3309 36.3469 30.5897V34.7691C36.3469 35.0278 36.5569 35.2378 36.8156 35.2378H37.7531C38.0119 35.2378 38.2219 35.0278 38.2219 34.7691V30.5897C38.2219 30.3309 38.0119 30.1209 37.7531 30.1209Z" fill="#0ED290"/>
<path d="M37.7531 35.7066H36.8156C36.5569 35.7066 36.3469 35.9166 36.3469 36.1753V37.4888C36.3469 37.7475 36.5569 37.9575 36.8156 37.9575H37.7531C38.0119 37.9575 38.2219 37.7475 38.2219 37.4888V36.1753C38.2219 35.9166 38.0119 35.7066 37.7531 35.7066Z" fill="#0ED290"/>
<path d="M21.5344 30.1209H20.5969C20.3381 30.1209 20.1281 30.3309 20.1281 30.5897V35.0325C20.1281 35.6447 19.6013 36.1359 18.9769 36.0778C18.4331 36.0263 18.0281 35.5481 18.0281 35.0025V30.5897C18.0281 30.3309 17.8181 30.1209 17.5594 30.1209H16.6219C16.3631 30.1209 16.1531 30.3309 16.1531 30.5897V34.9706C16.1531 36.5625 17.3991 37.9088 18.9891 37.9566C20.6419 38.0053 22.0022 36.675 22.0022 35.0334V30.5906C22.0022 30.3319 21.7922 30.1219 21.5334 30.1219L21.5344 30.1209Z" fill="#0ED290"/>
<path d="M33.2672 33.2625L35.2116 30.8869C35.4619 30.5813 35.2444 30.1209 34.8488 30.1209H33.6375C33.4969 30.1209 33.3638 30.1838 33.2747 30.2925L31.1897 32.8397V30.5897C31.1897 30.3309 30.9797 30.1209 30.7209 30.1209H29.7834C29.5247 30.1209 29.3147 30.3309 29.3147 30.5897V37.4888C29.3147 37.7475 29.5247 37.9575 29.7834 37.9575H30.7209C30.9797 37.9575 31.1897 37.7475 31.1897 37.4888V35.7994L31.9903 34.8206L33.6113 37.7175C33.6938 37.8656 33.8503 37.9575 34.02 37.9575H35.0944C35.4525 37.9575 35.6784 37.5722 35.5031 37.26L33.2663 33.2625H33.2672Z" fill="#0ED290"/>
<path d="M28.0031 30.1209H26.0297C24.1481 30.1209 22.6219 31.6463 22.6219 33.5288V34.5506C22.6219 36.4322 24.1472 37.9584 26.0297 37.9584H28.0031C28.2619 37.9584 28.4719 37.7484 28.4719 37.4897V36.5522C28.4719 36.2934 28.2619 36.0834 28.0031 36.0834H26.0297C25.1831 36.0834 24.4978 35.3972 24.4978 34.5516V33.5297C24.4978 32.6831 25.1841 31.9969 26.0306 31.9969H28.0041C28.2628 31.9969 28.4728 31.7869 28.4728 31.5281V30.5906C28.4728 30.3319 28.2628 30.1219 28.0041 30.1219L28.0031 30.1209Z" fill="#0ED290"/>
<path d="M42.0938 16.3875H27.6506C26.67 17.235 25.3941 17.7488 24 17.7488C22.6059 17.7488 21.33 17.235 20.3494 16.3875H5.90625C2.64469 16.3875 0 19.0313 0 22.2938C0 25.5563 2.64469 28.2 5.90625 28.2H42.0938C45.3553 28.2 48 25.5553 48 22.2938C48 19.0322 45.3553 16.3875 42.0938 16.3875Z" fill="#05E39C"/>
<path d="M5.25 22.2938C5.25 19.0322 7.89469 16.3875 11.1562 16.3875H5.90625C2.64469 16.3875 0 19.0313 0 22.2938C0 25.5563 2.64469 28.2 5.90625 28.2H11.1562C7.89469 28.2 5.25 25.5553 5.25 22.2938Z" fill="#0ED290"/>
<path d="M13.5984 21.2381H12.8053C12.5466 21.2381 12.3366 21.4481 12.3366 21.7069V22.6444C12.3366 22.9031 12.5466 23.1131 12.8053 23.1131H13.4934V24.3366H14.2866V23.1131H13.5984C13.3397 23.1131 13.1297 22.9031 13.1297 22.6444V21.7069C13.1297 21.4481 13.3397 21.2381 13.5984 21.2381Z" fill="#00C285"/>
<path d="M10.3125 23.5734V21.0141C10.3125 19.5572 11.4938 18.375 12.9516 18.375H12.1584C10.7016 18.375 9.51938 19.5562 9.51938 21.0141V23.5734C9.51938 25.0312 10.7006 26.2125 12.1584 26.2125H12.9516C11.4947 26.2125 10.3125 25.0312 10.3125 23.5734Z" fill="#00C285"/>
<path d="M17.4319 23.8678V20.7188C17.4319 19.4259 18.4828 18.375 19.7756 18.375H18.9825C17.6897 18.375 16.6387 19.4259 16.6387 20.7188V23.8678C16.6387 25.1606 17.6897 26.2116 18.9825 26.2116H19.7756C18.4828 26.2116 17.4319 25.1606 17.4319 23.8678Z" fill="#00C285"/>
<path d="M20.1441 24.3366H20.9372C21.1959 24.3366 21.4059 24.1266 21.4059 23.8678V20.7188C21.4059 20.46 21.1959 20.25 20.9372 20.25H20.1441C20.4028 20.25 20.6128 20.46 20.6128 20.7188V23.8678C20.6128 24.1266 20.4028 24.3366 20.1441 24.3366Z" fill="#00C285"/>
<path d="M27.2634 24.3366H28.0566C28.3153 24.3366 28.5253 24.1266 28.5253 23.8678V20.7188C28.5253 20.46 28.3153 20.25 28.0566 20.25H27.2634C27.5222 20.25 27.7322 20.46 27.7322 20.7188V23.8678C27.7322 24.1266 27.5222 24.3366 27.2634 24.3366Z" fill="#00C285"/>
<path d="M24.5513 23.8678V20.7188C24.5513 19.4259 25.6022 18.375 26.895 18.375H26.1019C24.8091 18.375 23.7581 19.4259 23.7581 20.7188V23.8678C23.7581 25.1606 24.8091 26.2116 26.1019 26.2116H26.895C25.6022 26.2116 24.5513 25.1606 24.5513 23.8678Z" fill="#00C285"/>
<path d="M33.9216 24.3366H34.7147C35.7572 24.3366 36.6056 23.4881 36.6056 22.4456V22.1409C36.6056 21.0984 35.7572 20.25 34.7147 20.25H33.9216C34.9641 20.25 35.8125 21.0984 35.8125 22.1409V22.4456C35.8125 23.4881 34.9641 24.3366 33.9216 24.3366Z" fill="#00C285"/>
<path d="M31.6875 25.2741V19.3125C31.6875 18.795 32.1075 18.375 32.625 18.375H31.8319C31.3144 18.375 30.8944 18.795 30.8944 19.3125V25.2741C30.8944 25.7916 31.3144 26.2116 31.8319 26.2116H32.625C32.1075 26.2116 31.6875 25.7916 31.6875 25.2741Z" fill="#00C285"/>
<path d="M15.2241 26.2116H12.9506C11.4938 26.2116 10.3116 25.0303 10.3116 23.5725V21.0131C10.3116 19.5562 11.4928 18.3741 12.9506 18.3741H15.6928C15.9516 18.3741 16.1616 18.5841 16.1616 18.8428V19.7803C16.1616 20.0391 15.9516 20.2491 15.6928 20.2491H12.9506C12.5288 20.2491 12.1866 20.5912 12.1866 21.0131V23.5725C12.1866 23.9944 12.5288 24.3366 12.9506 24.3366H14.2866V23.1131H13.5984C13.3397 23.1131 13.1297 22.9031 13.1297 22.6444V21.7069C13.1297 21.4481 13.3397 21.2381 13.5984 21.2381H15.2241C15.7416 21.2381 16.1616 21.6581 16.1616 22.1756V25.2741C16.1616 25.7916 15.7416 26.2116 15.2241 26.2116Z" fill="white"/>
<path d="M20.9372 26.2116H19.7756C18.4828 26.2116 17.4319 25.1606 17.4319 23.8678V20.7188C17.4319 19.4259 18.4828 18.375 19.7756 18.375H20.9372C22.23 18.375 23.2809 19.4259 23.2809 20.7188V23.8678C23.2809 25.1606 22.23 26.2116 20.9372 26.2116ZM19.7756 20.25C19.5169 20.25 19.3069 20.46 19.3069 20.7188V23.8678C19.3069 24.1266 19.5169 24.3366 19.7756 24.3366H20.9372C21.1959 24.3366 21.4059 24.1266 21.4059 23.8678V20.7188C21.4059 20.46 21.1959 20.25 20.9372 20.25H19.7756Z" fill="white"/>
<path d="M28.0566 26.2116H26.895C25.6022 26.2116 24.5513 25.1606 24.5513 23.8678V20.7188C24.5513 19.4259 25.6022 18.375 26.895 18.375H28.0566C29.3494 18.375 30.4003 19.4259 30.4003 20.7188V23.8678C30.4003 25.1606 29.3494 26.2116 28.0566 26.2116ZM26.895 20.25C26.6363 20.25 26.4263 20.46 26.4263 20.7188V23.8678C26.4263 24.1266 26.6363 24.3366 26.895 24.3366H28.0566C28.3153 24.3366 28.5253 24.1266 28.5253 23.8678V20.7188C28.5253 20.46 28.3153 20.25 28.0566 20.25H26.895Z" fill="white"/>
<path d="M34.7147 26.2116H32.625C32.1075 26.2116 31.6875 25.7916 31.6875 25.2741V19.3125C31.6875 18.795 32.1075 18.375 32.625 18.375H34.7147C36.7913 18.375 38.4806 20.0644 38.4806 22.1409V22.4456C38.4806 24.5222 36.7913 26.2116 34.7147 26.2116ZM33.5625 24.3366H34.7147C35.7572 24.3366 36.6056 23.4881 36.6056 22.4456V22.1409C36.6056 21.0984 35.7572 20.25 34.7147 20.25H33.5625V24.3366Z" fill="white"/>
<path d="M24 17.8425C27.1408 17.8425 29.6869 15.2964 29.6869 12.1556C29.6869 9.01485 27.1408 6.46875 24 6.46875C20.8592 6.46875 18.3131 9.01485 18.3131 12.1556C18.3131 15.2964 20.8592 17.8425 24 17.8425Z" fill="#FE76A8"/>
<path d="M21.2766 12.1556C21.2766 9.52781 23.0597 7.31719 25.4812 6.66469C25.0087 6.53719 24.5128 6.46875 24 6.46875C20.8594 6.46875 18.3131 9.015 18.3131 12.1556C18.3131 15.2963 20.8594 17.8425 24 17.8425C24.5128 17.8425 25.0087 17.7731 25.4812 17.6466C23.0597 16.9941 21.2766 14.7844 21.2766 12.1556Z" fill="#FE5694"/>
<path d="M24.315 8.58844L25.1906 10.3631C25.2422 10.4672 25.3406 10.5384 25.455 10.5553L27.4134 10.8403C27.7012 10.8825 27.8166 11.2359 27.6084 11.4394L26.1909 12.8213C26.1084 12.9019 26.07 13.0181 26.0897 13.1325L26.4244 15.0834C26.4731 15.3703 26.1722 15.5888 25.9153 15.4538L24.1631 14.5331C24.0609 14.4797 23.9381 14.4797 23.8359 14.5331L22.0837 15.4538C21.8259 15.5897 21.525 15.3703 21.5747 15.0834L21.9094 13.1325C21.9291 13.0191 21.8916 12.9019 21.8081 12.8213L20.3906 11.4394C20.1825 11.2359 20.2969 10.8825 20.5856 10.8403L22.5441 10.5553C22.6584 10.5384 22.7569 10.4672 22.8084 10.3631L23.6841 8.58844C23.8125 8.32782 24.1847 8.32782 24.3141 8.58844H24.315Z" fill="white"/>
<path d="M23.3222 14.4094L23.6569 12.4584C23.6766 12.345 23.6391 12.2278 23.5556 12.1472L22.1381 10.7653C22.0959 10.7241 22.0678 10.6762 22.0509 10.6266L20.5866 10.8394C20.2987 10.8816 20.1834 11.235 20.3916 11.4384L21.8091 12.8203C21.8916 12.9009 21.93 13.0172 21.9103 13.1316L21.5756 15.0825C21.5269 15.3694 21.8278 15.5878 22.0847 15.4528L23.4441 14.7384C23.3541 14.6634 23.2987 14.5444 23.3222 14.4094Z" fill="#F5F8F9"/>
<path d="M5.34376 25.575C5.23032 25.575 5.13094 25.4991 5.10001 25.3894C4.56376 23.4469 4.19063 23.0728 2.24719 22.5366C2.13751 22.5066 2.06157 22.4072 2.06157 22.2928C2.06157 22.1784 2.13751 22.08 2.24719 22.0491C4.18969 21.5128 4.56376 21.1387 5.10001 19.1962C5.13001 19.0866 5.22938 19.0106 5.34376 19.0106C5.45813 19.0106 5.55657 19.0866 5.58751 19.1962C6.12376 21.1387 6.49688 21.5128 8.44032 22.0491C8.55001 22.0791 8.62501 22.1784 8.62501 22.2928C8.62501 22.4072 8.54907 22.5056 8.44032 22.5366C6.49782 23.0728 6.12376 23.4469 5.58751 25.3894C5.55751 25.4991 5.45813 25.575 5.34376 25.575Z" fill="#FEDF30"/>
<path d="M3.93 21.3778C3.54469 21.6487 3.02062 21.8362 2.24812 22.05C2.13844 22.08 2.0625 22.1794 2.0625 22.2937C2.0625 22.4081 2.13844 22.5066 2.24812 22.5375C4.19156 23.0737 4.56469 23.4478 5.10094 25.3903C5.13094 25.5 5.23031 25.5759 5.34469 25.5759C5.45906 25.5759 5.5575 25.5 5.58844 25.3903C5.79188 24.6525 5.97281 24.1406 6.225 23.7609C5.77781 22.2581 5.37281 21.8241 3.93187 21.3787L3.93 21.3778Z" fill="#FED402"/>
<path d="M42.6563 25.575C42.5428 25.575 42.4434 25.4991 42.4125 25.3894C41.8763 23.4469 41.5031 23.0728 39.5597 22.5366C39.45 22.5066 39.3741 22.4072 39.3741 22.2928C39.3741 22.1784 39.45 22.08 39.5597 22.0491C41.5031 21.5128 41.8763 21.1387 42.4125 19.1962C42.4425 19.0866 42.5419 19.0106 42.6563 19.0106C42.7706 19.0106 42.8691 19.0866 42.9 19.1962C43.4363 21.1387 43.8094 21.5128 45.7528 22.0491C45.8625 22.0791 45.9384 22.1784 45.9384 22.2928C45.9384 22.4072 45.8625 22.5056 45.7528 22.5366C43.8094 23.0728 43.4363 23.4469 42.9 25.3894C42.87 25.4991 42.7706 25.575 42.6563 25.575Z" fill="#FEDF30"/>
<path d="M41.2425 21.3778C40.8572 21.6487 40.3331 21.8362 39.5606 22.05C39.4509 22.08 39.375 22.1794 39.375 22.2937C39.375 22.4081 39.4509 22.5066 39.5606 22.5375C41.5041 23.0737 41.8772 23.4478 42.4134 25.3903C42.4434 25.5 42.5428 25.5759 42.6572 25.5759C42.7716 25.5759 42.87 25.5 42.9009 25.3903C43.1044 24.6525 43.2853 24.1406 43.5375 23.7609C43.0903 22.2581 42.6853 21.8241 41.2444 21.3787L41.2425 21.3778Z" fill="#FED402"/>
<path d="M10.1719 14.625C10.8709 14.625 11.4375 14.0584 11.4375 13.3594C11.4375 12.6604 10.8709 12.0938 10.1719 12.0938C9.47289 12.0938 8.90625 12.6604 8.90625 13.3594C8.90625 14.0584 9.47289 14.625 10.1719 14.625Z" fill="white"/>
<path d="M14.8594 14.625C15.5584 14.625 16.125 14.0584 16.125 13.3594C16.125 12.6604 15.5584 12.0938 14.8594 12.0938C14.1604 12.0938 13.5938 12.6604 13.5938 13.3594C13.5938 14.0584 14.1604 14.625 14.8594 14.625Z" fill="white"/>
<path d="M33.1406 14.625C33.8396 14.625 34.4062 14.0584 34.4062 13.3594C34.4062 12.6604 33.8396 12.0938 33.1406 12.0938C32.4416 12.0938 31.875 12.6604 31.875 13.3594C31.875 14.0584 32.4416 14.625 33.1406 14.625Z" fill="white"/>
<path d="M37.8281 14.625C38.5271 14.625 39.0938 14.0584 39.0938 13.3594C39.0938 12.6604 38.5271 12.0938 37.8281 12.0938C37.1291 12.0938 36.5625 12.6604 36.5625 13.3594C36.5625 14.0584 37.1291 14.625 37.8281 14.625Z" fill="white"/>
</g>
<defs>
<clipPath id="clip0_247_6445">
<rect width="48" height="45.9375" fill="white"/>
</clipPath>
</defs>
</svg>
