<svg width="24" height="24" viewBox="0 0 24 24" fill="none" xmlns="http://www.w3.org/2000/svg">
<path d="M4.21967 5.71967C4.07902 5.86032 4 6.05109 4 6.25C4 6.44891 4.07902 6.63968 4.21967 6.78033C4.36032 6.92098 4.55109 7 4.75 7H19.25C19.4489 7 19.6397 6.92098 19.7803 6.78033C19.921 6.63968 20 6.44891 20 6.25C20 6.05109 19.921 5.86032 19.7803 5.71967C19.6397 5.57902 19.4489 5.5 19.25 5.5H4.75C4.55109 5.5 4.36032 5.57902 4.21967 5.71967Z" fill="#3563E9"/>
<path d="M4.21967 11.4697C4.07902 11.6103 4 11.8011 4 12C4 12.1989 4.07902 12.3897 4.21967 12.5303C4.36032 12.671 4.55109 12.75 4.75 12.75H19.25C19.4489 12.75 19.6397 12.671 19.7803 12.5303C19.921 12.3897 20 12.1989 20 12C20 11.8011 19.921 11.6103 19.7803 11.4697C19.6397 11.329 19.4489 11.25 19.25 11.25H4.75C4.55109 11.25 4.36032 11.329 4.21967 11.4697Z" fill="#3563E9"/>
<path d="M4.21967 17.2197C4.07902 17.3603 4 17.5511 4 17.75C4 17.9489 4.07902 18.1397 4.21967 18.2803C4.36032 18.421 4.55109 18.5 4.75 18.5H19.25C19.4489 18.5 19.6397 18.421 19.7803 18.2803C19.921 18.1397 20 17.9489 20 17.75C20 17.5511 19.921 17.3603 19.7803 17.2197C19.6397 17.079 19.4489 17 19.25 17H4.75C4.55109 17 4.36032 17.079 4.21967 17.2197Z" fill="#3563E9"/>
</svg>
