<svg width="70" height="77" viewBox="0 0 70 77" fill="none" xmlns="http://www.w3.org/2000/svg">
<path d="M61.0741 31.6135C53.3675 3.7914 40.961 0.404135 36.5893 0.111089C35.0428 -0.138861 33.4186 0.111089 33.4186 0.111089C29.0383 0.404135 16.6317 3.7914 8.92517 31.6135C8.92517 31.6135 -0.63891 65.8395 19.0076 72.2865C19.0076 72.2865 24.7012 73.8379 34.9996 73.8379C45.2981 73.8379 50.9916 72.2865 50.9916 72.2865C70.6468 65.8309 61.0741 31.6135 61.0741 31.6135Z" fill="#D0E184"/>
<path d="M58.5782 52.7128C58.5782 52.7128 58.4918 24.8562 35.0006 24.8562C11.5094 24.8562 11.4316 52.7128 11.4316 52.7128C11.4316 72.3296 29.0479 73.7776 33.8256 73.8034L35.0092 73.8293L36.1842 73.8034C40.9533 73.7776 58.5782 72.3468 58.5782 52.7128Z" fill="#EDF3D2"/>
<path d="M56.8049 61.9871C56.4507 61.4097 55.9237 60.9184 55.2152 60.5736C53.9625 59.9617 52.4246 60.1082 51.241 60.8063C48.3726 62.5043 49.4094 65.9088 50.6708 68.3307C50.8263 68.6237 50.9991 68.8996 51.1891 69.1323C53.4527 67.4429 55.4658 65.1417 56.8049 61.9871Z" fill="#E3EDB5"/>
<path d="M17.4012 36.1906C17.5221 36.949 17.9455 37.7592 18.3083 38.2936C18.8008 39.009 19.3624 39.7071 20.1054 40.1639C21.7901 41.1896 24.3474 40.2846 23.9155 38.035C23.6649 36.7335 22.8096 35.57 21.6692 34.8805C20.7534 34.3289 19.3365 33.941 18.2997 34.3806C17.4703 34.7339 17.2889 35.4407 17.4012 36.1906Z" fill="#E3EDB5"/>
<path d="M29.5988 33.3376C30.7997 33.148 32.113 33.6393 32.5536 34.8459C32.83 35.613 32.7177 36.4835 32.3549 37.2162C31.9488 38.0436 31.249 38.7503 30.4801 39.2416C28.9422 40.2242 26.8514 40.0949 26.3849 38.0436C25.9011 35.9061 27.4735 33.6737 29.5988 33.3376Z" fill="#E3EDB5"/>
<path d="M37.939 30.084C36.2715 30.4891 35.5545 32.9714 35.8223 34.4453C36.2456 36.7207 39.1831 38.41 41.0925 36.6C42.2934 35.4709 41.7577 33.6954 41.0925 32.4284C40.5309 31.351 39.3732 29.7393 37.939 30.084Z" fill="#E3EDB5"/>
<path d="M45.6608 36.3371C45.5053 36.6474 45.4362 37.0008 45.5053 37.3886C45.7127 38.5522 47.0777 39.845 47.9762 40.5518C49.0735 41.4223 50.4558 41.8877 51.7345 41.0862C52.4602 40.6294 52.9527 39.7761 52.8749 38.9228C52.7712 37.742 51.6826 36.3802 50.8532 35.5872C50.3867 35.1477 49.8078 34.7943 49.1772 34.7081C48.0367 34.553 46.231 35.1994 45.6608 36.3371Z" fill="#E3EDB5"/>
<path d="M43.5088 41.7068C42.0919 41.1121 40.3985 41.3965 39.2495 42.4738C38.135 43.5081 37.6943 45.4905 38.7311 46.7316C39.1717 47.2574 39.8197 47.5763 40.4763 47.7745C41.7982 48.1882 43.552 48.3779 44.822 47.7314C45.2022 47.5418 45.5478 47.266 45.7724 46.9126C46.1439 46.3265 46.1698 45.5681 45.997 44.8958C45.6946 43.7495 45.1417 42.6893 44.1222 42.0257C43.9322 41.8964 43.7248 41.793 43.5088 41.7068Z" fill="#E3EDB5"/>
<path d="M30.3681 43.4821C31.3703 43.2149 32.3811 43.4045 33.1846 44.3182C33.6857 44.8956 33.8758 45.6886 33.8499 46.447C33.7548 49.1879 30.9642 51.2564 28.2946 50.6273C27.5429 50.4463 26.7913 50.0239 26.4803 49.3172C26.2297 48.7569 26.2902 48.1019 26.4457 47.5158C26.9382 45.6972 28.5106 43.9734 30.3681 43.4821Z" fill="#E3EDB5"/>
<path d="M16.8394 44.8698C16.9604 44.7147 17.1073 44.5854 17.2714 44.4734C18.792 43.4477 21.0556 44.2579 22.317 45.3353C24.4941 47.197 24.3732 50.9204 21.142 51.5323C20.7186 51.6099 20.2694 51.6099 19.8719 51.4461C19.2499 51.1876 18.8525 50.5928 18.576 49.9809C18.3082 49.3689 18.1267 48.7139 17.7725 48.1537C17.2973 47.3952 16.4766 46.7488 16.4766 45.8524C16.4766 45.4904 16.6234 45.1456 16.8394 44.8698Z" fill="#E3EDB5"/>
<path d="M26.2641 54.523C26.4455 54.5316 26.6269 54.5488 26.817 54.5919C28.8646 55.0143 30.4802 57.6172 29.1152 59.4961C28.6141 60.1857 27.7674 60.5821 26.912 60.6942C25.5643 60.8752 23.6203 60.6597 22.9896 59.2462C22.4194 57.9706 23.2661 56.2554 24.1906 55.3418C24.7608 54.7815 25.4951 54.5057 26.2641 54.523Z" fill="#E3EDB5"/>
<path d="M39.2576 61.8492C39.2922 61.8319 39.3267 61.8233 39.3613 61.8061C40.2166 61.401 40.8386 60.5908 41.1756 59.7031C42.3074 56.7554 40.951 53.144 37.9876 51.8512C37.0631 51.4461 35.8104 51.515 35.2056 52.42C34.9032 52.8768 34.7823 53.4284 34.7045 53.9714C34.4194 56.1003 34.8082 58.3154 35.7931 60.2202C36.5015 61.5561 37.7284 62.5128 39.2576 61.8492Z" fill="#E3EDB5"/>
<path d="M51.5436 49.1965C50.6537 49.2482 49.7379 49.5326 48.9258 49.8515C47.889 50.2566 46.9214 50.9289 46.3771 51.8942C45.8242 52.8595 45.7723 54.1438 46.4117 55.0488C47.2152 56.1778 48.7876 56.4278 50.1699 56.3502C51.6732 56.2727 53.2543 55.8848 54.3169 54.816C55.7425 53.3767 55.5351 51.1185 53.9714 49.886C53.2456 49.3171 52.4076 49.1534 51.5436 49.1965Z" fill="#E3EDB5"/>
<path d="M33.3313 68.7875C33.3918 69.0116 33.409 69.2443 33.3399 69.4684C33.1844 70.0114 32.6142 70.3131 32.0699 70.4682C30.4629 70.9164 27.8019 70.6406 27.0157 68.9168C26.7306 68.2962 26.7652 67.5464 27.1107 66.9603C27.7155 65.9088 29.0547 65.6761 30.1605 65.8915C31.5774 66.1674 32.7092 67.1327 33.2276 68.4772C33.2708 68.5807 33.3054 68.6841 33.3313 68.7875Z" fill="#E3EDB5"/>
<path d="M43.0082 30.1313C43.924 30.6743 45.5915 30.7087 46.4295 29.9934C46.9306 29.571 47.2157 28.8126 47.2416 28.0972C45.9111 27.218 44.4251 26.4768 42.7663 25.908C42.1615 26.382 41.7814 27.1232 41.7641 27.8903C41.7468 28.7867 42.2393 29.6745 43.0082 30.1313Z" fill="#E3EDB5"/>
<path d="M25.5136 30.7347C27.0428 31.769 29.9198 30.7519 30.2135 28.8557C30.369 27.8215 29.747 27.0371 29.0126 26.3993C28.9608 26.3476 28.9003 26.3045 28.8485 26.2528C28.5979 26.0373 28.3214 25.8305 28.0363 25.6409C26.4726 26.0977 25.0643 26.7096 23.777 27.4422C23.466 28.7523 24.4077 29.9935 25.5136 30.7347Z" fill="#E3EDB5"/>
<path d="M21.8592 64.2022C21.6346 63.9954 21.3754 63.8316 21.1075 63.6937C19.155 62.6767 16.6495 62.849 14.8179 64.0557C14.6624 64.1591 14.5241 64.2712 14.3945 64.4091C15.4572 66.1156 16.7359 67.5119 18.1355 68.6496C18.8353 68.5117 19.5351 68.3221 20.209 68.0721C20.7879 67.8567 21.3754 67.5895 21.7987 67.1327C22.4294 66.4604 22.7145 65.2796 22.127 64.4953C22.0406 64.3832 21.9542 64.2884 21.8592 64.2022Z" fill="#E3EDB5"/>
<path d="M44.027 72.5541C44.5454 70.9941 44.6231 69.3047 44.3726 67.6585C44.1998 66.5553 43.4568 65.7882 42.2732 66.0381C41.7029 66.1588 41.2018 66.4777 40.7353 66.8225C39.3875 67.8309 38.273 69.1324 37.4695 70.6062C37.2622 70.9941 37.0721 71.3819 36.9079 71.787C36.6747 72.3645 36.4932 73.0109 36.4414 73.6487C38.0743 73.6228 40.9167 73.4246 44.027 72.5541Z" fill="#E3EDB5"/>
<path d="M15.6809 52.2304C15.1366 51.5667 14.0307 50.3428 12.9594 50.1704C12.3115 50.067 11.8363 50.4118 11.4821 50.9375C11.4043 51.9632 11.4043 52.5665 11.4043 52.5665C11.4043 54.7126 11.6116 56.6433 12.0004 58.3757C12.9422 59.5307 14.3331 60.1857 16.0697 59.6858C20.0267 58.5481 17.2361 54.1524 15.6809 52.2304Z" fill="#E3EDB5"/>
<path d="M35.5434 20.9087H34.9991H34.4548C33.1848 20.9087 30.3164 21.2362 30.3164 23.7185C30.3164 24.3304 30.541 24.9251 30.878 25.4337C31.5778 26.5024 33.228 28.683 34.9905 28.683C36.7529 28.683 38.4031 26.5024 39.1029 25.4337C39.4399 24.9251 39.6645 24.3304 39.6645 23.7185C39.6818 21.2276 36.8134 20.9087 35.5434 20.9087Z" fill="#EF8F42"/>
<path d="M31.4844 15.7977C31.4412 15.7977 31.398 15.7632 31.398 15.7115C31.277 13.0482 29.0739 10.928 26.3783 10.928C23.6828 10.928 21.4797 13.0482 21.3587 15.7115C21.3587 15.7546 21.3155 15.7977 21.2723 15.7977H20.3824C20.2788 15.7977 20.201 15.8925 20.2096 15.9959L20.3392 16.9354C20.3479 17.0216 20.4256 17.0819 20.512 17.0819H21.4883H31.2857H32.2619C32.3483 17.0819 32.4175 17.0216 32.4347 16.9354L32.5643 15.9959C32.5816 15.8925 32.4952 15.7977 32.3915 15.7977H31.4844Z" fill="#B6C45C"/>
<path d="M29.9282 17.082H22.835H21.5391C21.5391 19.7453 23.7163 21.9173 26.3859 21.9173C29.0556 21.9173 31.2327 19.7453 31.2327 17.082H29.9282Z" fill="#FFFCFD"/>
<path d="M26.3782 20.6156C28.3394 20.6156 29.9291 19.0298 29.9291 17.0732H22.8359C22.8359 19.0384 24.417 20.6156 26.3782 20.6156Z" fill="#5D5A3C"/>
<path d="M38.5169 15.7977C38.5601 15.7977 38.6033 15.7632 38.6033 15.7115C38.7242 13.0482 40.9273 10.928 43.6229 10.928C46.3185 10.928 48.5216 13.0482 48.6425 15.7115C48.6425 15.7546 48.6857 15.7977 48.7289 15.7977H49.6188C49.7225 15.7977 49.8003 15.8925 49.7916 15.9959L49.662 16.9354C49.6534 17.0216 49.5756 17.0819 49.4892 17.0819H48.513H38.7242H37.748C37.6616 17.0819 37.5924 17.0216 37.5752 16.9354L37.4456 15.9959C37.4283 15.8925 37.5147 15.7977 37.6184 15.7977H38.5169Z" fill="#B6C45C"/>
<path d="M40.0722 17.082H47.1653H48.4613C48.4613 19.7453 46.2841 21.9173 43.6144 21.9173C40.9448 21.9173 38.7676 19.7453 38.7676 17.082H40.0722Z" fill="#FFFCFD"/>
<path d="M43.6232 20.6156C41.662 20.6156 40.0723 19.0298 40.0723 17.0732H47.1654C47.174 19.0384 45.5844 20.6156 43.6232 20.6156Z" fill="#5D5A3C"/>
<path d="M19.3098 22.1326C19.3098 19.4263 16.9339 17.7025 14.0051 17.6938C12.8387 20.133 11.6983 22.9083 10.627 26.0629C11.5428 26.7438 12.7091 27.1316 13.9878 27.1316C16.9253 27.1316 19.3098 25.0631 19.3098 22.1326Z" fill="#EBF4E1"/>
<path d="M50.6895 22.1326C50.6895 25.0631 53.074 27.1316 56.0115 27.1316C57.2815 27.1316 58.4565 26.7438 59.3723 26.0629C58.301 22.9083 57.1692 20.133 55.9942 17.6938C53.0654 17.7025 50.6895 19.4176 50.6895 22.1326Z" fill="#EBF4E1"/>
<path d="M11.9667 28.9587C12.7961 28.3985 13.7119 28.0624 14.7228 28.1227C17.7467 28.2951 18.8266 31.6737 19.4055 34.1301C21.1248 41.4476 21.6086 49.2047 17.7726 55.9706C16.5803 58.065 14.8783 59.7888 12.3469 58.5908C12.2519 58.5477 12.1395 58.5994 12.105 58.6942C11.7508 59.8923 9.74635 66.1066 6.54969 63.8656C6.46329 63.8053 6.33369 63.8311 6.2905 63.9346C5.72892 65.2016 2.53225 72.0192 0.856162 66.8736C-0.0423609 64.1156 -0.042361 60.8145 0.0267562 57.9616C0.225468 49.4374 2.99879 41.146 7.68148 34.0439C8.73552 32.458 10.1524 30.174 11.9667 28.9587Z" fill="#C5D46F"/>
<path d="M13.5571 55.1519C13.3584 55.1002 13.1597 55.0312 12.9524 54.9278C12.84 54.8761 12.7105 54.8416 12.5895 54.8416C12.218 54.8416 11.881 55.0915 11.7774 55.4535C11.6391 55.9276 11.2504 57.1601 10.6283 58.2719C10.2395 58.9787 9.44467 60.1681 8.57206 60.1681C8.30423 60.1681 8.01049 60.0561 7.7081 59.8492C7.56122 59.7458 7.39707 59.6941 7.21564 59.6941C6.87869 59.6941 6.57631 59.8923 6.43807 60.2026C6.25664 60.6163 5.75554 61.6937 5.13349 62.659C4.13129 64.2104 3.56971 64.0725 3.50923 64.0725C3.31052 64.0725 3.00813 63.8657 2.72303 62.9779C1.93682 60.556 1.92818 57.5824 1.98866 54.9795C2.15281 47.412 4.55463 39.9049 8.93493 33.2769C9.00405 33.1735 9.0818 33.0614 9.15092 32.9494C10.0408 31.5962 11.259 29.7431 12.6932 28.7778C13.3325 28.3468 13.9546 28.1314 14.5853 28.1227C13.6349 28.0969 12.7623 28.433 11.9674 28.9588C10.1445 30.1741 8.72758 32.4581 7.68218 34.0526C2.99949 41.146 0.22617 49.4375 0.0360976 57.9617C-0.0243799 60.8145 -0.0243799 64.1156 0.865503 66.8737C2.54159 72.0192 5.72962 65.2102 6.29984 63.9346C6.34304 63.8312 6.47263 63.8053 6.55903 63.8657C9.75569 66.1152 11.7601 59.9009 12.1143 58.6943C12.1402 58.5908 12.2612 58.5391 12.3562 58.5908C14.8876 59.7889 16.5896 58.0651 17.7819 55.9707C18.715 54.3244 19.3889 52.6179 19.8554 50.8769C17.9202 56.574 13.5571 55.1519 13.5571 55.1519Z" fill="#B6C45C"/>
<path d="M58.0333 28.9587C57.2039 28.3985 56.2881 28.0624 55.2773 28.1227C52.2534 28.2951 51.1734 31.6737 50.5946 34.1301C48.8839 41.4476 48.3915 49.2133 52.2275 55.9706C53.4197 58.065 55.1217 59.7888 57.6532 58.5908C57.7482 58.5477 57.8605 58.5994 57.8951 58.6942C58.2493 59.8923 60.2537 66.1066 63.4503 63.8656C63.5367 63.8053 63.6663 63.8311 63.7095 63.9346C64.2711 65.2016 67.4678 72.0192 69.1439 66.8736C70.0424 64.1156 70.0424 60.8145 69.9733 57.9616C69.7832 49.4374 67.0099 41.146 62.3272 34.0439C61.2732 32.458 59.8563 30.174 58.0333 28.9587Z" fill="#C5D46F"/>
<path d="M56.4428 55.1519C56.6415 55.1002 56.8403 55.0312 57.0476 54.9278C57.1599 54.8761 57.2895 54.8416 57.4105 54.8416C57.782 54.8416 58.1189 55.0915 58.2226 55.4535C58.3608 55.9276 58.7496 57.1601 59.3717 58.2719C59.7605 58.9787 60.5553 60.1681 61.4279 60.1681C61.6957 60.1681 61.9895 60.0561 62.2919 59.8492C62.4387 59.7458 62.6029 59.6941 62.7843 59.6941C63.1213 59.6941 63.4237 59.8923 63.5619 60.2026C63.7433 60.6163 64.2444 61.6937 64.8665 62.659C65.8687 64.2104 66.4303 64.0725 66.4907 64.0725C66.6894 64.0725 66.9918 63.8657 67.2769 62.9779C68.0631 60.556 68.0718 57.5824 68.0113 54.9795C67.8472 47.412 65.4453 39.9049 61.065 33.2769C60.9959 33.1735 60.9182 33.0614 60.849 32.9494C59.9592 31.5962 58.741 29.7431 57.3068 28.7778C56.6675 28.3468 56.0454 28.1314 55.4147 28.1227C56.3651 28.0969 57.2377 28.433 58.0325 28.9588C59.8555 30.1741 61.2724 32.4581 62.3178 34.0526C67.0091 41.1546 69.7824 49.4461 69.9639 57.9703C70.0243 60.8232 70.0243 64.1242 69.1345 66.8823C67.4584 72.0279 64.2703 65.2189 63.7001 63.9432C63.6569 63.8398 63.5273 63.814 63.4409 63.8743C60.2443 66.1238 58.2399 59.9096 57.8857 58.7029C57.8597 58.5995 57.7388 58.5478 57.6437 58.5995C55.1123 59.7975 53.4103 58.0737 52.218 55.9793C51.285 54.3331 50.6111 52.6265 50.1445 50.8855C52.0798 56.574 56.4428 55.1519 56.4428 55.1519Z" fill="#B6C45C"/>
<path d="M26.3521 75.3978C26.9655 76.6562 28.9613 77.3543 30.2227 76.7855C30.6719 76.5786 31.0521 76.208 31.2422 75.7598C31.4754 75.2082 31.4322 74.579 31.2335 74.0188C30.7843 72.7604 29.7561 71.7261 28.5725 71.1487C27.0347 70.3988 25.4104 70.0799 23.6825 70.4419C22.9049 70.6057 22.1705 70.7522 21.4794 71.1487C20.529 71.7003 19.5614 72.3898 19.3108 73.5275C19.1207 74.398 19.3713 75.3289 19.9415 76.0098C20.7104 76.9234 21.9286 77.0958 23.0518 76.9579C24.0108 76.8458 25.0389 76.5528 25.7473 75.8632C25.8942 75.7167 26.0238 75.5616 26.1275 75.3892C26.1793 75.303 26.3089 75.303 26.3521 75.3978Z" fill="#C28881"/>
<path d="M43.6479 75.3978C43.0345 76.6562 41.0387 77.3543 39.7773 76.7855C39.3281 76.5786 38.9479 76.208 38.7579 75.7598C38.5246 75.2082 38.5678 74.579 38.7665 74.0188C39.2158 72.7604 40.2439 71.7261 41.4275 71.1487C42.9654 70.3988 44.5896 70.0799 46.3175 70.4419C47.0951 70.6057 47.8295 70.7522 48.5207 71.1487C49.471 71.7003 50.4387 72.3898 50.6892 73.5275C50.8793 74.398 50.6287 75.3289 50.0585 76.0098C49.2896 76.9234 48.0714 77.0958 46.9482 76.9579C45.9892 76.8458 44.9611 76.5528 44.2527 75.8632C44.1058 75.7167 43.9762 75.5616 43.8725 75.3892C43.8207 75.303 43.6911 75.303 43.6479 75.3978Z" fill="#C28881"/>
</svg>
