<svg width="144" height="27" viewBox="0 0 144 27" fill="none" xmlns="http://www.w3.org/2000/svg">
<g opacity="0.6">
<path d="M21.5712 13.6394C21.844 13.3605 22.0339 13.0114 22.1198 12.6309C22.2057 12.2505 22.1842 11.8536 22.0578 11.4847C21.9391 11.1146 21.7188 10.7853 21.4222 10.5343C21.1255 10.2832 20.7643 10.1205 20.3797 10.0647L16.1199 9.40938C16.1 9.40363 16.0817 9.39351 16.0662 9.37977C16.0508 9.36602 16.0386 9.349 16.0305 9.32995L14.1638 5.35815C14.0001 4.98623 13.7318 4.66993 13.3915 4.4478C13.0513 4.22566 12.6538 4.10726 12.2474 4.10703C11.8458 4.10537 11.4522 4.21974 11.114 4.4364C10.7758 4.65307 10.5073 4.96279 10.3409 5.32836L8.47419 9.30016C8.464 9.31952 8.44992 9.33658 8.43283 9.35025C8.41575 9.36391 8.39602 9.37391 8.37489 9.3796L4.12506 10.0647C3.73989 10.1221 3.37819 10.2852 3.08018 10.5359C2.78217 10.7866 2.55954 11.115 2.43705 11.4847C2.31521 11.8549 2.29707 12.2515 2.38459 12.6313C2.47211 13.0111 2.66195 13.3597 2.93352 13.6394L6.07125 16.8664C6.08028 16.8868 6.08495 16.9088 6.08495 16.931C6.08495 16.9532 6.08028 16.9752 6.07125 16.9955L5.33646 21.5035C5.26816 21.8961 5.31269 22.3 5.46488 22.6683C5.61707 23.0366 5.87067 23.3541 6.1962 23.584C6.52172 23.8138 6.9058 23.9465 7.30378 23.9667C7.70177 23.9869 8.0973 23.8937 8.4444 23.6979L12.1481 21.6425C12.1665 21.633 12.1869 21.628 12.2077 21.628C12.2284 21.628 12.2489 21.633 12.2673 21.6425L15.971 23.6979C16.3185 23.8895 16.713 23.9794 17.1092 23.9573C17.5054 23.9353 17.8875 23.8022 18.2117 23.5733C18.5358 23.3444 18.7891 23.029 18.9424 22.6629C19.0958 22.2969 19.1431 21.8951 19.0789 21.5035L18.3938 17.0154C18.3833 16.9973 18.3778 16.9767 18.3778 16.9558C18.3778 16.9349 18.3833 16.9143 18.3938 16.8962L21.5712 13.6394Z" fill="#90A3BF"/>
</g>
<g opacity="0.6">
<path d="M51.3583 13.6393C51.6311 13.3604 51.821 13.0113 51.9069 12.6309C51.9928 12.2504 51.9713 11.8535 51.8449 11.4846C51.7262 11.1145 51.5059 10.7852 51.2093 10.5342C50.9126 10.2831 50.5514 10.1204 50.1668 10.0646L45.907 9.40929C45.8871 9.40354 45.8688 9.39342 45.8534 9.37967C45.8379 9.36593 45.8257 9.34891 45.8177 9.32986L43.9509 5.35805C43.7872 4.98613 43.5189 4.66984 43.1786 4.4477C42.8384 4.22557 42.4409 4.10717 42.0345 4.10694C41.6329 4.10528 41.2393 4.21965 40.9011 4.43631C40.5629 4.65297 40.2944 4.9627 40.128 5.32827L38.2613 9.30007C38.2511 9.31943 38.237 9.33648 38.2199 9.35015C38.2029 9.36382 38.1831 9.37382 38.162 9.3795L33.9122 10.0646C33.527 10.122 33.1653 10.2851 32.8673 10.5358C32.5693 10.7865 32.3467 11.1149 32.2242 11.4846C32.1023 11.8548 32.0842 12.2514 32.1717 12.6312C32.2592 13.011 32.4491 13.3597 32.7206 13.6393L35.8584 16.8664C35.8674 16.8867 35.8721 16.9087 35.8721 16.9309C35.8721 16.9531 35.8674 16.9751 35.8584 16.9954L35.1236 21.5034C35.0553 21.896 35.0998 22.2999 35.252 22.6682C35.4042 23.0365 35.6578 23.354 35.9833 23.5839C36.3088 23.8137 36.6929 23.9464 37.0909 23.9666C37.4889 23.9868 37.8844 23.8936 38.2315 23.6979L41.9352 21.6424C41.9536 21.6329 41.9741 21.6279 41.9948 21.6279C42.0155 21.6279 42.036 21.6329 42.0544 21.6424L45.7581 23.6979C46.1056 23.8894 46.5001 23.9793 46.8963 23.9572C47.2925 23.9352 47.6746 23.8021 47.9988 23.5732C48.323 23.3443 48.5762 23.0289 48.7296 22.6628C48.8829 22.2968 48.9302 21.8951 48.866 21.5034L48.1809 17.0153C48.1704 16.9972 48.1649 16.9766 48.1649 16.9557C48.1649 16.9348 48.1704 16.9143 48.1809 16.8961L51.3583 13.6393Z" fill="#90A3BF"/>
</g>
<g opacity="0.6">
<path d="M81.1493 13.6393C81.4221 13.3604 81.612 13.0113 81.6979 12.6309C81.7839 12.2504 81.7624 11.8535 81.6359 11.4846C81.5172 11.1145 81.297 10.7852 81.0003 10.5342C80.7036 10.2831 80.3424 10.1204 79.9578 10.0646L75.698 9.40929C75.6782 9.40354 75.6598 9.39342 75.6444 9.37967C75.6289 9.36593 75.6167 9.34891 75.6087 9.32986L73.7419 5.35805C73.5782 4.98613 73.3099 4.66984 72.9696 4.4477C72.6294 4.22557 72.2319 4.10717 71.8255 4.10694C71.4239 4.10528 71.0303 4.21965 70.6921 4.43631C70.3539 4.65297 70.0855 4.9627 69.9191 5.32827L68.0523 9.30007C68.0421 9.31943 68.028 9.33648 68.011 9.35015C67.9939 9.36382 67.9741 9.37382 67.953 9.3795L63.7032 10.0646C63.318 10.122 62.9563 10.2851 62.6583 10.5358C62.3603 10.7865 62.1377 11.1149 62.0152 11.4846C61.8933 11.8548 61.8752 12.2514 61.9627 12.6312C62.0502 13.011 62.2401 13.3597 62.5116 13.6393L65.6494 16.8664C65.6584 16.8867 65.6631 16.9087 65.6631 16.9309C65.6631 16.9531 65.6584 16.9751 65.6494 16.9954L64.9146 21.5034C64.8463 21.896 64.8908 22.2999 65.043 22.6682C65.1952 23.0365 65.4488 23.354 65.7743 23.5839C66.0998 23.8137 66.4839 23.9464 66.8819 23.9666C67.2799 23.9868 67.6754 23.8936 68.0225 23.6979L71.7262 21.6424C71.7446 21.6329 71.7651 21.6279 71.7858 21.6279C71.8065 21.6279 71.827 21.6329 71.8454 21.6424L75.5491 23.6979C75.8967 23.8894 76.2911 23.9793 76.6873 23.9572C77.0836 23.9352 77.4656 23.8021 77.7898 23.5732C78.114 23.3443 78.3672 23.0289 78.5206 22.6628C78.6739 22.2968 78.7212 21.8951 78.657 21.5034L77.9719 17.0153C77.9614 16.9972 77.9559 16.9766 77.9559 16.9557C77.9559 16.9348 77.9614 16.9143 77.9719 16.8961L81.1493 13.6393Z" fill="#90A3BF"/>
</g>
<g opacity="0.8">
<path d="M111.239 14.5182C111.512 14.2394 111.702 13.8903 111.788 13.5098C111.874 13.1294 111.852 12.7325 111.726 12.3635C111.607 11.9935 111.387 11.6642 111.09 11.4131C110.793 11.1621 110.432 10.9994 110.048 10.9436L105.788 10.2883C105.768 10.2825 105.75 10.2724 105.734 10.2586C105.719 10.2449 105.707 10.2279 105.699 10.2088L103.832 6.23702C103.668 5.8651 103.4 5.54881 103.059 5.32667C102.719 5.10453 102.322 4.98614 101.915 4.9859C101.514 4.98424 101.12 5.09862 100.782 5.31528C100.444 5.53194 100.175 5.84167 100.009 6.20723L98.1422 10.179C98.132 10.1984 98.1179 10.2155 98.1008 10.2291C98.0837 10.2428 98.064 10.2528 98.0429 10.2585L93.793 10.9436C93.4079 11.001 93.0462 11.1641 92.7482 11.4148C92.4501 11.6654 92.2275 11.9939 92.105 12.3635C91.9832 12.7338 91.965 13.1303 92.0526 13.5102C92.1401 13.89 92.3299 14.2386 92.6015 14.5182L95.7392 17.7453C95.7483 17.7656 95.7529 17.7876 95.7529 17.8099C95.7529 17.8321 95.7483 17.8541 95.7392 17.8744L95.0044 22.3824C94.9361 22.775 94.9807 23.1789 95.1328 23.5472C95.285 23.9155 95.5386 24.233 95.8642 24.4628C96.1897 24.6927 96.5738 24.8254 96.9718 24.8456C97.3697 24.8658 97.7653 24.7726 98.1124 24.5768L101.816 22.5214C101.834 22.5118 101.855 22.5068 101.876 22.5068C101.896 22.5068 101.917 22.5118 101.935 22.5214L105.639 24.5768C105.986 24.7684 106.381 24.8582 106.777 24.8362C107.173 24.8142 107.555 24.6811 107.88 24.4522C108.204 24.2233 108.457 23.9078 108.61 23.5418C108.764 23.1758 108.811 22.774 108.747 22.3824L108.062 17.8943C108.051 17.8761 108.046 17.8556 108.046 17.8347C108.046 17.8138 108.051 17.7932 108.062 17.7751L111.239 14.5182Z" fill="#7B60A1"/>
</g>
<g opacity="0.8">
<path d="M140.726 14.5182C140.998 14.2394 141.188 13.8903 141.274 13.5098C141.36 13.1294 141.339 12.7325 141.212 12.3635C141.093 11.9935 140.873 11.6642 140.576 11.4131C140.28 11.1621 139.919 10.9994 139.534 10.9436L135.274 10.2883C135.254 10.2825 135.236 10.2724 135.221 10.2586C135.205 10.2449 135.193 10.2279 135.185 10.2088L133.318 6.23702C133.154 5.8651 132.886 5.54881 132.546 5.32667C132.206 5.10453 131.808 4.98614 131.402 4.9859C131 4.98424 130.606 5.09862 130.268 5.31528C129.93 5.53194 129.662 5.84167 129.495 6.20723L127.628 10.179C127.618 10.1984 127.604 10.2155 127.587 10.2291C127.57 10.2428 127.55 10.2528 127.529 10.2585L123.279 10.9436C122.894 11.001 122.532 11.1641 122.234 11.4148C121.936 11.6654 121.714 11.9939 121.591 12.3635C121.47 12.7338 121.451 13.1303 121.539 13.5102C121.626 13.89 121.816 14.2386 122.088 14.5182L125.226 17.7453C125.235 17.7656 125.239 17.7876 125.239 17.8099C125.239 17.8321 125.235 17.8541 125.226 17.8744L124.491 22.3824C124.422 22.775 124.467 23.1789 124.619 23.5472C124.771 23.9155 125.025 24.233 125.35 24.4628C125.676 24.6927 126.06 24.8254 126.458 24.8456C126.856 24.8658 127.252 24.7726 127.599 24.5768L131.302 22.5214C131.321 22.5118 131.341 22.5068 131.362 22.5068C131.383 22.5068 131.403 22.5118 131.422 22.5214L135.125 24.5768C135.473 24.7684 135.867 24.8582 136.263 24.8362C136.66 24.8142 137.042 24.6811 137.366 24.4522C137.69 24.2233 137.943 23.9078 138.097 23.5418C138.25 23.1758 138.297 22.774 138.233 22.3824L137.548 17.8943C137.538 17.8761 137.532 17.8556 137.532 17.8347C137.532 17.8138 137.538 17.7932 137.548 17.7751L140.726 14.5182Z" fill="#7B60A1"/>
</g>
<path d="M140.726 12.1495C140.998 11.8707 141.188 11.5216 141.274 11.1411C141.36 10.7606 141.339 10.3638 141.212 9.99481C141.093 9.62475 140.873 9.29546 140.576 9.04442C140.28 8.79339 139.919 8.6307 139.534 8.57489L135.274 7.91955C135.254 7.91379 135.236 7.90367 135.221 7.88993C135.205 7.87619 135.193 7.85917 135.185 7.84011L133.318 3.86831C133.154 3.49639 132.886 3.1801 132.546 2.95796C132.206 2.73582 131.808 2.61742 131.402 2.61719C131 2.61553 130.606 2.7299 130.268 2.94657C129.93 3.16323 129.662 3.47296 129.495 3.83852L127.628 7.81032C127.618 7.82969 127.604 7.84674 127.587 7.86041C127.57 7.87408 127.55 7.88407 127.529 7.88976L123.279 8.57489C122.894 8.63228 122.532 8.79538 122.234 9.04605C121.936 9.29673 121.714 9.62516 121.591 9.99481C121.47 10.3651 121.451 10.7616 121.539 11.1414C121.626 11.5213 121.816 11.8699 122.088 12.1495L125.226 15.3766C125.235 15.3969 125.239 15.4189 125.239 15.4411C125.239 15.4634 125.235 15.4854 125.226 15.5057L124.491 20.0137C124.422 20.4063 124.467 20.8102 124.619 21.1785C124.771 21.5468 125.025 21.8643 125.35 22.0941C125.676 22.324 126.06 22.4567 126.458 22.4769C126.856 22.4971 127.252 22.4039 127.599 22.2081L131.302 20.1527C131.321 20.1431 131.341 20.1381 131.362 20.1381C131.383 20.1381 131.403 20.1431 131.422 20.1527L135.125 22.2081C135.473 22.3996 135.867 22.4895 136.263 22.4675C136.66 22.4455 137.042 22.3124 137.366 22.0835C137.69 21.8546 137.943 21.5391 138.097 21.1731C138.25 20.8071 138.297 20.4053 138.233 20.0137L137.548 15.5255C137.538 15.5074 137.532 15.4869 137.532 15.466C137.532 15.4451 137.538 15.4245 137.548 15.4064L140.726 12.1495Z" fill="url(#paint0_linear_1092_17366)"/>
<path d="M111.239 12.1495C111.512 11.8707 111.702 11.5216 111.788 11.1411C111.874 10.7606 111.852 10.3638 111.726 9.99481C111.607 9.62475 111.387 9.29546 111.09 9.04442C110.793 8.79339 110.432 8.6307 110.048 8.57489L105.788 7.91955C105.768 7.91379 105.75 7.90367 105.734 7.88993C105.719 7.87619 105.707 7.85917 105.699 7.84011L103.832 3.86831C103.668 3.49639 103.4 3.1801 103.059 2.95796C102.719 2.73582 102.322 2.61742 101.915 2.61719C101.514 2.61553 101.12 2.7299 100.782 2.94657C100.444 3.16323 100.175 3.47296 100.009 3.83852L98.1422 7.81032C98.132 7.82969 98.1179 7.84674 98.1008 7.86041C98.0837 7.87408 98.064 7.88407 98.0429 7.88976L93.793 8.57489C93.4079 8.63228 93.0462 8.79538 92.7482 9.04605C92.4501 9.29673 92.2275 9.62516 92.105 9.99481C91.9832 10.3651 91.965 10.7616 92.0526 11.1414C92.1401 11.5213 92.3299 11.8699 92.6015 12.1495L95.7392 15.3766C95.7483 15.3969 95.7529 15.4189 95.7529 15.4411C95.7529 15.4634 95.7483 15.4854 95.7392 15.5057L95.0044 20.0137C94.9361 20.4063 94.9807 20.8102 95.1328 21.1785C95.285 21.5468 95.5386 21.8643 95.8642 22.0941C96.1897 22.324 96.5738 22.4567 96.9718 22.4769C97.3697 22.4971 97.7653 22.4039 98.1124 22.2081L101.816 20.1527C101.834 20.1431 101.855 20.1381 101.876 20.1381C101.896 20.1381 101.917 20.1431 101.935 20.1527L105.639 22.2081C105.986 22.3996 106.381 22.4895 106.777 22.4675C107.173 22.4455 107.555 22.3124 107.88 22.0835C108.204 21.8546 108.457 21.5391 108.61 21.1731C108.764 20.8071 108.811 20.4053 108.747 20.0137L108.062 15.5255C108.051 15.5074 108.046 15.4869 108.046 15.466C108.046 15.4451 108.051 15.4245 108.062 15.4064L111.239 12.1495Z" fill="url(#paint1_linear_1092_17366)"/>
<defs>
<linearGradient id="paint0_linear_1092_17366" x1="141.326" y1="12.5488" x2="121.484" y2="12.5488" gradientUnits="userSpaceOnUse">
<stop stop-color="#FEBF10"/>
<stop offset="1" stop-color="#FEDB7C"/>
</linearGradient>
<linearGradient id="paint1_linear_1092_17366" x1="111.839" y1="12.5488" x2="91.998" y2="12.5488" gradientUnits="userSpaceOnUse">
<stop stop-color="#FEBF10"/>
<stop offset="1" stop-color="#FEDB7C"/>
</linearGradient>
</defs>
</svg>
