<svg width="144" height="27" viewBox="0 0 144 27" fill="none" xmlns="http://www.w3.org/2000/svg">
<g opacity="0.8">
<path d="M21.2392 14.5182C21.5119 14.2394 21.7019 13.8903 21.7878 13.5098C21.8737 13.1294 21.8522 12.7325 21.7257 12.3635C21.607 11.9935 21.3868 11.6642 21.0901 11.4131C20.7934 11.1621 20.4322 10.9994 20.0476 10.9436L15.7879 10.2883C15.768 10.2825 15.7497 10.2724 15.7342 10.2586C15.7188 10.2449 15.7066 10.2279 15.6985 10.2088L13.8318 6.23702C13.6681 5.8651 13.3998 5.54881 13.0595 5.32667C12.7192 5.10453 12.3217 4.98614 11.9154 4.9859C11.5137 4.98424 11.1201 5.09862 10.7819 5.31528C10.4437 5.53194 10.1753 5.84167 10.0089 6.20723L8.14216 10.179C8.13197 10.1984 8.11789 10.2155 8.1008 10.2291C8.08372 10.2428 8.06399 10.2528 8.04286 10.2585L3.79303 10.9436C3.40786 11.001 3.04616 11.1641 2.74815 11.4148C2.45014 11.6654 2.22751 11.9939 2.10502 12.3635C1.98318 12.7338 1.96504 13.1303 2.05256 13.5102C2.14008 13.89 2.32992 14.2386 2.60149 14.5182L5.73922 17.7453C5.74825 17.7656 5.75292 17.7876 5.75292 17.8099C5.75292 17.8321 5.74825 17.8541 5.73922 17.8744L5.00443 22.3824C4.93613 22.775 4.98066 23.1789 5.13285 23.5472C5.28504 23.9155 5.53864 24.233 5.86417 24.4628C6.18969 24.6927 6.57377 24.8254 6.97175 24.8456C7.36973 24.8658 7.76527 24.7726 8.11237 24.5768L11.8161 22.5214C11.8345 22.5118 11.8549 22.5068 11.8757 22.5068C11.8964 22.5068 11.9168 22.5118 11.9352 22.5214L15.6389 24.5768C15.9865 24.7684 16.3809 24.8582 16.7772 24.8362C17.1734 24.8142 17.5554 24.6811 17.8796 24.4522C18.2038 24.2233 18.4571 23.9078 18.6104 23.5418C18.7638 23.1758 18.8111 22.774 18.7469 22.3824L18.0617 17.8943C18.0513 17.8761 18.0458 17.8556 18.0458 17.8347C18.0458 17.8138 18.0513 17.7932 18.0617 17.7751L21.2392 14.5182Z" fill="#7B60A1"/>
</g>
<g opacity="0.8">
<path d="M51.454 14.5182C51.7268 14.2394 51.9167 13.8903 52.0026 13.5098C52.0885 13.1294 52.0671 12.7325 51.9406 12.3635C51.8219 11.9935 51.6016 11.6642 51.305 11.4131C51.0083 11.1621 50.6471 10.9994 50.2625 10.9436L46.0027 10.2883C45.9829 10.2825 45.9645 10.2724 45.9491 10.2586C45.9336 10.2449 45.9214 10.2279 45.9134 10.2088L44.0466 6.23702C43.8829 5.8651 43.6146 5.54881 43.2743 5.32667C42.9341 5.10453 42.5366 4.98614 42.1302 4.9859C41.7286 4.98424 41.335 5.09862 40.9968 5.31528C40.6586 5.53194 40.3901 5.84167 40.2237 6.20723L38.357 10.179C38.3468 10.1984 38.3327 10.2155 38.3156 10.2291C38.2986 10.2428 38.2788 10.2528 38.2577 10.2585L34.0079 10.9436C33.6227 11.001 33.261 11.1641 32.963 11.4148C32.665 11.6654 32.4424 11.9939 32.3199 12.3635C32.198 12.7338 32.1799 13.1303 32.2674 13.5102C32.3549 13.89 32.5448 14.2386 32.8163 14.5182L35.9541 17.7453C35.9631 17.7656 35.9678 17.7876 35.9678 17.8099C35.9678 17.8321 35.9631 17.8541 35.9541 17.8744L35.2193 22.3824C35.151 22.775 35.1955 23.1789 35.3477 23.5472C35.4999 23.9155 35.7535 24.233 36.079 24.4628C36.4045 24.6927 36.7886 24.8254 37.1866 24.8456C37.5846 24.8658 37.9801 24.7726 38.3272 24.5768L42.0309 22.5214C42.0493 22.5118 42.0698 22.5068 42.0905 22.5068C42.1112 22.5068 42.1317 22.5118 42.1501 22.5214L45.8538 24.5768C46.2013 24.7684 46.5958 24.8582 46.992 24.8362C47.3882 24.8142 47.7703 24.6811 48.0945 24.4522C48.4187 24.2233 48.6719 23.9078 48.8253 23.5418C48.9786 23.1758 49.0259 22.774 48.9617 22.3824L48.2766 17.8943C48.2661 17.8761 48.2606 17.8556 48.2606 17.8347C48.2606 17.8138 48.2661 17.7932 48.2766 17.7751L51.454 14.5182Z" fill="#7B60A1"/>
</g>
<g opacity="0.8">
<path d="M81.245 14.5182C81.5178 14.2394 81.7077 13.8903 81.7936 13.5098C81.8796 13.1294 81.8581 12.7325 81.7316 12.3635C81.6129 11.9935 81.3927 11.6642 81.096 11.4131C80.7993 11.1621 80.4381 10.9994 80.0535 10.9436L75.7937 10.2883C75.7739 10.2825 75.7555 10.2724 75.7401 10.2586C75.7246 10.2449 75.7124 10.2279 75.7044 10.2088L73.8376 6.23702C73.6739 5.8651 73.4056 5.54881 73.0654 5.32667C72.7251 5.10453 72.3276 4.98614 71.9212 4.9859C71.5196 4.98424 71.126 5.09862 70.7878 5.31528C70.4496 5.53194 70.1812 5.84167 70.0148 6.20723L68.148 10.179C68.1378 10.1984 68.1237 10.2155 68.1067 10.2291C68.0896 10.2428 68.0699 10.2528 68.0487 10.2585L63.7989 10.9436C63.4137 11.001 63.052 11.1641 62.754 11.4148C62.456 11.6654 62.2334 11.9939 62.1109 12.3635C61.989 12.7338 61.9709 13.1303 62.0584 13.5102C62.1459 13.89 62.3358 14.2386 62.6074 14.5182L65.7451 17.7453C65.7541 17.7656 65.7588 17.7876 65.7588 17.8099C65.7588 17.8321 65.7541 17.8541 65.7451 17.8744L65.0103 22.3824C64.942 22.775 64.9865 23.1789 65.1387 23.5472C65.2909 23.9155 65.5445 24.233 65.87 24.4628C66.1956 24.6927 66.5796 24.8254 66.9776 24.8456C67.3756 24.8658 67.7711 24.7726 68.1182 24.5768L71.8219 22.5214C71.8403 22.5118 71.8608 22.5068 71.8815 22.5068C71.9023 22.5068 71.9227 22.5118 71.9411 22.5214L75.6448 24.5768C75.9924 24.7684 76.3868 24.8582 76.783 24.8362C77.1793 24.8142 77.5613 24.6811 77.8855 24.4522C78.2097 24.2233 78.4629 23.9078 78.6163 23.5418C78.7696 23.1758 78.8169 22.774 78.7527 22.3824L78.0676 17.8943C78.0571 17.8761 78.0516 17.8556 78.0516 17.8347C78.0516 17.8138 78.0571 17.7932 78.0676 17.7751L81.245 14.5182Z" fill="#7B60A1"/>
</g>
<g opacity="0.8">
<path d="M111.032 14.5182C111.305 14.2394 111.495 13.8903 111.581 13.5098C111.667 13.1294 111.645 12.7325 111.519 12.3635C111.4 11.9935 111.18 11.6642 110.883 11.4131C110.586 11.1621 110.225 10.9994 109.841 10.9436L105.581 10.2883C105.561 10.2825 105.543 10.2724 105.527 10.2586C105.512 10.2449 105.5 10.2279 105.491 10.2088L103.625 6.23702C103.461 5.8651 103.193 5.54881 102.852 5.32667C102.512 5.10453 102.115 4.98614 101.708 4.9859C101.307 4.98424 100.913 5.09862 100.575 5.31528C100.237 5.53194 99.9683 5.84167 99.8019 6.20723L97.9351 10.179C97.9249 10.1984 97.9109 10.2155 97.8938 10.2291C97.8767 10.2428 97.857 10.2528 97.8358 10.2585L93.586 10.9436C93.2008 11.001 92.8391 11.1641 92.5411 11.4148C92.2431 11.6654 92.0205 11.9939 91.898 12.3635C91.7761 12.7338 91.758 13.1303 91.8455 13.5102C91.933 13.89 92.1229 14.2386 92.3945 14.5182L95.5322 17.7453C95.5412 17.7656 95.5459 17.7876 95.5459 17.8099C95.5459 17.8321 95.5412 17.8541 95.5322 17.8744L94.7974 22.3824C94.7291 22.775 94.7736 23.1789 94.9258 23.5472C95.078 23.9155 95.3316 24.233 95.6571 24.4628C95.9827 24.6927 96.3667 24.8254 96.7647 24.8456C97.1627 24.8658 97.5582 24.7726 97.9053 24.5768L101.609 22.5214C101.627 22.5118 101.648 22.5068 101.669 22.5068C101.689 22.5068 101.71 22.5118 101.728 22.5214L105.432 24.5768C105.779 24.7684 106.174 24.8582 106.57 24.8362C106.966 24.8142 107.348 24.6811 107.673 24.4522C107.997 24.2233 108.25 23.9078 108.403 23.5418C108.557 23.1758 108.604 22.774 108.54 22.3824L107.855 17.8943C107.844 17.8761 107.839 17.8556 107.839 17.8347C107.839 17.8138 107.844 17.7932 107.855 17.7751L111.032 14.5182Z" fill="#7B60A1"/>
</g>
<g opacity="0.8">
<path d="M140.821 14.5182C141.094 14.2394 141.284 13.8903 141.37 13.5098C141.456 13.1294 141.434 12.7325 141.308 12.3635C141.189 11.9935 140.969 11.6642 140.672 11.4131C140.375 11.1621 140.014 10.9994 139.63 10.9436L135.37 10.2883C135.35 10.2825 135.332 10.2724 135.316 10.2586C135.301 10.2449 135.289 10.2279 135.281 10.2088L133.414 6.23702C133.25 5.8651 132.982 5.54881 132.642 5.32667C132.301 5.10453 131.904 4.98614 131.497 4.9859C131.096 4.98424 130.702 5.09862 130.364 5.31528C130.026 5.53194 129.757 5.84167 129.591 6.20723L127.724 10.179C127.714 10.1984 127.7 10.2155 127.683 10.2291C127.666 10.2428 127.646 10.2528 127.625 10.2585L123.375 10.9436C122.99 11.001 122.628 11.1641 122.33 11.4148C122.032 11.6654 121.81 11.9939 121.687 12.3635C121.565 12.7338 121.547 13.1303 121.635 13.5102C121.722 13.89 121.912 14.2386 122.184 14.5182L125.321 17.7453C125.33 17.7656 125.335 17.7876 125.335 17.8099C125.335 17.8321 125.33 17.8541 125.321 17.8744L124.586 22.3824C124.518 22.775 124.563 23.1789 124.715 23.5472C124.867 23.9155 125.121 24.233 125.446 24.4628C125.772 24.6927 126.156 24.8254 126.554 24.8456C126.952 24.8658 127.347 24.7726 127.694 24.5768L131.398 22.5214C131.417 22.5118 131.437 22.5068 131.458 22.5068C131.478 22.5068 131.499 22.5118 131.517 22.5214L135.221 24.5768C135.569 24.7684 135.963 24.8582 136.359 24.8362C136.755 24.8142 137.137 24.6811 137.462 24.4522C137.786 24.2233 138.039 23.9078 138.192 23.5418C138.346 23.1758 138.393 22.774 138.329 22.3824L137.644 17.8943C137.633 17.8761 137.628 17.8556 137.628 17.8347C137.628 17.8138 137.633 17.7932 137.644 17.7751L140.821 14.5182Z" fill="#7B60A1"/>
</g>
<path d="M141.239 12.149C141.512 11.8702 141.702 11.5211 141.788 11.1406C141.874 10.7602 141.852 10.3633 141.726 9.99433C141.607 9.62426 141.387 9.29497 141.09 9.04393C140.793 8.7929 140.432 8.63022 140.048 8.57441L135.788 7.91906C135.768 7.9133 135.75 7.90318 135.734 7.88944C135.719 7.8757 135.707 7.85868 135.699 7.83962L133.832 3.86782C133.668 3.4959 133.4 3.17961 133.059 2.95747C132.719 2.73533 132.322 2.61694 131.915 2.6167C131.514 2.61504 131.12 2.72942 130.782 2.94608C130.444 3.16274 130.175 3.47247 130.009 3.83803L128.142 7.80983C128.132 7.8292 128.118 7.84625 128.101 7.85992C128.084 7.87359 128.064 7.88358 128.043 7.88927L123.793 8.57441C123.408 8.63179 123.046 8.79489 122.748 9.04557C122.45 9.29624 122.228 9.62467 122.105 9.99433C121.983 10.3646 121.965 10.7611 122.053 11.141C122.14 11.5208 122.33 11.8694 122.601 12.149L125.739 15.3761C125.748 15.3964 125.753 15.4184 125.753 15.4407C125.753 15.4629 125.748 15.4849 125.739 15.5052L125.004 20.0132C124.936 20.4058 124.981 20.8097 125.133 21.178C125.285 21.5463 125.539 21.8638 125.864 22.0936C126.19 22.3235 126.574 22.4562 126.972 22.4764C127.37 22.4966 127.765 22.4034 128.112 22.2076L131.816 20.1522C131.834 20.1426 131.855 20.1376 131.876 20.1376C131.896 20.1376 131.917 20.1426 131.935 20.1522L135.639 22.2076C135.986 22.3992 136.381 22.489 136.777 22.467C137.173 22.445 137.555 22.3119 137.88 22.083C138.204 21.8541 138.457 21.5386 138.61 21.1726C138.764 20.8066 138.811 20.4048 138.747 20.0132L138.062 15.5251C138.051 15.5069 138.046 15.4864 138.046 15.4655C138.046 15.4446 138.051 15.424 138.062 15.4059L141.239 12.149Z" fill="url(#paint0_linear_1092_17377)"/>
<path d="M111.239 12.149C111.512 11.8702 111.702 11.5211 111.788 11.1406C111.874 10.7602 111.852 10.3633 111.726 9.99433C111.607 9.62426 111.387 9.29497 111.09 9.04393C110.793 8.7929 110.432 8.63022 110.048 8.57441L105.788 7.91906C105.768 7.9133 105.75 7.90318 105.734 7.88944C105.719 7.8757 105.707 7.85868 105.699 7.83962L103.832 3.86782C103.668 3.4959 103.4 3.17961 103.059 2.95747C102.719 2.73533 102.322 2.61694 101.915 2.6167C101.514 2.61504 101.12 2.72942 100.782 2.94608C100.444 3.16274 100.175 3.47247 100.009 3.83803L98.1422 7.80983C98.132 7.8292 98.1179 7.84625 98.1008 7.85992C98.0837 7.87359 98.064 7.88358 98.0429 7.88927L93.793 8.57441C93.4079 8.63179 93.0462 8.79489 92.7482 9.04557C92.4501 9.29624 92.2275 9.62467 92.105 9.99433C91.9832 10.3646 91.965 10.7611 92.0526 11.141C92.1401 11.5208 92.3299 11.8694 92.6015 12.149L95.7392 15.3761C95.7483 15.3964 95.7529 15.4184 95.7529 15.4407C95.7529 15.4629 95.7483 15.4849 95.7392 15.5052L95.0044 20.0132C94.9361 20.4058 94.9807 20.8097 95.1328 21.178C95.285 21.5463 95.5386 21.8638 95.8642 22.0936C96.1897 22.3235 96.5738 22.4562 96.9718 22.4764C97.3697 22.4966 97.7653 22.4034 98.1124 22.2076L101.816 20.1522C101.834 20.1426 101.855 20.1376 101.876 20.1376C101.896 20.1376 101.917 20.1426 101.935 20.1522L105.639 22.2076C105.986 22.3992 106.381 22.489 106.777 22.467C107.173 22.445 107.555 22.3119 107.88 22.083C108.204 21.8541 108.457 21.5386 108.61 21.1726C108.764 20.8066 108.811 20.4048 108.747 20.0132L108.062 15.5251C108.051 15.5069 108.046 15.4864 108.046 15.4655C108.046 15.4446 108.051 15.424 108.062 15.4059L111.239 12.149Z" fill="url(#paint1_linear_1092_17377)"/>
<path d="M81.2392 12.149C81.5119 11.8702 81.7019 11.5211 81.7878 11.1406C81.8737 10.7602 81.8522 10.3633 81.7257 9.99433C81.607 9.62426 81.3868 9.29497 81.0901 9.04393C80.7934 8.7929 80.4322 8.63022 80.0476 8.57441L75.7879 7.91906C75.768 7.9133 75.7497 7.90318 75.7342 7.88944C75.7188 7.8757 75.7066 7.85868 75.6985 7.83962L73.8318 3.86782C73.6681 3.4959 73.3998 3.17961 73.0595 2.95747C72.7192 2.73533 72.3217 2.61694 71.9154 2.6167C71.5137 2.61504 71.1201 2.72942 70.7819 2.94608C70.4437 3.16274 70.1753 3.47247 70.0089 3.83803L68.1422 7.80983C68.132 7.8292 68.1179 7.84625 68.1008 7.85992C68.0837 7.87359 68.064 7.88358 68.0429 7.88927L63.793 8.57441C63.4079 8.63179 63.0462 8.79489 62.7482 9.04557C62.4501 9.29624 62.2275 9.62467 62.105 9.99433C61.9832 10.3646 61.965 10.7611 62.0526 11.141C62.1401 11.5208 62.3299 11.8694 62.6015 12.149L65.7392 15.3761C65.7483 15.3964 65.7529 15.4184 65.7529 15.4407C65.7529 15.4629 65.7483 15.4849 65.7392 15.5052L65.0044 20.0132C64.9361 20.4058 64.9807 20.8097 65.1328 21.178C65.285 21.5463 65.5386 21.8638 65.8642 22.0936C66.1897 22.3235 66.5738 22.4562 66.9718 22.4764C67.3697 22.4966 67.7653 22.4034 68.1124 22.2076L71.8161 20.1522C71.8345 20.1426 71.8549 20.1376 71.8757 20.1376C71.8964 20.1376 71.9168 20.1426 71.9352 20.1522L75.6389 22.2076C75.9865 22.3992 76.3809 22.489 76.7772 22.467C77.1734 22.445 77.5554 22.3119 77.8796 22.083C78.2038 21.8541 78.4571 21.5386 78.6104 21.1726C78.7638 20.8066 78.8111 20.4048 78.7469 20.0132L78.0617 15.5251C78.0513 15.5069 78.0458 15.4864 78.0458 15.4655C78.0458 15.4446 78.0513 15.424 78.0617 15.4059L81.2392 12.149Z" fill="url(#paint2_linear_1092_17377)"/>
<path d="M51.2392 12.149C51.5119 11.8702 51.7019 11.5211 51.7878 11.1406C51.8737 10.7602 51.8522 10.3633 51.7257 9.99433C51.607 9.62426 51.3868 9.29497 51.0901 9.04393C50.7934 8.7929 50.4322 8.63022 50.0476 8.57441L45.7879 7.91906C45.768 7.9133 45.7497 7.90318 45.7342 7.88944C45.7188 7.8757 45.7066 7.85868 45.6985 7.83962L43.8318 3.86782C43.6681 3.4959 43.3998 3.17961 43.0595 2.95747C42.7192 2.73533 42.3217 2.61694 41.9154 2.6167C41.5137 2.61504 41.1201 2.72942 40.7819 2.94608C40.4437 3.16274 40.1753 3.47247 40.0089 3.83803L38.1422 7.80983C38.132 7.8292 38.1179 7.84625 38.1008 7.85992C38.0837 7.87359 38.064 7.88358 38.0429 7.88927L33.793 8.57441C33.4079 8.63179 33.0462 8.79489 32.7482 9.04557C32.4501 9.29624 32.2275 9.62467 32.105 9.99433C31.9832 10.3646 31.965 10.7611 32.0526 11.141C32.1401 11.5208 32.3299 11.8694 32.6015 12.149L35.7392 15.3761C35.7483 15.3964 35.7529 15.4184 35.7529 15.4407C35.7529 15.4629 35.7483 15.4849 35.7392 15.5052L35.0044 20.0132C34.9361 20.4058 34.9807 20.8097 35.1328 21.178C35.285 21.5463 35.5386 21.8638 35.8642 22.0936C36.1897 22.3235 36.5738 22.4562 36.9718 22.4764C37.3697 22.4966 37.7653 22.4034 38.1124 22.2076L41.8161 20.1522C41.8345 20.1426 41.8549 20.1376 41.8757 20.1376C41.8964 20.1376 41.9168 20.1426 41.9352 20.1522L45.6389 22.2076C45.9865 22.3992 46.3809 22.489 46.7772 22.467C47.1734 22.445 47.5554 22.3119 47.8796 22.083C48.2038 21.8541 48.4571 21.5386 48.6104 21.1726C48.7638 20.8066 48.8111 20.4048 48.7469 20.0132L48.0617 15.5251C48.0513 15.5069 48.0458 15.4864 48.0458 15.4655C48.0458 15.4446 48.0513 15.424 48.0617 15.4059L51.2392 12.149Z" fill="url(#paint3_linear_1092_17377)"/>
<path d="M21.2392 12.149C21.5119 11.8702 21.7019 11.5211 21.7878 11.1406C21.8737 10.7602 21.8522 10.3633 21.7257 9.99433C21.607 9.62426 21.3868 9.29497 21.0901 9.04393C20.7934 8.7929 20.4322 8.63022 20.0476 8.57441L15.7879 7.91906C15.768 7.9133 15.7497 7.90318 15.7342 7.88944C15.7188 7.8757 15.7066 7.85868 15.6985 7.83962L13.8318 3.86782C13.6681 3.4959 13.3998 3.17961 13.0595 2.95747C12.7192 2.73533 12.3217 2.61694 11.9154 2.6167C11.5137 2.61504 11.1201 2.72942 10.7819 2.94608C10.4437 3.16274 10.1753 3.47247 10.0089 3.83803L8.14216 7.80983C8.13197 7.8292 8.11789 7.84625 8.1008 7.85992C8.08372 7.87359 8.06399 7.88358 8.04286 7.88927L3.79303 8.57441C3.40786 8.63179 3.04616 8.79489 2.74815 9.04557C2.45014 9.29624 2.22751 9.62467 2.10502 9.99433C1.98318 10.3646 1.96504 10.7611 2.05256 11.141C2.14008 11.5208 2.32992 11.8694 2.60149 12.149L5.73922 15.3761C5.74825 15.3964 5.75292 15.4184 5.75292 15.4407C5.75292 15.4629 5.74825 15.4849 5.73922 15.5052L5.00443 20.0132C4.93613 20.4058 4.98066 20.8097 5.13285 21.178C5.28504 21.5463 5.53864 21.8638 5.86417 22.0936C6.18969 22.3235 6.57377 22.4562 6.97175 22.4764C7.36973 22.4966 7.76527 22.4034 8.11237 22.2076L11.8161 20.1522C11.8345 20.1426 11.8549 20.1376 11.8757 20.1376C11.8964 20.1376 11.9168 20.1426 11.9352 20.1522L15.6389 22.2076C15.9865 22.3992 16.3809 22.489 16.7772 22.467C17.1734 22.445 17.5554 22.3119 17.8796 22.083C18.2038 21.8541 18.4571 21.5386 18.6104 21.1726C18.7638 20.8066 18.8111 20.4048 18.7469 20.0132L18.0617 15.5251C18.0513 15.5069 18.0458 15.4864 18.0458 15.4655C18.0458 15.4446 18.0513 15.424 18.0617 15.4059L21.2392 12.149Z" fill="url(#paint4_linear_1092_17377)"/>
<defs>
<linearGradient id="paint0_linear_1092_17377" x1="141.839" y1="12.5483" x2="121.998" y2="12.5483" gradientUnits="userSpaceOnUse">
<stop stop-color="#FEBF10"/>
<stop offset="1" stop-color="#FEDB7C"/>
</linearGradient>
<linearGradient id="paint1_linear_1092_17377" x1="111.839" y1="12.5483" x2="91.998" y2="12.5483" gradientUnits="userSpaceOnUse">
<stop stop-color="#FEBF10"/>
<stop offset="1" stop-color="#FEDB7C"/>
</linearGradient>
<linearGradient id="paint2_linear_1092_17377" x1="81.8395" y1="12.5483" x2="61.998" y2="12.5483" gradientUnits="userSpaceOnUse">
<stop stop-color="#FEBF10"/>
<stop offset="1" stop-color="#FEDB7C"/>
</linearGradient>
<linearGradient id="paint3_linear_1092_17377" x1="51.8395" y1="12.5483" x2="31.998" y2="12.5483" gradientUnits="userSpaceOnUse">
<stop stop-color="#FEBF10"/>
<stop offset="1" stop-color="#FEDB7C"/>
</linearGradient>
<linearGradient id="paint4_linear_1092_17377" x1="21.8395" y1="12.5483" x2="1.99805" y2="12.5483" gradientUnits="userSpaceOnUse">
<stop stop-color="#FEBF10"/>
<stop offset="1" stop-color="#FEDB7C"/>
</linearGradient>
</defs>
</svg>
