<svg width="144" height="27" viewBox="0 0 144 27" fill="none" xmlns="http://www.w3.org/2000/svg">
<g opacity="0.6">
<path d="M21.6669 13.5388C21.9397 13.26 22.1296 12.9109 22.2155 12.5304C22.3014 12.1499 22.2799 11.7531 22.1535 11.3841C22.0348 11.014 21.8145 10.6847 21.5179 10.4337C21.2212 10.1827 20.86 10.02 20.4754 9.96418L16.2156 9.30883C16.1957 9.30307 16.1774 9.29295 16.162 9.27921C16.1465 9.26547 16.1343 9.24845 16.1262 9.22939L14.2595 5.25759C14.0958 4.88567 13.8275 4.56938 13.4872 4.34724C13.147 4.1251 12.7495 4.00671 12.3431 4.00647C11.9415 4.00481 11.5479 4.11919 11.2097 4.33585C10.8715 4.55251 10.603 4.86224 10.4366 5.2278L8.56989 9.1996C8.5597 9.21897 8.54562 9.23602 8.52854 9.24969C8.51145 9.26336 8.49173 9.27335 8.4706 9.27904L4.22077 9.96418C3.8356 10.0216 3.47389 10.1847 3.17589 10.4353C2.87788 10.686 2.65525 11.0144 2.53275 11.3841C2.41091 11.7544 2.39277 12.1509 2.48029 12.5307C2.56781 12.9106 2.75765 13.2592 3.02923 13.5388L6.16695 16.7659C6.17598 16.7862 6.18065 16.8082 6.18065 16.8304C6.18065 16.8527 6.17598 16.8747 6.16695 16.895L5.43217 21.403C5.36386 21.7956 5.40839 22.1995 5.56058 22.5678C5.71277 22.9361 5.96637 23.2536 6.2919 23.4834C6.61743 23.7133 7.00151 23.846 7.39949 23.8662C7.79747 23.8863 8.193 23.7931 8.5401 23.5974L12.2438 21.542C12.2622 21.5324 12.2826 21.5274 12.3034 21.5274C12.3241 21.5274 12.3446 21.5324 12.363 21.542L16.0667 23.5974C16.4142 23.7889 16.8087 23.8788 17.2049 23.8568C17.6011 23.8347 17.9832 23.7017 18.3074 23.4728C18.6315 23.2439 18.8848 22.9284 19.0381 22.5624C19.1915 22.1964 19.2388 21.7946 19.1746 21.403L18.4895 16.9148C18.479 16.8967 18.4735 16.8762 18.4735 16.8553C18.4735 16.8343 18.479 16.8138 18.4895 16.7957L21.6669 13.5388Z" fill="#90A3BF"/>
</g>
<g opacity="0.6">
<path d="M51.454 13.5387C51.7268 13.2599 51.9167 12.9108 52.0026 12.5303C52.0885 12.1498 52.0671 11.753 51.9406 11.384C51.8219 11.0139 51.6016 10.6846 51.305 10.4336C51.0083 10.1826 50.6471 10.0199 50.2625 9.96409L46.0027 9.30874C45.9829 9.30298 45.9645 9.29286 45.9491 9.27912C45.9336 9.26538 45.9214 9.24836 45.9134 9.2293L44.0466 5.2575C43.8829 4.88558 43.6146 4.56929 43.2743 4.34715C42.9341 4.12501 42.5366 4.00662 42.1302 4.00638C41.7286 4.00472 41.335 4.11909 40.9968 4.33576C40.6586 4.55242 40.3901 4.86215 40.2237 5.22771L38.357 9.19951C38.3468 9.21888 38.3327 9.23593 38.3156 9.2496C38.2986 9.26327 38.2788 9.27326 38.2577 9.27895L34.0079 9.96409C33.6227 10.0215 33.261 10.1846 32.963 10.4352C32.665 10.6859 32.4424 11.0144 32.3199 11.384C32.198 11.7543 32.1799 12.1508 32.2674 12.5306C32.3549 12.9105 32.5448 13.2591 32.8163 13.5387L35.9541 16.7658C35.9631 16.7861 35.9678 16.8081 35.9678 16.8303C35.9678 16.8526 35.9631 16.8746 35.9541 16.8949L35.2193 21.4029C35.151 21.7955 35.1955 22.1994 35.3477 22.5677C35.4999 22.936 35.7535 23.2535 36.079 23.4833C36.4045 23.7132 36.7886 23.8459 37.1866 23.8661C37.5846 23.8862 37.9801 23.793 38.3272 23.5973L42.0309 21.5419C42.0493 21.5323 42.0698 21.5273 42.0905 21.5273C42.1112 21.5273 42.1317 21.5323 42.1501 21.5419L45.8538 23.5973C46.2013 23.7888 46.5958 23.8787 46.992 23.8567C47.3882 23.8347 47.7703 23.7016 48.0945 23.4727C48.4187 23.2438 48.6719 22.9283 48.8253 22.5623C48.9786 22.1963 49.0259 21.7945 48.9617 21.4029L48.2766 16.9147C48.2661 16.8966 48.2606 16.8761 48.2606 16.8552C48.2606 16.8342 48.2661 16.8137 48.2766 16.7956L51.454 13.5387Z" fill="#90A3BF"/>
</g>
<g opacity="0.8">
<path d="M81.2392 14.5182C81.5119 14.2394 81.7019 13.8903 81.7878 13.5098C81.8737 13.1294 81.8522 12.7325 81.7257 12.3635C81.607 11.9935 81.3868 11.6642 81.0901 11.4131C80.7934 11.1621 80.4322 10.9994 80.0476 10.9436L75.7879 10.2883C75.768 10.2825 75.7497 10.2724 75.7342 10.2586C75.7188 10.2449 75.7066 10.2279 75.6985 10.2088L73.8318 6.23702C73.6681 5.8651 73.3998 5.54881 73.0595 5.32667C72.7192 5.10453 72.3217 4.98614 71.9154 4.9859C71.5137 4.98424 71.1201 5.09862 70.7819 5.31528C70.4437 5.53194 70.1753 5.84167 70.0089 6.20723L68.1422 10.179C68.132 10.1984 68.1179 10.2155 68.1008 10.2291C68.0837 10.2428 68.064 10.2528 68.0429 10.2585L63.793 10.9436C63.4079 11.001 63.0462 11.1641 62.7482 11.4148C62.4501 11.6654 62.2275 11.9939 62.105 12.3635C61.9832 12.7338 61.965 13.1303 62.0526 13.5102C62.1401 13.89 62.3299 14.2386 62.6015 14.5182L65.7392 17.7453C65.7483 17.7656 65.7529 17.7876 65.7529 17.8099C65.7529 17.8321 65.7483 17.8541 65.7392 17.8744L65.0044 22.3824C64.9361 22.775 64.9807 23.1789 65.1328 23.5472C65.285 23.9155 65.5386 24.233 65.8642 24.4628C66.1897 24.6927 66.5738 24.8254 66.9718 24.8456C67.3697 24.8658 67.7653 24.7726 68.1124 24.5768L71.8161 22.5214C71.8345 22.5118 71.8549 22.5068 71.8757 22.5068C71.8964 22.5068 71.9168 22.5118 71.9352 22.5214L75.6389 24.5768C75.9865 24.7684 76.3809 24.8582 76.7772 24.8362C77.1734 24.8142 77.5554 24.6811 77.8796 24.4522C78.2038 24.2233 78.4571 23.9078 78.6104 23.5418C78.7638 23.1758 78.8111 22.774 78.7469 22.3824L78.0617 17.8943C78.0513 17.8761 78.0458 17.8556 78.0458 17.8347C78.0458 17.8138 78.0513 17.7932 78.0617 17.7751L81.2392 14.5182Z" fill="#7B60A1"/>
</g>
<g opacity="0.8">
<path d="M111.239 14.5182C111.512 14.2394 111.702 13.8903 111.788 13.5098C111.874 13.1294 111.852 12.7325 111.726 12.3635C111.607 11.9935 111.387 11.6642 111.09 11.4131C110.793 11.1621 110.432 10.9994 110.048 10.9436L105.788 10.2883C105.768 10.2825 105.75 10.2724 105.734 10.2586C105.719 10.2449 105.707 10.2279 105.699 10.2088L103.832 6.23702C103.668 5.8651 103.4 5.54881 103.059 5.32667C102.719 5.10453 102.322 4.98614 101.915 4.9859C101.514 4.98424 101.12 5.09862 100.782 5.31528C100.444 5.53194 100.175 5.84167 100.009 6.20723L98.1422 10.179C98.132 10.1984 98.1179 10.2155 98.1008 10.2291C98.0837 10.2428 98.064 10.2528 98.0429 10.2585L93.793 10.9436C93.4079 11.001 93.0462 11.1641 92.7482 11.4148C92.4501 11.6654 92.2275 11.9939 92.105 12.3635C91.9832 12.7338 91.965 13.1303 92.0526 13.5102C92.1401 13.89 92.3299 14.2386 92.6015 14.5182L95.7392 17.7453C95.7483 17.7656 95.7529 17.7876 95.7529 17.8099C95.7529 17.8321 95.7483 17.8541 95.7392 17.8744L95.0044 22.3824C94.9361 22.775 94.9807 23.1789 95.1328 23.5472C95.285 23.9155 95.5386 24.233 95.8642 24.4628C96.1897 24.6927 96.5738 24.8254 96.9718 24.8456C97.3697 24.8658 97.7653 24.7726 98.1124 24.5768L101.816 22.5214C101.834 22.5118 101.855 22.5068 101.876 22.5068C101.896 22.5068 101.917 22.5118 101.935 22.5214L105.639 24.5768C105.986 24.7684 106.381 24.8582 106.777 24.8362C107.173 24.8142 107.555 24.6811 107.88 24.4522C108.204 24.2233 108.457 23.9078 108.61 23.5418C108.764 23.1758 108.811 22.774 108.747 22.3824L108.062 17.8943C108.051 17.8761 108.046 17.8556 108.046 17.8347C108.046 17.8138 108.051 17.7932 108.062 17.7751L111.239 14.5182Z" fill="#7B60A1"/>
</g>
<g opacity="0.8">
<path d="M140.821 14.5182C141.094 14.2394 141.284 13.8903 141.37 13.5098C141.456 13.1294 141.434 12.7325 141.308 12.3635C141.189 11.9935 140.969 11.6642 140.672 11.4131C140.375 11.1621 140.014 10.9994 139.63 10.9436L135.37 10.2883C135.35 10.2825 135.332 10.2724 135.316 10.2586C135.301 10.2449 135.289 10.2279 135.281 10.2088L133.414 6.23702C133.25 5.8651 132.982 5.54881 132.642 5.32667C132.301 5.10453 131.904 4.98614 131.497 4.9859C131.096 4.98424 130.702 5.09862 130.364 5.31528C130.026 5.53194 129.757 5.84167 129.591 6.20723L127.724 10.179C127.714 10.1984 127.7 10.2155 127.683 10.2291C127.666 10.2428 127.646 10.2528 127.625 10.2585L123.375 10.9436C122.99 11.001 122.628 11.1641 122.33 11.4148C122.032 11.6654 121.81 11.9939 121.687 12.3635C121.565 12.7338 121.547 13.1303 121.635 13.5102C121.722 13.89 121.912 14.2386 122.184 14.5182L125.321 17.7453C125.33 17.7656 125.335 17.7876 125.335 17.8099C125.335 17.8321 125.33 17.8541 125.321 17.8744L124.586 22.3824C124.518 22.775 124.563 23.1789 124.715 23.5472C124.867 23.9155 125.121 24.233 125.446 24.4628C125.772 24.6927 126.156 24.8254 126.554 24.8456C126.952 24.8658 127.347 24.7726 127.694 24.5768L131.398 22.5214C131.417 22.5118 131.437 22.5068 131.458 22.5068C131.478 22.5068 131.499 22.5118 131.517 22.5214L135.221 24.5768C135.569 24.7684 135.963 24.8582 136.359 24.8362C136.755 24.8142 137.137 24.6811 137.462 24.4522C137.786 24.2233 138.039 23.9078 138.192 23.5418C138.346 23.1758 138.393 22.774 138.329 22.3824L137.644 17.8943C137.633 17.8761 137.628 17.8556 137.628 17.8347C137.628 17.8138 137.633 17.7932 137.644 17.7751L140.821 14.5182Z" fill="#7B60A1"/>
</g>
<path d="M140.821 12.049C141.094 11.7701 141.284 11.421 141.37 11.0406C141.456 10.6601 141.434 10.2632 141.308 9.89426C141.189 9.5242 140.969 9.1949 140.672 8.94387C140.375 8.69283 140.014 8.53015 139.63 8.47434L135.37 7.81899C135.35 7.81323 135.332 7.80311 135.316 7.78937C135.301 7.77563 135.289 7.75861 135.281 7.73956L133.414 3.76775C133.25 3.39583 132.982 3.07954 132.642 2.8574C132.301 2.63527 131.904 2.51687 131.497 2.51663C131.096 2.51497 130.702 2.62935 130.364 2.84601C130.026 3.06267 129.757 3.3724 129.591 3.73796L127.724 7.70977C127.714 7.72913 127.7 7.74618 127.683 7.75985C127.666 7.77352 127.646 7.78351 127.625 7.7892L123.375 8.47434C122.99 8.53172 122.628 8.69482 122.33 8.9455C122.032 9.19618 121.81 9.52461 121.687 9.89426C121.565 10.2645 121.547 10.6611 121.635 11.0409C121.722 11.4207 121.912 11.7694 122.184 12.049L125.321 15.2761C125.33 15.2964 125.335 15.3184 125.335 15.3406C125.335 15.3628 125.33 15.3848 125.321 15.4051L124.586 19.9131C124.518 20.3057 124.563 20.7096 124.715 21.0779C124.867 21.4462 125.121 21.7637 125.446 21.9936C125.772 22.2234 126.156 22.3561 126.554 22.3763C126.952 22.3965 127.347 22.3033 127.694 22.1075L131.398 20.0521C131.417 20.0426 131.437 20.0376 131.458 20.0376C131.478 20.0376 131.499 20.0426 131.517 20.0521L135.221 22.1075C135.569 22.2991 135.963 22.389 136.359 22.3669C136.755 22.3449 137.137 22.2118 137.462 21.9829C137.786 21.754 138.039 21.4386 138.192 21.0725C138.346 20.7065 138.393 20.3048 138.329 19.9131L137.644 15.425C137.633 15.4069 137.628 15.3863 137.628 15.3654C137.628 15.3445 137.633 15.324 137.644 15.3058L140.821 12.049Z" fill="url(#paint0_linear_1092_17354)"/>
<path d="M111.239 12.049C111.512 11.7701 111.702 11.421 111.788 11.0406C111.874 10.6601 111.852 10.2632 111.726 9.89426C111.607 9.5242 111.387 9.1949 111.09 8.94387C110.793 8.69283 110.432 8.53015 110.048 8.47434L105.788 7.81899C105.768 7.81323 105.75 7.80311 105.734 7.78937C105.719 7.77563 105.707 7.75861 105.699 7.73956L103.832 3.76775C103.668 3.39583 103.4 3.07954 103.059 2.8574C102.719 2.63527 102.322 2.51687 101.915 2.51663C101.514 2.51497 101.12 2.62935 100.782 2.84601C100.444 3.06267 100.175 3.3724 100.009 3.73796L98.1422 7.70977C98.132 7.72913 98.1179 7.74618 98.1008 7.75985C98.0837 7.77352 98.064 7.78351 98.0429 7.7892L93.793 8.47434C93.4079 8.53172 93.0462 8.69482 92.7482 8.9455C92.4501 9.19618 92.2275 9.52461 92.105 9.89426C91.9832 10.2645 91.965 10.6611 92.0526 11.0409C92.1401 11.4207 92.3299 11.7694 92.6015 12.049L95.7392 15.2761C95.7483 15.2964 95.7529 15.3184 95.7529 15.3406C95.7529 15.3628 95.7483 15.3848 95.7392 15.4051L95.0044 19.9131C94.9361 20.3057 94.9807 20.7096 95.1328 21.0779C95.285 21.4462 95.5386 21.7637 95.8642 21.9936C96.1897 22.2234 96.5738 22.3561 96.9718 22.3763C97.3697 22.3965 97.7653 22.3033 98.1124 22.1075L101.816 20.0521C101.834 20.0426 101.855 20.0376 101.876 20.0376C101.896 20.0376 101.917 20.0426 101.935 20.0521L105.639 22.1075C105.986 22.2991 106.381 22.389 106.777 22.3669C107.173 22.3449 107.555 22.2118 107.88 21.9829C108.204 21.754 108.457 21.4386 108.61 21.0725C108.764 20.7065 108.811 20.3048 108.747 19.9131L108.062 15.425C108.051 15.4069 108.046 15.3863 108.046 15.3654C108.046 15.3445 108.051 15.324 108.062 15.3058L111.239 12.049Z" fill="url(#paint1_linear_1092_17354)"/>
<path d="M81.2392 12.049C81.5119 11.7701 81.7019 11.421 81.7878 11.0406C81.8737 10.6601 81.8522 10.2632 81.7257 9.89426C81.607 9.5242 81.3868 9.1949 81.0901 8.94387C80.7934 8.69283 80.4322 8.53015 80.0476 8.47434L75.7879 7.81899C75.768 7.81323 75.7497 7.80311 75.7342 7.78937C75.7188 7.77563 75.7066 7.75861 75.6985 7.73956L73.8318 3.76775C73.6681 3.39583 73.3998 3.07954 73.0595 2.8574C72.7192 2.63527 72.3217 2.51687 71.9154 2.51663C71.5137 2.51497 71.1201 2.62935 70.7819 2.84601C70.4437 3.06267 70.1753 3.3724 70.0089 3.73796L68.1422 7.70977C68.132 7.72913 68.1179 7.74618 68.1008 7.75985C68.0837 7.77352 68.064 7.78351 68.0429 7.7892L63.793 8.47434C63.4079 8.53172 63.0462 8.69482 62.7482 8.9455C62.4501 9.19618 62.2275 9.52461 62.105 9.89426C61.9832 10.2645 61.965 10.6611 62.0526 11.0409C62.1401 11.4207 62.3299 11.7694 62.6015 12.049L65.7392 15.2761C65.7483 15.2964 65.7529 15.3184 65.7529 15.3406C65.7529 15.3628 65.7483 15.3848 65.7392 15.4051L65.0044 19.9131C64.9361 20.3057 64.9807 20.7096 65.1328 21.0779C65.285 21.4462 65.5386 21.7637 65.8642 21.9936C66.1897 22.2234 66.5738 22.3561 66.9718 22.3763C67.3697 22.3965 67.7653 22.3033 68.1124 22.1075L71.8161 20.0521C71.8345 20.0426 71.8549 20.0376 71.8757 20.0376C71.8964 20.0376 71.9168 20.0426 71.9352 20.0521L75.6389 22.1075C75.9865 22.2991 76.3809 22.389 76.7772 22.3669C77.1734 22.3449 77.5554 22.2118 77.8796 21.9829C78.2038 21.754 78.4571 21.4386 78.6104 21.0725C78.7638 20.7065 78.8111 20.3048 78.7469 19.9131L78.0617 15.425C78.0513 15.4069 78.0458 15.3863 78.0458 15.3654C78.0458 15.3445 78.0513 15.324 78.0617 15.3058L81.2392 12.049Z" fill="url(#paint2_linear_1092_17354)"/>
<defs>
<linearGradient id="paint0_linear_1092_17354" x1="141.422" y1="12.4482" x2="121.58" y2="12.4482" gradientUnits="userSpaceOnUse">
<stop stop-color="#FEBF10"/>
<stop offset="1" stop-color="#FEDB7C"/>
</linearGradient>
<linearGradient id="paint1_linear_1092_17354" x1="111.839" y1="12.4482" x2="91.998" y2="12.4482" gradientUnits="userSpaceOnUse">
<stop stop-color="#FEBF10"/>
<stop offset="1" stop-color="#FEDB7C"/>
</linearGradient>
<linearGradient id="paint2_linear_1092_17354" x1="81.8395" y1="12.4482" x2="61.998" y2="12.4482" gradientUnits="userSpaceOnUse">
<stop stop-color="#FEBF10"/>
<stop offset="1" stop-color="#FEDB7C"/>
</linearGradient>
</defs>
</svg>
