<svg width="88" height="88" viewBox="0 0 88 88" fill="none" xmlns="http://www.w3.org/2000/svg">
<g clip-path="url(#clip0_1092_17474)">
<path d="M87.5915 15.6683C84.7264 16.9244 81.6566 17.7617 78.7915 18.1804C80.224 17.9711 82.2705 15.2497 83.0892 14.203C84.3171 12.7376 85.545 10.8536 85.9543 8.96957C85.9543 8.76023 86.1589 8.5509 85.9543 8.5509C85.7496 8.5509 85.545 8.5509 85.545 8.5509C82.2705 10.4349 78.7915 11.6909 74.9031 12.7376C74.6985 12.7376 74.2892 12.7376 74.0845 12.5283C73.8799 12.1096 73.4706 11.9003 73.0612 11.4816C71.424 10.2256 69.7868 8.96957 67.945 8.34156C65.4892 7.29487 62.8287 6.8762 60.1682 7.08554C57.5078 7.29487 55.0519 7.92288 52.8008 9.17891C50.5496 10.4349 48.5031 12.1096 46.8659 14.203C45.2287 16.2964 44.0008 18.8084 43.1822 21.5298C42.5682 24.0418 42.5682 26.7632 42.9775 29.2752C42.9775 29.6939 42.9775 29.6939 42.5682 29.6939C28.4473 27.3912 16.3729 22.1578 6.54962 10.6443C6.14032 10.2256 5.93567 10.2256 5.52637 10.8536C1.22869 17.343 3.47986 27.8099 8.80079 33.0433C9.41474 33.6713 10.2333 34.5087 11.0519 35.1367C10.8473 35.1367 7.16358 34.718 4.09381 33.0433C3.68451 32.834 3.47985 32.834 3.47985 33.462C3.47985 34.09 3.47985 34.718 3.68451 35.5554C4.50311 42.2541 9.00544 48.3249 15.145 50.6276C15.5543 50.8369 16.3729 51.2556 17.1915 51.2556C15.7589 51.6743 14.3264 51.8836 10.2333 51.6743C9.82404 51.6743 9.61939 51.8836 9.82404 52.3023C12.8938 60.6758 19.4426 63.1878 24.1496 64.6532C24.7636 64.8625 25.3775 64.8625 26.1961 64.8625C26.1961 64.8625 26.1961 64.8625 25.9915 65.0718C24.5589 67.5839 18.8287 69.2586 16.1682 70.3053C11.4613 71.98 6.14032 72.8173 1.22869 72.1893C0.410087 71.98 0.205436 71.98 0.000784916 72.1893C-0.203866 72.3986 0.000784923 72.608 0.205436 72.8173C1.22869 73.4453 2.25195 74.0733 3.2752 74.7014C6.54962 76.376 9.82404 77.8414 13.3031 78.8881C31.3124 83.9122 51.5729 80.1441 64.8752 66.5372C75.5171 55.861 79.2008 40.9981 79.2008 26.1352C79.2008 25.5072 79.8147 25.2978 80.224 24.8792C82.8845 22.7858 85.1357 20.2738 87.1822 17.343C88.0008 16.715 88.0008 16.087 88.0008 15.8777C88.0008 15.459 88.0008 15.6683 87.5915 15.6683Z" fill="#33CCFF"/>
</g>
<defs>
<clipPath id="clip0_1092_17474">
<rect width="88" height="74.1053" fill="white" transform="translate(0 6.875)"/>
</clipPath>
</defs>
</svg>
