<svg width="240" height="60" viewBox="0 0 240 60" fill="none" xmlns="http://www.w3.org/2000/svg">
<path fill-rule="evenodd" clip-rule="evenodd" d="M17.3 57.4L17.3104 57.3H32L34.1 37.6L39.5 37.7C42.1 37.8 44.4 37.4 46.4 36.7C48.4 36 50.1 35 51.5 33.8C52.9 32.6 54.1 31.3 55.1 29.7C56.1 28.1 56.8 26.6 57.4 25C58 23.4 58.4 21.9 58.6 20.5C58.9 19 59 17.8 59 16.8C59 14.4 58.7 12.2 57.9 10.3C57.2 8.4 56 6.7 54.3 5.3C52.6 3.9 50.5 2.9 47.8 2.1C45.1 1.4 41.9 1 38.1 1C32.7 1 27.7 1.4 23.3 2.3C18.9 3.2 15.1 4.5 11.9 6.2C8.8 7.9 6.3 10.1 4.6 12.4C2.9 14.7 2 17.4 2 20.3C2 21.4 2.2 22.4 2.5 23.4C2.8 24.4 3.3 25.2 3.9 26C4.6 26.7 5.3 27.3 6.2 27.8C7.1 28.3 8.1 28.5 9.2 28.5C10.2 28.5 11.1 28.3 12 27.9C12.9 27.5 13.6 27 14.3 26.3C15 25.7 15.5 24.9 15.9 24C16.3 23.1 16.5 22.2 16.5 21.2C16.5 20.1 16.2 19 15.6 17.9C15.55 17.85 15.525 17.8 15.5 17.75C15.475 17.7 15.45 17.65 15.4 17.6C14.4 16 15 14 16.7 13.3C16.85 13.25 16.975 13.2 17.1 13.15L17.1 13.15C17.225 13.1 17.35 13.05 17.5 13C19.6 12.2 21.8 13.9 21.6 16.1L17.3104 57.3H17.3V57.4ZM45 17.1C45 15.1 44.3 13.4 42.8 12.2C41.3 11 39.4 10.4 37 10.4L35.1 28.4C37.1 28.3 38.7 27.8 40 27.1C41.3 26.4 42.3 25.4 43 24.3C43.7 23.2 44.2 22 44.5 20.7C44.8 19.5 45 18.3 45 17.1ZM79.7215 44.2789L79.7215 44.2786L79.7218 44.2765C79.7466 44.0666 79.7733 43.8404 79.8 43.6C79.8815 42.8665 80.0294 42.0665 80.1897 41.2001L80.1897 41.1997C80.2261 41.0032 80.263 40.8033 80.3 40.6C80.406 40.0172 80.4839 39.4063 80.5634 38.7822L80.5634 38.7821L80.5635 38.7819L80.5635 38.7817L80.5635 38.7814L80.5636 38.7811L80.5636 38.7808C80.6342 38.2275 80.706 37.6637 80.8 37.1C80.9 35.9 81 34.7 81 33.7C81 32.4 80.8 31.4 80.5 30.5C80.2 29.6 79.5 29.2 78.5 29.2C78.1 29.2 77.7 29.3 77.3 29.6C76.9 29.8 76.6 30.1 76.3 30.5C76.113 30.687 75.9648 30.913 75.807 31.1535L75.8068 31.1538C75.7116 31.299 75.6129 31.4495 75.5 31.6C75.4294 31.7413 75.3587 31.8701 75.2925 31.9908L75.2922 31.9915L75.292 31.9918L75.2919 31.9919C75.1708 32.2126 75.0646 32.4063 75 32.6L72.5 57.5H58.4L63.8 5.3C64 3.1 65.8 1.5 68 1.5H73.7C76.3 1.5 78.2 3.7 77.9 6.3C77.7717 7.24119 77.6616 8.20068 77.562 9.06886L77.562 9.06909L77.562 9.0693L77.562 9.06951C77.4288 10.2304 77.3144 11.2279 77.2 11.8C77 13.7 76.8 15.5 76.5 17.3C76.3 19.1 76.1 20.7 75.9 22C76.9 21 78 20.3 79.3 19.7C80.6 19.2 82 18.9 83.7 18.9C85.7 18.9 87.5 19.2 88.9 19.8C90.3 20.4 91.5 21.2 92.4 22.3C93.3 23.4 93.9 24.7 94.4 26.3C94.8 27.9 95 29.7 95 31.7C95 33 94.9 34.3 94.8 35.5C94.7 36.6999 94.5 37.7999 94.3 38.8998L94.3 38.9C94.2071 39.3643 94.1358 39.8287 94.0661 40.283C93.9856 40.8071 93.9071 41.3179 93.8 41.8C93.6 42.7 93.6 43.5 93.6 44.2C93.6 44.6 93.6 45 93.7 45.4C93.8 45.8 93.9 46.1 94.1 46.4C94.3 46.7 94.6 47 94.9 47.2C95.2 47.4 95.6 47.5 96.2 47.5C96.9 47.5 97.5 47.4 98 47.1C98.3333 46.9667 98.6667 46.7444 99 46.5222C99.1667 46.4111 99.3333 46.3 99.5 46.2C99.8892 45.9665 100.157 45.6118 100.445 45.2303L100.446 45.2299L100.447 45.2286C100.528 45.1205 100.612 45.0103 100.7 44.9C100.784 44.7601 100.868 44.628 100.95 44.4994L100.95 44.4992C101.119 44.2327 101.279 43.9811 101.41 43.7052C101.403 43.4735 101.4 43.2384 101.4 43C101.4 41 101.5 39.1 101.8 37.1C102.1 35.1 102.6 33.2 103.2 31.5C103.8 29.8 104.7 28 105.7 26.5C106.7 24.9 108 23.6 109.4 22.4C110.9 21.3 112.5 20.4 114.5 19.7C116.4 19 118.6 18.7 121 18.7C123.8 18.7 126.2 19 128.1 19.5C130 20 131.6 20.8 132.7 21.9C133.9 23 134.7 24.3 135.2 25.9C135.7 27.5 136 29.3 136 31.4C136 32.5 135.7 33.4 135 34.4C134.3 35.3 133.5 36.1 132.4 36.9C131.3 37.6 130 38.3 128.6 38.9C127.2 39.5 125.7 40 124.2 40.5C122.844 40.9519 121.489 41.2404 120.207 41.5133C120.07 41.5423 119.935 41.5711 119.8 41.6C118.4 41.9 117 42.1 115.8 42.2C115.8 42.3 115.775 42.4 115.75 42.5L115.75 42.5001C115.725 42.6001 115.7 42.7 115.7 42.8V43.3C115.7 44.4 115.9 45.3 116.2 46C116.5 46.7 117 47.4 117.5 47.9C118.1 48.4 118.7 48.7 119.5 49C120.3 49.2 121.1 49.3 121.9 49.3C123.7 49.3 125.3 49.1 126.8 48.8C128.3 48.5 129.6 48.1 130.8 47.6C132 47.1 133.1 46.6 134.1 46C134.821 45.5676 135.489 45.1871 136.144 44.8212L138.4 22C138.6 19.8 140.4 18.2 142.6 18.2H153L152.5 22.8C153.7 21.4 155 20.4 156.5 19.7C158 19 159.6 18.6 161.3 18.6C165.9 18.6 168.8 20.4 170.2 24.1C171.5 22.4 173.1 21 175 20.1C176.9 19.2 178.8 18.7 180.9 18.7C182.7 18.7 184.3 19 185.6 19.5C186.9 20 188 20.8 188.8 21.7C189.6 22.7 190.3 23.8 190.7 25.2C191.1 26.6 191.3 28.2 191.3 29.9C191.3 31.014 191.214 32.2142 191.121 33.5005L191.1 33.8C191.033 34.2333 190.978 34.6667 190.922 35.1C190.811 35.9667 190.7 36.8333 190.5 37.7C190.457 37.9787 190.414 38.2481 190.372 38.5114L190.372 38.5153L190.372 38.5159C190.218 39.4789 190.078 40.3587 190 41.3C189.8 42.4 189.8 43.4 189.8 44.2C189.8 45 190 45.7 190.3 46.3C190.6 46.9 191.3 47.2 192.3 47.2C193 47.2 193.6 47.1 194.1 46.9C194.6 46.7 195 46.5 195.3 46.1C195.6 45.8 195.9 45.4 196.2 44.9C196.396 44.5734 196.549 44.2467 196.716 43.8922C196.804 43.704 196.896 43.508 197 43.3L197.104 43.4208C197.101 43.2817 197.1 43.1415 197.1 43C197.1 41 197.2 39.1 197.5 37.1C197.8 35.1 198.3 33.2 198.9 31.5C199.5 29.8 200.4 28 201.4 26.5C202.4 24.9 203.7 23.6 205.1 22.4C206.6 21.3 208.2 20.4 210.2 19.7C212.1 19 214.3 18.7 216.7 18.7C219.5 18.7 221.9 19 223.8 19.5C225.7 20 227.3 20.8 228.4 21.9C229.6 23 230.4 24.3 230.9 25.9C231.4 27.5 231.7 29.3 231.7 31.4C231.7 32.5 231.4 33.4 230.7 34.4C230 35.3 229.2 36.1 228.1 36.9C227 37.6 225.7 38.3 224.3 38.9C222.9 39.5 221.4 40 219.9 40.5C218.544 40.9519 217.189 41.2404 215.907 41.5133C215.77 41.5423 215.635 41.5711 215.5 41.6C214.1 41.9 212.7 42.1 211.5 42.2C211.5 42.3 211.475 42.4 211.45 42.5C211.425 42.6 211.4 42.7 211.4 42.8V43.3C211.4 44.4 211.6 45.3 211.9 46C212.2 46.8 212.7 47.4 213.2 47.9C213.8 48.4 214.4 48.7 215.2 49C216 49.2 216.8 49.3 217.6 49.3C219.4 49.3 221 49.1 222.5 48.8C224 48.5 225.3 48.1 226.5 47.6C227.7 47.1 228.8 46.6 229.8 46C230.8 45.4001 231.7 44.9002 232.599 44.4003L232.6 44.4L237.7 48.8C236.4 50 235.1 51.1 233.6 52.3C232.1 53.5 230.5 54.5 228.8 55.5C227.1 56.4 225.1 57.2 223.1 57.8C221 58.4 218.7 58.7 216.2 58.7C213.5 58.7 210.9 58.4 208.6 57.9C206.3 57.3 204.3 56.4 202.6 55.2C201.087 54.0428 199.89 52.6479 198.941 50.9447C198.771 51.2001 198.591 51.4519 198.4 51.7C197.5 53 196.4 54.1 195.2 55C194 55.9 192.7 56.7 191.2 57.2C189.8 57.7 188.3 58 186.9 58C184.6 58 182.7 57.7 181.3 57C179.9 56.3 178.8 55.5 178 54.4C177.2 53.3 176.7 52.1 176.4 50.8C176.1 49.5 176 48.1 176 46.8C176 45.9 176.1 44.9 176.2 43.9L176.225 43.6494C176.317 42.7184 176.417 41.7171 176.6 40.8C176.653 40.2124 176.735 39.6534 176.815 39.1077C176.885 38.6317 176.953 38.1659 177 37.7C176.933 36.9667 176.956 36.3222 176.978 35.6778C176.989 35.3556 177 35.0333 177 34.7C177 34.1 177 33.4 176.9 32.7C176.8 32 176.7 31.4 176.5 30.9C176.3 30.4 176.1 29.9 175.7 29.6C175.4 29.3 175 29.1 174.4 29.1C173.8 29.1 173.2 29.4 172.7 30.1C172.2 30.8 171.8 31.6 171.4 32.5L168.9 57.3H154.9L157.3 34.6C157.4 34.2 157.4 33.7 157.4 33.1C157.4 32.5 157.4 31.8 157.3 31.3C157.2 30.7 157 30.2 156.6 29.8C156.3 29.4 155.8 29.1 155.1 29.1C154.3 29.1 153.6 29.4 153 30.1C152.4 30.8 151.9 31.6 151.5 32.6L149 57.4H134.9L135.216 54.2082C134.528 54.6491 133.823 55.0745 133.1 55.5C131.4 56.4 129.4 57.2 127.4 57.8C125.3 58.4 123 58.7 120.5 58.7C117.8 58.7 115.2 58.4 112.9 57.9C110.6 57.3 108.6 56.4 106.9 55.2C105.445 54.0877 104.284 52.7558 103.352 51.1416C103.176 51.398 102.992 51.6509 102.8 51.9C101.8 53.2 100.7 54.3 99.4 55.2C98.1 56.1 96.8 56.9 95.3 57.4C93.8 57.9 92.4 58.2 90.9 58.2C88.5 58.2 86.5 57.8 85 56.9C83.5 56.1 82.4 55 81.6 53.7C80.8 52.4 80.3 51.1 80 49.6C79.7 48.1 79.6 46.8 79.6 45.6C79.6 45.3074 79.6535 44.8543 79.7214 44.2799L79.7214 44.2797L79.7215 44.2789ZM118.8 35.7C118 36 117.1 36.2 116.2 36.3C116.265 35.5865 116.498 34.831 116.736 34.0607C116.864 33.6434 116.995 33.2217 117.1 32.8C117.4 31.6 117.8 30.6 118.3 29.7C118.8 28.8 119.3 28.1 119.9 27.5C120.5 27 121.1 26.7 121.8 26.7C122.6 26.7 123.1 27 123.3 27.7C123.6 28.4 123.8 29.2 123.9 30.1C123.7 30.9 123.4 31.7 122.9 32.4C122.4 33.1 121.8 33.7 121.1 34.3C120.4 34.9 119.6 35.4 118.8 35.7ZM214.5 35.7C213.7 36 212.8 36.2 211.9 36.3C212.026 35.6045 212.233 34.869 212.443 34.1188C212.566 33.6825 212.69 33.2413 212.8 32.8C213.1 31.6 213.5 30.6 214 29.7C214.5 28.8 215 28.1 215.6 27.5C216.2 27 216.8 26.7 217.5 26.7C218.3 26.7 218.8 27 219 27.7C219.3 28.4 219.5 29.2 219.6 30.1C219.4 30.9 219.1 31.7 218.6 32.4C218.1 33.1 217.5 33.7 216.8 34.3C216.1 34.9 215.3 35.4 214.5 35.7Z" fill="#07BAFE"/>
</svg>
