<svg width="171" height="32" viewBox="0 0 171 32" fill="none" xmlns="http://www.w3.org/2000/svg">
<g clip-path="url(#clip0_1092_17198)">
<path d="M24.7828 14.4212C26.2213 12.909 26.8852 11.1754 26.7376 9.25753C26.6639 8.26169 26.295 7.37649 25.7049 6.7126C25.041 5.97494 24.1189 5.60611 23.0124 5.60611C22.9387 5.60611 22.8649 5.60611 22.7911 5.60611C22.7543 5.60611 22.7174 5.60611 22.6805 5.60611C22.6805 5.56922 22.6805 5.56922 22.6805 5.53234C22.8649 4.46273 22.828 3.61442 22.6436 2.80299C22.1641 1.06949 20.8363 -0.00012207 19.1397 -0.00012207C18.7709 -0.00012207 18.3652 0.0736441 17.9595 0.184293C17.6275 0.294943 17.2956 0.405592 17.0005 0.590007V0.553124L16.6317 0.811306C16.2997 1.0326 15.9678 1.29079 15.6727 1.58585C15.6358 1.6965 15.5989 1.77027 15.5621 1.84403C15.5252 1.84403 15.5252 1.84403 15.4883 1.84403C15.4145 1.73338 15.3039 1.62273 15.1932 1.4752C15.0826 1.32767 14.935 1.18014 14.7875 1.0326L14.6769 0.921955C14.013 0.331826 13.2015 -0.00012207 12.3163 -0.00012207C11.8369 -0.00012207 11.3574 0.110527 10.9148 0.294943C9.40259 0.885072 8.29609 1.9178 7.6322 3.31935C7.1896 4.05702 7.00519 4.68403 6.93142 5.20039C6.89454 5.38481 6.747 5.53234 6.56259 5.53234C6.52571 5.53234 6.48882 5.53234 6.45194 5.53234C5.64051 5.53234 4.82908 6.01182 4.71844 6.08559C2.65298 7.15519 1.47273 8.92558 1.25143 11.4336C1.17766 12.0606 1.25143 12.6877 1.43584 13.2409C1.54649 13.7573 1.76779 14.163 2.06285 14.458C2.09974 14.4949 2.13662 14.5318 2.1735 14.5687C2.21039 14.6056 2.24727 14.6425 2.28415 14.6793C1.73091 15.1219 1.32519 15.749 1.25143 15.8965C0.108051 17.4456 -0.260779 19.1791 0.181818 21.0232C0.513765 22.3879 1.47273 23.4206 2.8374 23.7157C3.13246 23.7895 3.42753 23.8632 3.72259 23.8632C3.83324 23.8632 3.90701 23.8632 3.98077 23.8632C3.87012 24.3796 3.90701 24.896 3.90701 25.0435C3.90701 25.3017 3.94389 25.6336 3.98077 25.9656C4.16519 27.3302 4.75532 28.3261 5.78805 28.9162C6.37817 29.285 7.00519 29.4326 7.6322 29.4326C8.33298 29.4326 9.03375 29.2113 9.73453 28.8056C10.214 28.5474 10.6197 28.1785 11.0254 27.8835C11.1361 27.8097 11.2099 27.736 11.3205 27.6622C12.0951 28.8424 13.1647 29.4695 14.4187 29.4695C14.935 29.4695 15.4883 29.3588 16.0415 29.1006C17.8857 28.2892 19.1397 26.777 19.6561 24.6378C19.7298 24.4165 19.7667 24.1952 19.8036 23.9739C19.8036 23.9739 19.8036 23.9739 19.8036 23.937C19.8036 23.937 19.8036 23.937 19.8405 23.937C21.9797 23.937 23.6763 22.8305 24.7828 20.6913C25.9262 18.5152 25.8524 16.5235 24.5615 14.7531C24.5984 14.6056 24.7091 14.5318 24.7828 14.4212ZM23.455 16.5604C24.1927 17.7038 24.1189 18.8102 23.5288 19.9905C22.9756 21.0232 22.0166 21.9084 20.7626 21.9453C19.8405 21.9822 18.9553 22.3879 18.5127 23.2362C18.2914 23.6788 18.2545 24.2321 18.0701 24.7484C17.7382 25.818 16.5948 27.5884 15.2301 27.4409C15.1195 27.4409 15.0088 27.404 14.8982 27.3671C14.4187 27.1827 14.2343 26.777 13.9392 26.445C13.6441 26.1131 13.2384 25.8549 12.8327 25.7443C11.9475 25.523 11.0254 25.8549 10.3615 26.4082C9.95583 26.7401 9.55012 27.1089 9.03376 27.2934C8.48051 27.4778 7.81661 27.404 7.48467 26.8508C7.37402 26.6295 7.30025 26.4082 7.26337 26.1869C7.04207 24.9697 7.55843 23.7157 6.63636 22.683C6.19376 22.1666 5.52986 21.8715 4.82908 21.8715C4.12831 21.8715 3.53818 21.6502 3.35376 20.9126C3.09558 19.843 3.35376 18.7365 3.94389 17.8513C4.5709 16.8923 5.56675 16.376 5.52986 15.0851C5.52986 14.5687 5.34545 14.0523 5.0135 13.6466C4.60779 13.1671 4.42337 12.7614 4.49714 12.1344C4.60779 11.0648 5.08727 9.92142 5.89869 9.18376C6.30441 8.81493 6.78389 8.55675 7.33713 8.48298C8.07479 8.40922 8.66492 8.48299 9.29194 7.96662C9.91895 7.48714 10.1034 6.82325 10.214 6.08559C10.2878 5.27416 10.7304 4.57338 11.2836 3.98325C11.7631 3.46689 12.6852 2.76611 13.4597 2.95052C13.7548 3.02429 13.9761 3.24559 14.1605 3.46689C14.7506 4.20455 15.3408 4.79468 16.3366 4.83156H16.3735C17.3693 4.83156 18.0332 4.05702 18.7709 3.50377C19.2504 3.13494 20.0249 2.83987 20.615 3.17182C21.3527 3.57754 21.3158 4.64715 21.2421 5.34792C21.1314 6.19623 21.1683 7.00766 21.7584 7.70844C22.0535 8.04039 22.4223 8.29857 22.8649 8.40922C23.3444 8.55675 23.8976 8.40922 24.3771 8.59363C24.9672 8.77805 25.1885 9.40506 25.2254 9.99519C25.3361 11.0648 24.9672 12.0606 24.3033 12.8721C23.9714 13.2778 23.5657 13.5728 23.3075 14.0154C22.9018 14.8269 22.9387 15.7858 23.455 16.5604Z" fill="#3563E9"/>
<path d="M30.7943 16.8186C30.1304 13.8679 29.0239 11.0648 27.4379 8.5199C27.8436 10.7329 27.1429 13.1303 25.5938 14.79C26.5527 16.7079 26.5158 19.1053 25.52 21.0233C24.5242 22.9412 22.6062 24.3427 20.5039 24.6747C22.3112 24.9697 24.1553 25.0435 25.8151 25.7443C27.4748 26.4451 28.987 27.9204 29.0608 29.7277C29.0608 29.7645 29.0608 29.8014 29.0608 29.8383C28.987 29.9858 28.8026 29.9121 28.6551 29.8383C27.733 29.2851 26.774 28.8794 25.7413 28.5474C25.2249 28.3999 24.7086 28.2523 24.1922 28.1786C23.639 28.1048 23.0488 27.9942 22.4956 28.1048C21.4629 28.3261 20.8359 29.5433 21.5366 30.4284C21.9792 31.0186 22.9382 31.1292 23.5283 30.6866C24.1184 30.244 24.266 29.322 23.8234 28.6949C24.5979 28.99 25.1881 29.5801 25.7782 30.1334C26.3683 30.7235 26.9584 31.3136 27.6961 31.6087C28.1018 31.7931 28.5444 31.83 28.987 31.7931C29.4296 31.7194 29.7616 31.4981 30.1304 31.2399C30.868 30.7235 31.0893 29.7645 31.2369 28.9162C31.2738 28.8056 31.2738 28.6581 31.2738 28.5474C31.7901 24.6747 31.6795 20.6544 30.7943 16.8186ZM22.68 30.0596C22.2374 30.0596 21.9792 29.8014 21.9792 29.3588C21.9792 28.9162 22.3481 28.6581 22.7907 28.6581C23.2333 28.6581 23.4914 28.8056 23.4914 29.2482C23.4914 29.7277 23.1226 30.0596 22.68 30.0596ZM30.7205 28.4736C30.7205 28.5843 30.7943 16.8186 26.6265 14.9007C27.401 13.9417 27.9543 12.7983 28.2125 11.5812C28.987 13.2778 29.614 15.0851 30.0197 16.9661C30.9049 20.5807 31.2369 24.564 30.7205 28.4736Z" fill="#3563E9"/>
<path d="M48.1288 31.2784L50.4561 8.28497C50.5492 7.07479 49.339 6.14388 48.2219 6.60933C48.0357 6.70242 47.9426 6.70243 47.7565 6.79552C46.8255 7.16788 46.4532 8.28497 47.0117 9.21588C47.0117 9.30897 47.1048 9.30897 47.1048 9.40206C47.4772 10.0537 47.5703 10.6122 47.5703 11.2639C47.5703 11.8224 47.4772 12.2879 47.1979 12.8464C47.0117 13.3119 46.6394 13.7773 46.267 14.1497C45.8946 14.5221 45.4292 14.8013 44.9637 14.9875C44.4983 15.1737 43.9397 15.2668 43.3812 15.2668C42.7295 15.2668 42.171 15.1737 41.7055 14.8944C41.2401 14.6152 40.7746 14.3359 40.4954 13.8704C40.123 13.405 39.8437 12.9395 39.7506 12.381C39.6575 11.7293 39.5645 11.1708 39.5645 10.6122C39.5645 9.0297 40.0299 7.54025 41.0539 6.23697C42.0779 4.9337 43.3812 3.8166 45.1499 2.88569C46.9186 1.95479 49.0597 1.21006 51.4801 0.744608C53.9935 0.279154 56.6932 -0.00012207 59.6721 -0.00012207C61.8132 -0.00012207 63.5819 0.186064 65.0714 0.651519C66.5608 1.11697 67.771 1.67551 68.7019 2.42024C69.6328 3.16497 70.2845 4.09588 70.7499 5.21297C71.2154 6.33006 71.4015 7.54024 71.4015 8.84352C71.4015 9.40206 71.3085 10.0537 71.2154 10.8915C71.1223 11.7293 70.843 12.5672 70.5637 13.405C70.2845 14.2428 69.819 15.1737 69.2605 16.0115C68.7019 16.8493 68.0503 17.6872 67.2125 18.3388C66.3746 18.9904 65.4437 19.549 64.3266 20.0144C63.2095 20.3868 61.9994 20.573 60.5099 20.573L57.531 20.4799L56.3208 31.4646H48.1288V31.2784ZM63.4888 8.75043C63.4888 7.63333 63.1165 6.70242 62.2786 6.05079C61.4408 5.39915 60.4168 5.02679 59.0205 5.02679L57.9965 15.0806C59.1135 14.9875 60.0445 14.8013 60.6961 14.3359C61.4408 13.8704 61.9994 13.405 62.3717 12.7533C62.7441 12.1017 63.0234 11.4501 63.2095 10.7984C63.4888 10.1468 63.4888 9.49515 63.4888 8.75043Z" fill="#3563E9"/>
<path d="M82.7581 24.669C82.7581 24.3898 82.7581 24.1105 82.8512 23.5519C82.9443 23.0865 83.0374 22.5279 83.1305 21.8763C83.2235 21.2247 83.3166 20.573 83.4097 19.9214C83.5028 19.2698 83.5028 18.6181 83.5028 17.9665C83.5028 17.2218 83.4097 16.6632 83.2235 16.1978C83.0374 15.7323 82.665 15.453 82.1065 15.453C81.8272 15.453 81.641 15.5461 81.4548 15.6392C81.2686 15.7323 81.0825 15.9185 80.8963 16.1047C80.7101 16.2908 80.617 16.477 80.5239 16.7563C80.4308 17.0356 80.3377 17.1287 80.2446 17.3148L78.8483 31.1854H70.9355L74.0075 2.23411C74.1006 1.02393 75.1246 0.0930176 76.3348 0.0930176H79.4999C80.8963 0.0930176 82.0134 1.3032 81.8272 2.69957C81.641 3.90975 81.5479 5.21302 81.4548 5.77157C81.3617 6.79557 81.1755 7.81957 81.0825 8.84357C80.9894 9.86757 80.8963 10.7054 80.7101 11.4501C81.2686 10.8916 81.9203 10.5192 82.5719 10.2399C83.3166 9.96066 84.0614 9.77448 84.9923 9.77448C86.1094 9.77448 87.0403 9.96066 87.8781 10.2399C88.7159 10.5192 89.2745 10.9847 89.833 11.6363C90.2985 12.2879 90.6708 13.0327 90.9501 13.8705C91.1363 14.7083 91.3225 15.7323 91.3225 16.8494C91.3225 17.5941 91.3225 18.3388 91.2294 18.9905C91.1363 19.6421 91.0432 20.2938 90.9501 20.8523C90.857 21.4108 90.7639 21.9694 90.6708 22.4348C90.5777 22.9003 90.5777 23.3658 90.5777 23.8312C90.5777 24.0174 90.5777 24.2967 90.6708 24.4828C90.6708 24.669 90.7639 24.8552 90.9501 25.0414C91.0432 25.2276 91.2294 25.3207 91.4155 25.5068C91.6017 25.5999 91.7879 25.693 92.0672 25.693C92.4395 25.693 92.8119 25.5999 93.0912 25.5068C93.3705 25.4138 93.6497 25.2276 93.929 24.9483C94.2083 24.669 94.3945 24.4828 94.5806 24.2036C94.7668 23.9243 94.953 23.645 95.0461 23.3658L97.001 25.693C96.7217 26.5308 96.2563 27.2756 95.7908 28.0203C95.2323 28.765 94.5806 29.3236 93.929 29.8821C93.1843 30.4407 92.4395 30.813 91.6017 31.0923C90.7639 31.3716 89.9261 31.5578 89.1814 31.5578C87.785 31.5578 86.761 31.2785 85.9232 30.813C85.0854 30.3476 84.4337 29.789 84.0614 29.0443C83.689 28.2996 83.3166 27.5548 83.1305 26.8101C82.8512 26.0654 82.7581 25.3207 82.7581 24.669Z" fill="#3563E9"/>
<path d="M117.481 26.4376C116.736 27.0893 115.992 27.7409 115.247 28.3925C114.409 29.0442 113.571 29.6027 112.547 30.1613C111.616 30.7198 110.499 31.0922 109.382 31.4645C108.265 31.8369 106.962 31.93 105.565 31.93C104.076 31.93 102.68 31.7438 101.376 31.4645C100.073 31.1853 98.956 30.6267 98.0251 29.9751C97.0942 29.2304 96.3495 28.3925 95.7909 27.2755C95.2324 26.1584 94.9531 24.8551 94.9531 23.1795C94.9531 22.0624 95.0462 20.9453 95.2324 19.9213C95.4186 18.8042 95.6979 17.7802 95.9771 16.7562C96.3495 15.7322 96.8149 14.8013 97.3735 13.9635C97.932 13.1256 98.5837 12.3809 99.4215 11.7293C100.259 11.0776 101.19 10.6122 102.214 10.2398C103.238 9.86745 104.448 9.68127 105.845 9.68127C107.427 9.68127 108.731 9.86746 109.755 10.1467C110.779 10.426 111.709 10.8915 112.361 11.45C113.013 12.0085 113.478 12.7533 113.757 13.6842C114.037 14.522 114.13 15.546 114.13 16.7562C114.13 17.3147 113.944 17.8733 113.571 18.4318C113.199 18.8973 112.733 19.3627 112.082 19.8282C111.43 20.2005 110.779 20.5729 109.941 20.9453C109.103 21.3176 108.358 21.5969 107.52 21.8762C106.683 22.1555 105.845 22.3416 105.1 22.5278C104.262 22.714 103.517 22.8071 102.866 22.9002C102.866 22.9933 102.866 23.0864 102.866 23.2725C102.866 23.3656 102.866 23.4587 102.866 23.5518C102.866 24.1104 102.959 24.6689 103.145 25.0413C103.331 25.5067 103.611 25.786 103.89 26.0653C104.169 26.3445 104.541 26.5307 105.007 26.6238C105.472 26.7169 105.845 26.81 106.31 26.81C107.334 26.81 108.172 26.7169 109.01 26.5307C109.848 26.3445 110.592 26.1584 111.244 25.8791C111.896 25.5998 112.547 25.3205 113.106 25.0413C113.664 24.762 114.13 24.3896 114.595 24.1104L117.481 26.4376ZM103.145 19.5489C103.611 19.5489 104.169 19.3627 104.635 19.1765C105.1 18.9904 105.472 18.7111 105.845 18.4318C106.217 18.1525 106.589 17.7802 106.776 17.4078C107.055 17.0355 107.241 16.57 107.334 16.1976C107.241 15.6391 107.148 15.2667 106.962 14.8944C106.869 14.522 106.589 14.3358 106.124 14.3358C105.752 14.3358 105.379 14.522 105.007 14.8013C104.635 15.0805 104.355 15.546 104.076 16.0115C103.797 16.4769 103.611 17.1285 103.424 17.6871C103.331 18.2456 103.238 18.8973 103.145 19.5489Z" fill="#3563E9"/>
<path d="M136.937 18.6181C136.937 18.2457 136.937 17.8734 136.844 17.501C136.844 17.1286 136.751 16.7563 136.658 16.477C136.564 16.1977 136.378 15.9185 136.285 15.7323C136.099 15.5461 135.913 15.453 135.634 15.453C135.261 15.453 134.982 15.6392 134.703 16.0116C134.423 16.3839 134.144 16.8494 133.958 17.3148L132.562 31.0923H124.742L126.045 18.525C126.045 18.3388 126.138 18.0596 126.138 17.6872C126.138 17.3148 126.138 17.0356 126.045 16.6632C125.952 16.2908 125.859 16.0116 125.673 15.8254C125.487 15.5461 125.207 15.453 124.835 15.453C124.37 15.453 123.997 15.6392 123.625 16.0116C123.252 16.3839 123.066 16.8494 122.787 17.4079L121.484 31.2785H113.664L115.619 11.5432C115.712 10.333 116.736 9.4021 117.946 9.4021H123.718L123.439 12.0086C124.09 11.2639 124.835 10.7054 125.673 10.2399C126.511 9.86756 127.348 9.68138 128.372 9.68138C130.886 9.68138 132.562 10.7054 133.306 12.7534C134.051 11.8225 134.889 11.0777 136.006 10.5192C137.03 9.96065 138.147 9.77446 139.264 9.77446C140.288 9.77446 141.126 9.96065 141.871 10.2399C142.615 10.5192 143.174 10.8916 143.639 11.4501C144.105 12.0086 144.477 12.6603 144.663 13.405C144.85 14.1497 145.036 15.0806 145.036 16.0116C145.036 16.6632 145.036 17.4079 144.943 18.1526C144.85 18.8974 144.756 19.6421 144.663 20.2937C144.57 21.0385 144.477 21.6901 144.384 22.2486C144.291 22.9003 144.291 23.3657 144.291 23.8312C144.291 24.2966 144.384 24.669 144.57 25.0414C144.756 25.4137 145.129 25.5999 145.687 25.5999C146.06 25.5999 146.432 25.5999 146.711 25.4137C146.991 25.3206 147.177 25.2276 147.363 25.0414C147.549 24.8552 147.735 24.669 147.828 24.3897C148.015 24.1105 148.108 23.8312 148.201 23.4588L150.156 25.7861C149.876 26.6239 149.504 27.3686 148.946 28.1134C148.387 28.8581 147.828 29.4166 147.177 29.9752C146.525 30.5337 145.78 30.9061 144.943 31.1854C144.105 31.4647 143.36 31.6508 142.522 31.6508C141.219 31.6508 140.195 31.4646 139.45 31.0923C138.612 30.7199 138.054 30.2545 137.588 29.6028C137.123 29.0443 136.844 28.2996 136.658 27.5548C136.471 26.8101 136.471 26.0654 136.471 25.3206C136.471 24.8552 136.471 24.2966 136.564 23.7381C136.658 23.1796 136.658 22.621 136.751 21.9694C136.844 21.4108 136.937 20.7592 136.937 20.2006C136.937 19.6421 136.937 19.0836 136.937 18.6181Z" fill="#3563E9"/>
<path d="M170.729 26.4376C169.984 27.0893 169.24 27.7409 168.495 28.3925C167.657 29.0442 166.819 29.6027 165.795 30.1613C164.864 30.7198 163.747 31.0922 162.63 31.4645C161.513 31.8369 160.21 31.93 158.814 31.93C157.324 31.93 155.928 31.7438 154.624 31.4645C153.321 31.1853 152.204 30.6267 151.273 29.9751C150.342 29.2304 149.598 28.3925 149.039 27.2755C148.48 26.1584 148.201 24.8551 148.201 23.1795C148.201 22.0624 148.294 20.9453 148.48 19.9213C148.667 18.8042 148.946 17.7802 149.225 16.7562C149.598 15.7322 150.063 14.8013 150.622 13.9635C151.18 13.1256 151.832 12.3809 152.67 11.7293C153.507 11.0776 154.438 10.6122 155.462 10.2398C156.486 9.86745 157.696 9.68127 159.093 9.68127C160.675 9.68127 161.979 9.86746 163.003 10.1467C164.027 10.426 164.958 10.8915 165.609 11.45C166.261 12.0085 166.726 12.7533 167.006 13.6842C167.285 14.522 167.378 15.546 167.378 16.7562C167.378 17.3147 167.192 17.8733 166.819 18.4318C166.447 18.8973 165.982 19.3627 165.33 19.8282C164.678 20.2005 164.027 20.5729 163.189 20.9453C162.351 21.3176 161.606 21.5969 160.768 21.8762C159.931 22.1555 159.093 22.3416 158.348 22.5278C157.51 22.714 156.766 22.8071 156.114 22.9002C156.114 22.9933 156.114 23.0864 156.114 23.2725C156.114 23.3656 156.114 23.4587 156.114 23.5518C156.114 24.1104 156.207 24.6689 156.393 25.0413C156.579 25.5067 156.859 25.786 157.138 26.0653C157.417 26.3445 157.79 26.5307 158.255 26.6238C158.72 26.7169 159.093 26.81 159.558 26.81C160.582 26.81 161.42 26.7169 162.258 26.5307C163.096 26.3445 163.84 26.1584 164.492 25.8791C165.144 25.5998 165.795 25.3205 166.354 25.0413C166.912 24.762 167.378 24.3896 167.843 24.1104L170.729 26.4376ZM156.393 19.5489C156.859 19.5489 157.417 19.3627 157.883 19.1765C158.348 18.9904 158.72 18.7111 159.093 18.4318C159.465 18.1525 159.838 17.7802 160.024 17.4078C160.303 17.0355 160.489 16.57 160.582 16.1976C160.489 15.6391 160.396 15.2667 160.21 14.8944C160.117 14.522 159.838 14.3358 159.372 14.3358C159 14.3358 158.627 14.522 158.255 14.8013C157.883 15.0805 157.603 15.546 157.324 16.0115C157.045 16.4769 156.859 17.1285 156.672 17.6871C156.579 18.2456 156.486 18.8973 156.393 19.5489Z" fill="#3563E9"/>
</g>
<defs>
<clipPath id="clip0_1092_17198">
<rect width="170.861" height="32" fill="white"/>
</clipPath>
</defs>
</svg>
