<svg width="204" height="52" viewBox="0 0 204 52" fill="none" xmlns="http://www.w3.org/2000/svg">
<path fill-rule="evenodd" clip-rule="evenodd" d="M72.2358 42.44L72.242 42.38H80.9333L82.1759 30.56L85.3708 30.62C86.9092 30.68 88.27 30.44 89.4534 30.02C90.6367 29.6 91.6425 29 92.4708 28.28C93.2992 27.56 94.0092 26.78 94.6009 25.82C95.1925 24.86 95.6067 23.96 95.9617 23C96.3167 22.04 96.5533 21.14 96.6717 20.3C96.8492 19.4 96.9083 18.68 96.9083 18.08C96.9083 16.64 96.7308 15.32 96.2575 14.18C95.8433 13.04 95.1334 12.02 94.1275 11.18C93.1217 10.34 91.8792 9.74001 90.2817 9.26001C88.6842 8.84001 86.7909 8.60001 84.5425 8.60001C81.3475 8.60001 78.3892 8.84001 75.7858 9.38001C73.1825 9.92001 70.9342 10.7 69.0408 11.72C67.2067 12.74 65.7275 14.06 64.7217 15.44C63.7158 16.82 63.1833 18.44 63.1833 20.18C63.1833 20.84 63.3017 21.44 63.4792 22.04C63.6567 22.64 63.9525 23.12 64.3075 23.6C64.7217 24.02 65.1358 24.38 65.6683 24.68C66.2008 24.98 66.7925 25.1 67.4433 25.1C68.035 25.1 68.5675 24.98 69.1 24.74C69.6325 24.5 70.0467 24.2 70.4608 23.78C70.875 23.42 71.1708 22.94 71.4075 22.4C71.6442 21.86 71.7625 21.32 71.7625 20.72C71.7625 20.06 71.585 19.4 71.23 18.74C71.2004 18.71 71.1856 18.68 71.1708 18.65C71.1561 18.62 71.1413 18.59 71.1117 18.56C70.52 17.6 70.875 16.4 71.8808 15.98C71.9696 15.95 72.0436 15.92 72.1175 15.89C72.1915 15.86 72.2654 15.83 72.3542 15.8C73.5967 15.32 74.8983 16.34 74.78 17.66L72.242 42.38H72.2358V42.44ZM88.625 18.26C88.625 17.06 88.2109 16.04 87.3234 15.32C86.4359 14.6 85.3117 14.24 83.8917 14.24L82.7675 25.04C83.9509 24.98 84.8975 24.68 85.6667 24.26C86.4359 23.84 87.0275 23.24 87.4417 22.58C87.8559 21.92 88.1517 21.2 88.3292 20.42C88.5067 19.7 88.625 18.98 88.625 18.26ZM109.097 35.36C109.097 35.1843 109.128 34.9122 109.169 34.5671L109.169 34.5664C109.183 34.4403 109.199 34.3044 109.215 34.16C109.263 33.7201 109.351 33.2403 109.445 32.7208L109.446 32.7203L109.446 32.7201C109.467 32.6021 109.489 32.4821 109.511 32.36C109.574 32.0103 109.62 31.6437 109.667 31.2693L109.667 31.269L109.667 31.2689C109.709 30.9368 109.751 30.5984 109.807 30.26C109.866 29.54 109.925 28.82 109.925 28.22C109.925 27.44 109.807 26.84 109.629 26.3C109.452 25.76 109.038 25.52 108.446 25.52C108.209 25.52 107.973 25.58 107.736 25.76C107.499 25.88 107.322 26.06 107.144 26.3C107.034 26.4122 106.946 26.5478 106.852 26.6921C106.796 26.7793 106.738 26.8696 106.671 26.96C106.629 27.045 106.587 27.1225 106.548 27.1951C106.476 27.3275 106.413 27.4438 106.375 27.56L104.896 42.5H96.5533L99.7483 11.18C99.8667 9.86001 100.932 8.90001 102.233 8.90001H105.606C107.144 8.90001 108.268 10.22 108.091 11.78C108.015 12.3447 107.95 12.9203 107.891 13.4412L107.891 13.4413L107.891 13.4414L107.891 13.4415C107.812 14.1381 107.744 14.7367 107.677 15.08C107.558 16.22 107.44 17.3 107.263 18.38C107.144 19.46 107.026 20.42 106.908 21.2C107.499 20.6 108.15 20.18 108.919 19.82C109.688 19.52 110.517 19.34 111.523 19.34C112.706 19.34 113.771 19.52 114.599 19.88C115.428 20.24 116.138 20.72 116.67 21.38C117.203 22.04 117.558 22.82 117.853 23.78C118.09 24.74 118.208 25.82 118.208 27.02C118.208 27.8 118.149 28.58 118.09 29.3C118.031 30.02 117.913 30.68 117.794 31.34C117.739 31.6185 117.697 31.897 117.656 32.1695L117.656 32.1695L117.656 32.1697L117.656 32.1698L117.656 32.1699C117.608 32.4843 117.562 32.7908 117.498 33.08C117.38 33.62 117.38 34.1 117.38 34.52C117.38 34.76 117.38 35 117.439 35.24C117.498 35.48 117.558 35.66 117.676 35.84C117.794 36.02 117.972 36.2 118.149 36.32C118.327 36.44 118.563 36.5 118.918 36.5C119.333 36.5 119.688 36.44 119.983 36.26C120.181 36.18 120.378 36.0467 120.575 35.9133C120.674 35.8467 120.772 35.78 120.871 35.72C121.101 35.5799 121.26 35.3671 121.43 35.1382C121.479 35.073 121.528 35.0065 121.581 34.94C121.631 34.8561 121.68 34.7768 121.729 34.6996L121.729 34.6995C121.829 34.5396 121.923 34.3886 122.001 34.2231C121.997 34.0841 121.995 33.9431 121.995 33.8C121.995 32.6 122.054 31.46 122.232 30.26C122.409 29.06 122.705 27.92 123.06 26.9C123.415 25.88 123.948 24.8 124.539 23.9C125.131 22.94 125.9 22.16 126.728 21.44C127.616 20.78 128.563 20.24 129.746 19.82C130.87 19.4 132.172 19.22 133.592 19.22C135.248 19.22 136.668 19.4 137.793 19.7C138.917 20 139.863 20.48 140.514 21.14C141.224 21.8 141.698 22.58 141.993 23.54C142.289 24.5 142.467 25.58 142.467 26.84C142.467 27.5 142.289 28.04 141.875 28.64C141.461 29.18 140.988 29.66 140.337 30.14C139.686 30.56 138.917 30.98 138.088 31.34C137.26 31.7 136.373 32 135.485 32.3C134.683 32.5711 133.881 32.7442 133.122 32.9079L133.122 32.908L132.882 32.96C132.053 33.14 131.225 33.26 130.515 33.32C130.515 33.38 130.5 33.44 130.485 33.5L130.485 33.5001C130.471 33.5601 130.456 33.62 130.456 33.68V33.98C130.456 34.64 130.574 35.18 130.752 35.6C130.929 36.02 131.225 36.44 131.521 36.74C131.876 37.04 132.231 37.22 132.704 37.4C133.178 37.52 133.651 37.58 134.124 37.58C135.189 37.58 136.136 37.46 137.023 37.28C137.911 37.1 138.68 36.86 139.39 36.56C140.1 36.26 140.751 35.96 141.343 35.6C141.769 35.3406 142.165 35.1123 142.552 34.8927L143.887 21.2C144.005 19.88 145.07 18.92 146.372 18.92H152.525L152.229 21.68C152.939 20.84 153.708 20.24 154.596 19.82C155.483 19.4 156.43 19.16 157.436 19.16C160.158 19.16 161.873 20.24 162.702 22.46C163.471 21.44 164.418 20.6 165.542 20.06C166.666 19.52 167.79 19.22 169.033 19.22C170.098 19.22 171.044 19.4 171.813 19.7C172.583 20 173.233 20.48 173.707 21.02C174.18 21.62 174.594 22.28 174.831 23.12C175.068 23.96 175.186 24.92 175.186 25.94C175.186 26.6083 175.135 27.3283 175.08 28.1L175.068 28.28C175.028 28.54 174.995 28.8 174.962 29.06C174.897 29.58 174.831 30.1 174.713 30.62C174.687 30.788 174.662 30.9505 174.637 31.1092C174.546 31.6872 174.463 32.2151 174.417 32.78C174.298 33.44 174.298 34.04 174.298 34.52C174.298 35 174.417 35.42 174.594 35.78C174.772 36.14 175.186 36.32 175.778 36.32C176.192 36.32 176.547 36.26 176.843 36.14C177.138 36.02 177.375 35.9 177.553 35.66C177.73 35.48 177.908 35.24 178.085 34.94C178.201 34.744 178.292 34.548 178.39 34.3353L178.39 34.3347C178.443 34.222 178.497 34.1046 178.558 33.98L178.62 34.0525C178.618 33.969 178.618 33.8849 178.618 33.8C178.618 32.6 178.677 31.46 178.854 30.26C179.032 29.06 179.328 27.92 179.683 26.9C180.038 25.88 180.57 24.8 181.162 23.9C181.753 22.94 182.523 22.16 183.351 21.44C184.238 20.78 185.185 20.24 186.368 19.82C187.493 19.4 188.794 19.22 190.214 19.22C191.871 19.22 193.291 19.4 194.415 19.7C195.539 20 196.486 20.48 197.137 21.14C197.847 21.8 198.32 22.58 198.616 23.54C198.912 24.5 199.089 25.58 199.089 26.84C199.089 27.5 198.912 28.04 198.498 28.64C198.083 29.18 197.61 29.66 196.959 30.14C196.308 30.56 195.539 30.98 194.711 31.34C193.883 31.7 192.995 32 192.108 32.3C191.305 32.5711 190.503 32.7443 189.745 32.908C189.664 32.9254 189.584 32.9427 189.504 32.96C188.676 33.14 187.848 33.26 187.138 33.32C187.138 33.38 187.123 33.44 187.108 33.5C187.093 33.56 187.078 33.62 187.078 33.68V33.98C187.078 34.64 187.197 35.18 187.374 35.6C187.552 36.08 187.848 36.44 188.143 36.74C188.498 37.04 188.853 37.22 189.327 37.4C189.8 37.52 190.273 37.58 190.747 37.58C191.812 37.58 192.758 37.46 193.646 37.28C194.533 37.1 195.303 36.86 196.013 36.56C196.723 36.26 197.373 35.96 197.965 35.6C198.557 35.24 199.089 34.94 199.622 34.64L202.639 37.28C201.87 38 201.101 38.66 200.213 39.38C199.326 40.1 198.379 40.7 197.373 41.3C196.368 41.84 195.184 42.32 194.001 42.68C192.758 43.04 191.398 43.22 189.918 43.22C188.321 43.22 186.783 43.04 185.422 42.74C184.061 42.38 182.878 41.84 181.872 41.12C180.976 40.4257 180.269 39.5887 179.706 38.5668C179.606 38.7201 179.5 38.8711 179.387 39.02C178.854 39.8 178.203 40.46 177.493 41C176.783 41.54 176.014 42.02 175.127 42.32C174.298 42.62 173.411 42.8 172.583 42.8C171.222 42.8 170.098 42.62 169.269 42.2C168.441 41.78 167.79 41.3 167.317 40.64C166.843 39.98 166.548 39.26 166.37 38.48C166.193 37.7 166.133 36.86 166.133 36.08C166.133 35.54 166.193 34.94 166.252 34.34L166.266 34.1899C166.321 33.6312 166.38 33.0303 166.488 32.48C166.52 32.1275 166.568 31.7921 166.616 31.4646C166.657 31.179 166.697 30.8995 166.725 30.62C166.686 30.18 166.699 29.7933 166.712 29.4067C166.718 29.2133 166.725 29.02 166.725 28.82C166.725 28.46 166.725 28.04 166.666 27.62C166.607 27.2 166.548 26.84 166.429 26.54C166.311 26.24 166.193 25.94 165.956 25.76C165.778 25.58 165.542 25.46 165.187 25.46C164.832 25.46 164.477 25.64 164.181 26.06C163.885 26.48 163.648 26.96 163.412 27.5L161.933 42.38H153.649L155.069 28.76C155.128 28.52 155.128 28.22 155.128 27.86C155.128 27.5 155.128 27.08 155.069 26.78C155.01 26.42 154.892 26.12 154.655 25.88C154.478 25.64 154.182 25.46 153.768 25.46C153.294 25.46 152.88 25.64 152.525 26.06C152.17 26.48 151.874 26.96 151.638 27.56L150.158 42.44H141.816L142.003 40.5249C141.596 40.7894 141.179 41.0447 140.751 41.3C139.745 41.84 138.562 42.32 137.378 42.68C136.136 43.04 134.775 43.22 133.296 43.22C131.698 43.22 130.16 43.04 128.799 42.74C127.438 42.38 126.255 41.84 125.249 41.12C124.389 40.4526 123.701 39.6535 123.15 38.6849C123.046 38.8388 122.937 38.9905 122.823 39.14C122.232 39.92 121.581 40.58 120.812 41.12C120.043 41.66 119.273 42.14 118.386 42.44C117.498 42.74 116.67 42.92 115.783 42.92C114.363 42.92 113.179 42.68 112.292 42.14C111.404 41.66 110.753 41 110.28 40.22C109.807 39.44 109.511 38.66 109.333 37.76C109.156 36.86 109.097 36.08 109.097 35.36ZM132.29 29.42C131.817 29.6 131.284 29.72 130.752 29.78C130.79 29.3519 130.928 28.8986 131.069 28.4364L131.069 28.4364L131.069 28.4363C131.145 28.1859 131.222 27.933 131.284 27.68C131.462 26.96 131.698 26.36 131.994 25.82C132.29 25.28 132.586 24.86 132.941 24.5C133.296 24.2 133.651 24.02 134.065 24.02C134.538 24.02 134.834 24.2 134.953 24.62C135.13 25.04 135.248 25.52 135.308 26.06C135.189 26.54 135.012 27.02 134.716 27.44C134.42 27.86 134.065 28.22 133.651 28.58C133.237 28.94 132.763 29.24 132.29 29.42ZM188.913 29.42C188.439 29.6 187.907 29.72 187.374 29.78C187.449 29.3627 187.571 28.9214 187.696 28.4713C187.768 28.2095 187.841 27.9448 187.907 27.68C188.084 26.96 188.321 26.36 188.617 25.82C188.913 25.28 189.208 24.86 189.563 24.5C189.918 24.2 190.273 24.02 190.688 24.02C191.161 24.02 191.457 24.2 191.575 24.62C191.753 25.04 191.871 25.52 191.93 26.06C191.812 26.54 191.634 27.02 191.338 27.44C191.043 27.86 190.688 28.22 190.273 28.58C189.859 28.94 189.386 29.24 188.913 29.42Z" fill="#07BAFE"/>
<path fill-rule="evenodd" clip-rule="evenodd" d="M43.0981 15.7733C43.3292 18.7778 42.2892 21.4933 40.0359 23.8622C39.9569 23.9807 39.851 24.0721 39.7549 24.1551C39.7104 24.1935 39.668 24.2301 39.6315 24.2667C41.6537 27.04 41.7692 30.16 39.9781 33.5689C38.2448 36.92 35.587 38.6533 32.2359 38.6533H32.1781V38.7111C32.1203 39.0578 32.0626 39.4044 31.947 39.7511C31.1381 43.1022 29.1737 45.4711 26.2848 46.7422C25.4181 47.1467 24.5514 47.32 23.7426 47.32C21.7781 47.32 20.1026 46.3378 18.8892 44.4889C18.8026 44.5467 18.7303 44.6044 18.6581 44.6622C18.5859 44.72 18.5137 44.7778 18.427 44.8355C18.2334 44.9763 18.0398 45.1279 17.8429 45.282C17.3935 45.6337 16.9271 45.9987 16.4048 46.28C15.307 46.9155 14.2092 47.2622 13.1114 47.2622C12.1292 47.2622 11.147 47.0311 10.2226 46.4533C8.60478 45.5289 7.68034 43.9689 7.39145 41.8311C7.33367 41.3111 7.27589 40.7911 7.27589 40.3867C7.27589 40.3513 7.27454 40.3023 7.27287 40.2419C7.26362 39.9078 7.24466 39.2228 7.39145 38.5378H6.987C6.52478 38.5378 6.06256 38.4222 5.60034 38.3067C3.46256 37.8444 1.96034 36.2267 1.44034 34.0889C0.747004 31.2 1.32478 28.4844 3.11589 26.0578C3.23145 25.8267 3.867 24.8444 4.73367 24.1511L4.56034 23.9778L4.387 23.8044C3.92478 23.3422 3.57811 22.7067 3.40478 21.8978C3.11589 21.0311 3.00034 20.0489 3.11589 19.0667C3.46256 15.1378 5.31145 12.3644 8.547 10.6889C8.72034 10.5733 9.99145 9.82221 11.2626 9.82221H11.4359C11.7248 9.82221 11.9559 9.5911 12.0137 9.30221C12.1292 8.49333 12.4181 7.5111 13.1114 6.35555C14.1514 4.15999 15.8848 2.54221 18.2537 1.61777C18.947 1.32888 19.6981 1.15555 20.4492 1.15555C21.8359 1.15555 23.107 1.67555 24.147 2.59999L24.3203 2.77333L24.3204 2.77335C24.5515 3.00445 24.7826 3.23556 24.9559 3.46666C25.0354 3.57265 25.1149 3.66649 25.1888 3.75375C25.2761 3.85675 25.3556 3.9506 25.4181 4.04444H25.5337C25.5626 3.98666 25.6059 3.94333 25.6492 3.89999C25.6926 3.85666 25.7359 3.81333 25.7648 3.75555C26.227 3.29333 26.747 2.88888 27.267 2.54221L27.8448 2.13777V2.19555C28.307 1.90666 28.827 1.73333 29.347 1.55999C29.9826 1.38666 30.6181 1.2711 31.1959 1.2711C33.8537 1.2711 35.9337 2.94666 36.6848 5.66221C36.9737 6.93333 37.0314 8.26221 36.7426 9.93777V10.0533H36.9159H37.2626C38.9959 10.0533 40.4403 10.6311 41.4803 11.7867C42.4048 12.8267 42.9826 14.2133 43.0981 15.7733ZM38.0715 32.5867C38.9959 30.7378 39.1115 29.0044 37.9559 27.2133C37.147 26 37.0892 24.4978 37.7826 23.2844C38.0315 22.8576 38.3681 22.5184 38.7113 22.1724C38.9257 21.9564 39.1427 21.7376 39.3426 21.4933C40.3826 20.2222 40.9603 18.6622 40.787 16.9867C40.7292 16.0622 40.3826 15.08 39.4581 14.7911C39.0606 14.6382 38.6306 14.631 38.2026 14.6238C37.8219 14.6174 37.4428 14.611 37.0892 14.5022C36.3959 14.3289 35.8181 13.9244 35.3559 13.4044C34.4314 12.3067 34.3737 11.0355 34.547 9.70666C34.6626 8.60888 34.7203 6.93333 33.5648 6.29777C32.6403 5.77777 31.427 6.23999 30.6759 6.81777C30.4309 7.0015 30.1911 7.20082 29.9505 7.40085C29.056 8.14436 28.1496 8.89777 26.9203 8.89777H26.8626C25.3026 8.83999 24.3781 7.91555 23.4537 6.75999C23.1648 6.41333 22.8181 6.06666 22.3559 5.9511C21.1426 5.66221 19.6981 6.75999 18.947 7.56888C18.0803 8.49333 17.387 9.5911 17.2714 10.8622C17.0981 12.0178 16.8092 13.0578 15.827 13.8089C15.0316 14.4639 14.274 14.5127 13.401 14.569C13.196 14.5822 12.9845 14.5958 12.7648 14.6178C11.8981 14.7333 11.147 15.1378 10.5114 15.7155C9.24034 16.8711 8.48923 18.6622 8.31589 20.3378C8.20034 21.32 8.48923 21.9555 9.12478 22.7067C9.64478 23.3422 9.93367 24.1511 9.93367 24.96C9.9737 26.3609 9.23729 27.1796 8.45446 28.0498C8.10729 28.4357 7.75099 28.8318 7.44923 29.2933C6.52478 30.68 6.12034 32.4133 6.52478 34.0889C6.81367 35.2444 7.73812 35.5911 8.83589 35.5911C9.93367 35.5911 10.9737 36.0533 11.667 36.8622C12.621 37.9307 12.5921 39.1504 12.5623 40.4048C12.547 41.0497 12.5315 41.7037 12.6492 42.3511C12.707 42.6978 12.8226 43.0444 12.9959 43.3911C13.5159 44.2578 14.5559 44.3733 15.4226 44.0844C16.1361 43.8296 16.7148 43.3499 17.2776 42.8834C17.3528 42.8211 17.4277 42.759 17.5026 42.6978C18.5426 41.8311 19.987 41.3111 21.3737 41.6578C22.0092 41.8311 22.6448 42.2355 23.107 42.7555C23.2293 42.8932 23.3395 43.0389 23.4494 43.1841C23.7545 43.5877 24.0569 43.9876 24.6092 44.2C24.7826 44.2578 24.9559 44.3155 25.1292 44.3155C27.267 44.5467 29.0581 41.7733 29.5781 40.0978C29.7013 39.7527 29.7825 39.3972 29.862 39.0491C29.9689 38.5811 30.0726 38.1265 30.2715 37.7289C30.9648 36.4 32.3514 35.7644 33.7959 35.7067C35.7026 35.5911 37.2048 34.2044 38.0715 32.5867ZM44.1959 14.6178C46.6804 18.6044 48.4137 22.9956 49.4537 27.6178C50.8404 33.6267 51.0137 39.9244 50.2048 45.9911V45.9911C50.2048 46.1645 50.2048 46.3956 50.147 46.5689C49.9159 47.8978 49.5692 49.4 48.4137 50.2089C47.8359 50.6133 47.3159 50.96 46.6226 51.0756C45.9292 51.1333 45.2359 51.0756 44.6004 50.7867C43.4448 50.3244 42.5204 49.4 41.5959 48.4756C41.5285 48.4123 41.4611 48.3488 41.3935 48.2852C40.5351 47.4765 39.6585 46.6507 38.5337 46.2222C39.227 47.2044 38.9959 48.6489 38.0715 49.3422C37.147 50.0356 35.6448 49.8622 34.9515 48.9378C33.8537 47.5511 34.8359 45.6444 36.4537 45.2978C37.2095 45.1466 38.0093 45.2591 38.7763 45.367C38.8888 45.3828 39.0006 45.3986 39.1115 45.4133C39.9204 45.5289 40.7292 45.76 41.5381 45.9911C43.1559 46.5111 44.6581 47.1467 46.1026 48.0133C46.3337 48.1289 46.6226 48.2444 46.7381 48.0133V47.84C46.6226 45.0089 44.2537 42.6978 41.6537 41.6C39.7239 40.7852 37.6349 40.5115 35.5285 40.2355C34.797 40.1397 34.0634 40.0436 33.3337 39.9244C36.627 39.4044 39.6315 37.2089 41.1915 34.2044C42.7515 31.2 42.8092 27.4444 41.307 24.44C43.7337 21.84 44.8315 18.0844 44.1959 14.6178ZM35.6448 47.2622C35.6448 47.9556 36.0492 48.36 36.7426 48.36C37.4359 48.36 38.0137 47.84 38.0137 47.0889C38.0137 46.3956 37.6092 46.1644 36.9159 46.1644C36.2226 46.1644 35.6448 46.5689 35.6448 47.2622ZM42.9826 24.6133C49.5115 27.6178 49.3959 46.0489 49.3959 45.8756C50.147 39.7511 49.627 33.5111 48.2981 27.8489C47.6626 24.9022 46.6804 22.0711 45.467 19.4133C45.0626 21.32 44.1959 23.1111 42.9826 24.6133Z" fill="#07BAFE"/>
</svg>
